<svg width="561" height="355" viewBox="0 0 561 355" fill="none" xmlns="http://www.w3.org/2000/svg">
<rect width="561" height="355" fill="url(#paint0_linear_2383_661)"/>
<mask id="mask0_2383_661" style="mask-type:alpha" maskUnits="userSpaceOnUse" x="0" y="0" width="561" height="355">
<rect width="561" height="355" fill="#16084C"/>
</mask>
<g mask="url(#mask0_2383_661)">
<rect y="242.686" width="561" height="112.315" fill="#1A2036"/>
<g filter="url(#filter0_d_2383_661)">
<path d="M45.4553 191.378C43.4401 191.378 41.6454 191.031 40.071 190.339C38.5057 189.637 37.2687 188.674 36.3601 187.451C35.4605 186.219 34.9972 184.797 34.9702 183.187H40.8537C40.8897 183.862 41.1101 184.455 41.5149 184.968C41.9287 185.472 42.4775 185.863 43.1612 186.142C43.8449 186.421 44.6141 186.56 45.4688 186.56C46.3594 186.56 47.1465 186.403 47.8303 186.088C48.514 185.773 49.0492 185.337 49.4361 184.779C49.8229 184.221 50.0163 183.578 50.0163 182.849C50.0163 182.112 49.8094 181.46 49.3956 180.893C48.9908 180.317 48.406 179.867 47.6413 179.543C46.8857 179.219 45.986 179.058 44.9425 179.058H42.3651V174.766H44.9425C45.8241 174.766 46.6023 174.613 47.277 174.308C47.9607 174.002 48.4915 173.579 48.8693 173.039C49.2472 172.49 49.4361 171.852 49.4361 171.123C49.4361 170.43 49.2697 169.823 48.9368 169.301C48.6129 168.77 48.1541 168.357 47.5604 168.06C46.9756 167.763 46.2919 167.614 45.5092 167.614C44.7176 167.614 43.9934 167.758 43.3366 168.046C42.6799 168.325 42.1536 168.725 41.7578 169.247C41.362 169.769 41.1506 170.381 41.1236 171.082H35.5234C35.5504 169.49 36.0047 168.087 36.8864 166.872C37.768 165.658 38.9555 164.709 40.4489 164.025C41.9512 163.332 43.647 162.986 45.5362 162.986C47.4434 162.986 49.1122 163.332 50.5426 164.025C51.973 164.718 53.084 165.653 53.8757 166.832C54.6764 168.001 55.0722 169.315 55.0632 170.772C55.0722 172.319 54.5909 173.61 53.6193 174.645C52.6567 175.679 51.4018 176.336 49.8544 176.615V176.831C51.8875 177.092 53.4349 177.798 54.4965 178.95C55.567 180.092 56.0978 181.522 56.0888 183.241C56.0978 184.815 55.6435 186.214 54.7259 187.438C53.8172 188.661 52.5623 189.624 50.9609 190.325C49.3596 191.027 47.5244 191.378 45.4553 191.378ZM61.3906 186.142V181.54L72.9282 163.364H76.8955V169.733H74.5475L67.2741 181.244V181.46H83.6697V186.142H61.3906ZM74.6555 191V184.739L74.7634 182.701V163.364H80.2421V191H74.6555ZM99.1765 191.378C97.2693 191.378 95.5691 191.027 94.0757 190.325C92.5913 189.624 91.4128 188.656 90.5402 187.424C89.6675 186.192 89.2132 184.779 89.1773 183.187H94.8449C94.9078 184.257 95.3577 185.125 96.1943 185.791C97.0309 186.457 98.025 186.79 99.1765 186.79C100.094 186.79 100.904 186.587 101.606 186.183C102.316 185.769 102.869 185.197 103.265 184.469C103.67 183.731 103.873 182.885 103.873 181.932C103.873 180.96 103.666 180.106 103.252 179.368C102.847 178.63 102.285 178.054 101.565 177.641C100.845 177.227 100.022 177.015 99.0956 177.006C98.2859 177.006 97.4987 177.173 96.7341 177.506C95.9784 177.839 95.3891 178.293 94.9663 178.869L89.771 177.938L91.08 163.364H107.975V168.141H95.8974L95.1822 175.063H95.3442C95.83 174.379 96.5631 173.813 97.5437 173.363C98.5243 172.913 99.6219 172.688 100.836 172.688C102.501 172.688 103.985 173.08 105.289 173.862C106.594 174.645 107.624 175.72 108.38 177.087C109.135 178.446 109.509 180.011 109.5 181.783C109.509 183.646 109.077 185.301 108.204 186.749C107.341 188.189 106.131 189.322 104.574 190.15C103.027 190.969 101.228 191.378 99.1765 191.378ZM125.189 191.378C123.282 191.378 121.581 191.027 120.088 190.325C118.603 189.624 117.425 188.656 116.552 187.424C115.68 186.192 115.225 184.779 115.189 183.187H120.857C120.92 184.257 121.37 185.125 122.206 185.791C123.043 186.457 124.037 186.79 125.189 186.79C126.106 186.79 126.916 186.587 127.618 186.183C128.328 185.769 128.882 185.197 129.278 184.469C129.682 183.731 129.885 182.885 129.885 181.932C129.885 180.96 129.678 180.106 129.264 179.368C128.859 178.63 128.297 178.054 127.577 177.641C126.858 177.227 126.034 177.015 125.108 177.006C124.298 177.006 123.511 177.173 122.746 177.506C121.991 177.839 121.401 178.293 120.978 178.869L115.783 177.938L117.092 163.364H133.987V168.141H121.91L121.194 175.063H121.356C121.842 174.379 122.575 173.813 123.556 173.363C124.537 172.913 125.634 172.688 126.849 172.688C128.513 172.688 129.997 173.08 131.302 173.862C132.606 174.645 133.636 175.72 134.392 177.087C135.148 178.446 135.521 180.011 135.512 181.783C135.521 183.646 135.089 185.301 134.216 186.749C133.353 188.189 132.143 189.322 130.586 190.15C129.039 190.969 127.24 191.378 125.189 191.378ZM151.004 186.142V181.54L162.541 163.364H166.509V169.733H164.161L156.887 181.244V181.46H173.283V186.142H151.004ZM164.269 191V184.739L164.377 182.701V163.364H169.855V191H164.269ZM188.79 191.378C186.883 191.378 185.182 191.027 183.689 190.325C182.205 189.624 181.026 188.656 180.153 187.424C179.281 186.192 178.826 184.779 178.79 183.187H184.458C184.521 184.257 184.971 185.125 185.807 185.791C186.644 186.457 187.638 186.79 188.79 186.79C189.707 186.79 190.517 186.587 191.219 186.183C191.929 185.769 192.483 185.197 192.879 184.469C193.283 183.731 193.486 182.885 193.486 181.932C193.486 180.96 193.279 180.106 192.865 179.368C192.46 178.63 191.898 178.054 191.178 177.641C190.459 177.227 189.635 177.015 188.709 177.006C187.899 177.006 187.112 177.173 186.347 177.506C185.592 177.839 185.002 178.293 184.58 178.869L179.384 177.938L180.693 163.364H197.588V168.141H185.511L184.795 175.063H184.957C185.443 174.379 186.176 173.813 187.157 173.363C188.138 172.913 189.235 172.688 190.45 172.688C192.114 172.688 193.598 173.08 194.903 173.862C196.207 174.645 197.237 175.72 197.993 177.087C198.749 178.446 199.122 180.011 199.113 181.783C199.122 183.646 198.69 185.301 197.817 186.749C196.954 188.189 195.744 189.322 194.187 190.15C192.64 190.969 190.841 191.378 188.79 191.378ZM215.315 191.378C213.893 191.369 212.521 191.13 211.199 190.663C209.886 190.195 208.707 189.435 207.663 188.382C206.62 187.33 205.792 185.935 205.18 184.199C204.578 182.463 204.276 180.33 204.276 177.803C204.285 175.482 204.551 173.408 205.073 171.582C205.603 169.746 206.359 168.19 207.34 166.913C208.329 165.635 209.512 164.664 210.889 163.998C212.265 163.323 213.808 162.986 215.517 162.986C217.361 162.986 218.99 163.346 220.402 164.065C221.814 164.776 222.948 165.743 223.803 166.967C224.666 168.19 225.188 169.562 225.368 171.082H219.606C219.381 170.12 218.909 169.364 218.189 168.815C217.469 168.267 216.579 167.992 215.517 167.992C213.718 167.992 212.35 168.775 211.415 170.34C210.488 171.906 210.016 174.033 209.998 176.723H210.187C210.601 175.904 211.158 175.207 211.86 174.631C212.571 174.047 213.376 173.601 214.276 173.295C215.184 172.981 216.142 172.823 217.15 172.823C218.787 172.823 220.245 173.21 221.522 173.984C222.8 174.748 223.807 175.801 224.545 177.141C225.283 178.482 225.651 180.016 225.651 181.743C225.651 183.614 225.215 185.278 224.342 186.736C223.479 188.193 222.269 189.336 220.712 190.163C219.165 190.982 217.366 191.387 215.315 191.378ZM215.288 186.79C216.187 186.79 216.993 186.574 217.703 186.142C218.414 185.71 218.972 185.125 219.377 184.388C219.781 183.65 219.984 182.822 219.984 181.905C219.984 180.987 219.781 180.164 219.377 179.435C218.981 178.707 218.432 178.126 217.73 177.695C217.028 177.263 216.228 177.047 215.328 177.047C214.653 177.047 214.028 177.173 213.452 177.425C212.886 177.677 212.386 178.027 211.955 178.477C211.532 178.927 211.199 179.449 210.956 180.043C210.713 180.627 210.592 181.253 210.592 181.918C210.592 182.809 210.794 183.623 211.199 184.361C211.613 185.098 212.171 185.688 212.872 186.129C213.583 186.569 214.388 186.79 215.288 186.79ZM231.314 191V186.79L241.151 177.681C241.988 176.871 242.69 176.143 243.257 175.495C243.832 174.847 244.269 174.213 244.566 173.592C244.862 172.963 245.011 172.283 245.011 171.555C245.011 170.745 244.826 170.048 244.458 169.463C244.089 168.869 243.585 168.415 242.946 168.1C242.307 167.776 241.583 167.614 240.774 167.614C239.928 167.614 239.19 167.785 238.561 168.127C237.931 168.469 237.445 168.959 237.103 169.598C236.761 170.237 236.59 170.997 236.59 171.879H231.044C231.044 170.07 231.454 168.5 232.272 167.169C233.091 165.838 234.238 164.808 235.713 164.079C237.189 163.35 238.889 162.986 240.814 162.986C242.793 162.986 244.516 163.337 245.982 164.038C247.458 164.731 248.605 165.694 249.423 166.926C250.242 168.159 250.651 169.571 250.651 171.163C250.651 172.207 250.445 173.237 250.031 174.254C249.626 175.27 248.902 176.399 247.858 177.641C246.815 178.873 245.344 180.353 243.446 182.08L239.411 186.034V186.223H251.016V191H231.314ZM268.178 191L279.634 168.33V168.141H266.288V163.364H285.68V168.208L274.21 191H268.178ZM293.039 191L304.496 168.33V168.141H291.15V163.364H310.542V168.208L299.071 191H293.039ZM328.089 163.364V191H322.246V168.91H322.084L315.756 172.877V167.695L322.597 163.364H328.089ZM347.014 191.607C344.693 191.598 342.696 191.027 341.022 189.893C339.358 188.76 338.076 187.118 337.176 184.968C336.286 182.818 335.845 180.232 335.854 177.209C335.854 174.195 336.299 171.627 337.19 169.504C338.089 167.38 339.371 165.766 341.036 164.659C342.709 163.544 344.702 162.986 347.014 162.986C349.326 162.986 351.314 163.544 352.978 164.659C354.652 165.775 355.938 167.394 356.838 169.517C357.737 171.631 358.183 174.195 358.174 177.209C358.174 180.241 357.724 182.831 356.824 184.982C355.933 187.132 354.656 188.773 352.992 189.907C351.327 191.04 349.335 191.607 347.014 191.607ZM347.014 186.763C348.597 186.763 349.861 185.967 350.806 184.374C351.75 182.782 352.218 180.393 352.209 177.209C352.209 175.113 351.993 173.367 351.561 171.973C351.139 170.579 350.536 169.531 349.753 168.829C348.979 168.127 348.066 167.776 347.014 167.776C345.439 167.776 344.18 168.563 343.235 170.138C342.291 171.712 341.814 174.069 341.805 177.209C341.805 179.332 342.016 181.104 342.439 182.526C342.871 183.938 343.478 185 344.261 185.71C345.044 186.412 345.961 186.763 347.014 186.763ZM384.39 191.378C382.375 191.378 380.58 191.031 379.006 190.339C377.44 189.637 376.203 188.674 375.295 187.451C374.395 186.219 373.932 184.797 373.905 183.187H379.788C379.824 183.862 380.045 184.455 380.45 184.968C380.863 185.472 381.412 185.863 382.096 186.142C382.78 186.421 383.549 186.56 384.404 186.56C385.294 186.56 386.081 186.403 386.765 186.088C387.449 185.773 387.984 185.337 388.371 184.779C388.758 184.221 388.951 183.578 388.951 182.849C388.951 182.112 388.744 181.46 388.33 180.893C387.926 180.317 387.341 179.867 386.576 179.543C385.82 179.219 384.921 179.058 383.877 179.058H381.3V174.766H383.877C384.759 174.766 385.537 174.613 386.212 174.308C386.895 174.002 387.426 173.579 387.804 173.039C388.182 172.49 388.371 171.852 388.371 171.123C388.371 170.43 388.204 169.823 387.872 169.301C387.548 168.77 387.089 168.357 386.495 168.06C385.91 167.763 385.227 167.614 384.444 167.614C383.652 167.614 382.928 167.758 382.271 168.046C381.615 168.325 381.088 168.725 380.693 169.247C380.297 169.769 380.085 170.381 380.058 171.082H374.458C374.485 169.49 374.939 168.087 375.821 166.872C376.703 165.658 377.89 164.709 379.384 164.025C380.886 163.332 382.582 162.986 384.471 162.986C386.378 162.986 388.047 163.332 389.477 164.025C390.908 164.718 392.019 165.653 392.81 166.832C393.611 168.001 394.007 169.315 393.998 170.772C394.007 172.319 393.526 173.61 392.554 174.645C391.591 175.679 390.337 176.336 388.789 176.615V176.831C390.822 177.092 392.37 177.798 393.431 178.95C394.502 180.092 395.033 181.522 395.024 183.241C395.033 184.815 394.578 186.214 393.661 187.438C392.752 188.661 391.497 189.624 389.896 190.325C388.294 191.027 386.459 191.378 384.39 191.378ZM410.837 191.378C408.93 191.378 407.23 191.027 405.737 190.325C404.252 189.624 403.074 188.656 402.201 187.424C401.328 186.192 400.874 184.779 400.838 183.187H406.506C406.569 184.257 407.019 185.125 407.855 185.791C408.692 186.457 409.686 186.79 410.837 186.79C411.755 186.79 412.565 186.587 413.266 186.183C413.977 185.769 414.53 185.197 414.926 184.469C415.331 183.731 415.533 182.885 415.533 181.932C415.533 180.96 415.327 180.106 414.913 179.368C414.508 178.63 413.946 178.054 413.226 177.641C412.506 177.227 411.683 177.015 410.756 177.006C409.947 177.006 409.16 177.173 408.395 177.506C407.639 177.839 407.05 178.293 406.627 178.869L401.432 177.938L402.741 163.364H419.636V168.141H407.558L406.843 175.063H407.005C407.491 174.379 408.224 173.813 409.205 173.363C410.185 172.913 411.283 172.688 412.497 172.688C414.162 172.688 415.646 173.08 416.95 173.862C418.255 174.645 419.285 175.72 420.041 177.087C420.796 178.446 421.17 180.011 421.161 181.783C421.17 183.646 420.738 185.301 419.865 186.749C419.001 188.189 417.791 189.322 416.235 190.15C414.688 190.969 412.889 191.378 410.837 191.378ZM437.592 191.607C435.271 191.598 433.274 191.027 431.6 189.893C429.936 188.76 428.654 187.118 427.754 184.968C426.864 182.818 426.423 180.232 426.432 177.209C426.432 174.195 426.877 171.627 427.768 169.504C428.668 167.38 429.949 165.766 431.614 164.659C433.287 163.544 435.28 162.986 437.592 162.986C439.904 162.986 441.892 163.544 443.556 164.659C445.23 165.775 446.516 167.394 447.416 169.517C448.315 171.631 448.761 174.195 448.752 177.209C448.752 180.241 448.302 182.831 447.402 184.982C446.512 187.132 445.234 188.773 443.57 189.907C441.905 191.04 439.913 191.607 437.592 191.607ZM437.592 186.763C439.175 186.763 440.439 185.967 441.384 184.374C442.328 182.782 442.796 180.393 442.787 177.209C442.787 175.113 442.571 173.367 442.139 171.973C441.717 170.579 441.114 169.531 440.331 168.829C439.557 168.127 438.644 167.776 437.592 167.776C436.017 167.776 434.758 168.563 433.813 170.138C432.869 171.712 432.392 174.069 432.383 177.209C432.383 179.332 432.594 181.104 433.017 182.526C433.449 183.938 434.056 185 434.839 185.71C435.622 186.412 436.539 186.763 437.592 186.763ZM454.789 191L466.245 168.33V168.141H452.9V163.364H472.291V168.208L460.821 191H454.789Z" fill="white"/>
</g>
<g filter="url(#filter1_di_2383_661)">
<path d="M34.2642 289.884H38.0568L42.0625 299.657H42.233L46.2386 289.884H50.0312V304.43H47.0483V294.962H46.9276L43.1634 304.359H41.1321L37.3679 294.927H37.2472V304.43H34.2642V289.884ZM52.5082 304.43V293.521H55.5337V304.43H52.5082ZM54.0281 292.114C53.5782 292.114 53.1924 291.965 52.8704 291.667C52.5531 291.364 52.3945 291.002 52.3945 290.58C52.3945 290.164 52.5531 289.806 52.8704 289.508C53.1924 289.205 53.5782 289.053 54.0281 289.053C54.4779 289.053 54.8614 289.205 55.1786 289.508C55.5006 289.806 55.6616 290.164 55.6616 290.58C55.6616 291.002 55.5006 291.364 55.1786 291.667C54.8614 291.965 54.4779 292.114 54.0281 292.114ZM62.8864 304.643C61.7689 304.643 60.8078 304.406 60.0028 303.933C59.2027 303.454 58.5871 302.791 58.1562 301.944C57.7301 301.096 57.517 300.121 57.517 299.018C57.517 297.9 57.7325 296.92 58.1634 296.077C58.599 295.23 59.2169 294.569 60.017 294.096C60.8172 293.618 61.7689 293.379 62.8722 293.379C63.8239 293.379 64.6572 293.551 65.3722 293.897C66.0871 294.243 66.6529 294.728 67.0696 295.353C67.4863 295.978 67.7159 296.712 67.7585 297.555H64.9034C64.8229 297.01 64.6098 296.572 64.2642 296.241C63.9233 295.905 63.4759 295.737 62.9219 295.737C62.4531 295.737 62.0436 295.864 61.6932 296.12C61.3475 296.371 61.0777 296.738 60.8835 297.221C60.6894 297.704 60.5923 298.289 60.5923 298.975C60.5923 299.671 60.687 300.263 60.8764 300.751C61.0705 301.238 61.3428 301.61 61.6932 301.866C62.0436 302.121 62.4531 302.249 62.9219 302.249C63.2675 302.249 63.5777 302.178 63.8523 302.036C64.1316 301.894 64.3613 301.688 64.5412 301.418C64.7259 301.144 64.8466 300.815 64.9034 300.431H67.7585C67.7112 301.264 67.4839 301.998 67.0767 302.633C66.6742 303.263 66.1179 303.755 65.4077 304.11C64.6974 304.465 63.857 304.643 62.8864 304.643ZM72.7212 298.123V304.43H69.6957V289.884H72.636V295.445H72.7638C73.0101 294.801 73.4078 294.297 73.957 293.933C74.5063 293.563 75.1952 293.379 76.0238 293.379C76.7814 293.379 77.4419 293.544 78.0053 293.876C78.5735 294.202 79.0138 294.674 79.3263 295.289C79.6436 295.9 79.7998 296.631 79.7951 297.484V304.43H76.7695V298.023C76.7743 297.351 76.6038 296.828 76.2582 296.454C75.9173 296.08 75.439 295.893 74.8235 295.893C74.4116 295.893 74.047 295.98 73.7298 296.156C73.4173 296.331 73.171 296.586 72.9911 296.923C72.8159 297.254 72.726 297.654 72.7212 298.123ZM85.2869 304.636C84.5909 304.636 83.9706 304.515 83.4261 304.273C82.8816 304.027 82.4508 303.665 82.1335 303.187C81.821 302.704 81.6648 302.103 81.6648 301.383C81.6648 300.777 81.776 300.268 81.9986 299.856C82.2211 299.444 82.5241 299.112 82.9077 298.862C83.2912 298.611 83.7268 298.421 84.2145 298.293C84.7069 298.165 85.223 298.076 85.7628 298.023C86.3973 297.957 86.9086 297.896 87.2969 297.839C87.6851 297.777 87.9669 297.687 88.142 297.569C88.3172 297.451 88.4048 297.275 88.4048 297.043V297.001C88.4048 296.551 88.2628 296.203 87.9787 295.957C87.6993 295.71 87.3016 295.587 86.7855 295.587C86.241 295.587 85.8078 295.708 85.4858 295.95C85.1638 296.186 84.9508 296.485 84.8466 296.844L82.0483 296.617C82.1903 295.954 82.4697 295.381 82.8864 294.898C83.303 294.411 83.8404 294.037 84.4986 293.776C85.1615 293.511 85.9285 293.379 86.7997 293.379C87.4058 293.379 87.9858 293.45 88.5398 293.592C89.0985 293.734 89.5933 293.954 90.0241 294.252C90.4598 294.55 90.803 294.934 91.054 295.403C91.3049 295.867 91.4304 296.423 91.4304 297.072V304.43H88.5611V302.917H88.4759C88.3007 303.258 88.0663 303.558 87.7727 303.819C87.4792 304.075 87.1264 304.276 86.7145 304.423C86.3026 304.565 85.8267 304.636 85.2869 304.636ZM86.1534 302.548C86.5985 302.548 86.9915 302.46 87.3324 302.285C87.6733 302.105 87.9408 301.863 88.1349 301.56C88.3291 301.257 88.4261 300.914 88.4261 300.531V299.373C88.3314 299.434 88.2012 299.491 88.0355 299.543C87.8745 299.591 87.6922 299.636 87.4886 299.678C87.285 299.716 87.0814 299.752 86.8778 299.785C86.6742 299.813 86.4896 299.839 86.3239 299.863C85.9688 299.915 85.6586 299.998 85.3935 300.112C85.1283 300.225 84.9223 300.379 84.7756 300.573C84.6288 300.763 84.5554 300.999 84.5554 301.283C84.5554 301.695 84.7045 302.01 85.0028 302.228C85.3059 302.441 85.6894 302.548 86.1534 302.548ZM98.7493 304.643C97.6271 304.643 96.6612 304.415 95.8516 303.961C95.0466 303.502 94.4264 302.853 93.9908 302.015C93.5552 301.172 93.3374 300.175 93.3374 299.025C93.3374 297.903 93.5552 296.918 93.9908 296.07C94.4264 295.223 95.0395 294.562 95.8303 294.089C96.6257 293.615 97.5585 293.379 98.6286 293.379C99.3482 293.379 100.018 293.495 100.638 293.727C101.263 293.954 101.808 294.297 102.272 294.756C102.741 295.216 103.105 295.793 103.366 296.489C103.626 297.181 103.756 297.99 103.756 298.918V299.749H94.5447V297.874H100.908C100.908 297.439 100.814 297.053 100.624 296.717C100.435 296.38 100.172 296.118 99.8359 295.928C99.5045 295.734 99.1186 295.637 98.6783 295.637C98.219 295.637 97.8118 295.744 97.4567 295.957C97.1063 296.165 96.8317 296.447 96.6328 296.802C96.4339 297.152 96.3321 297.543 96.3274 297.974V299.756C96.3274 300.296 96.4268 300.763 96.6257 301.156C96.8293 301.549 97.1158 301.852 97.4851 302.065C97.8544 302.278 98.2924 302.384 98.799 302.384C99.1352 302.384 99.4429 302.337 99.7223 302.242C100.002 302.147 100.241 302.005 100.44 301.816C100.638 301.627 100.79 301.395 100.894 301.12L103.692 301.305C103.55 301.977 103.259 302.564 102.819 303.066C102.383 303.563 101.82 303.951 101.129 304.231C100.442 304.505 99.6489 304.643 98.7493 304.643ZM108.756 289.884V304.43H105.731V289.884H108.756ZM118.373 304.43H115.077L120.099 289.884H124.062L129.076 304.43H125.781L122.137 293.208H122.023L118.373 304.43ZM118.167 298.712H125.951V301.113H118.167V298.712ZM133.795 298.123V304.43H130.77V293.521H133.653V295.445H133.781C134.023 294.811 134.428 294.309 134.996 293.94C135.564 293.566 136.253 293.379 137.062 293.379C137.82 293.379 138.481 293.544 139.044 293.876C139.607 294.207 140.045 294.681 140.358 295.296C140.67 295.907 140.827 296.636 140.827 297.484V304.43H137.801V298.023C137.806 297.356 137.635 296.835 137.29 296.461C136.944 296.082 136.468 295.893 135.862 295.893C135.455 295.893 135.095 295.98 134.783 296.156C134.475 296.331 134.233 296.586 134.058 296.923C133.888 297.254 133.8 297.654 133.795 298.123ZM147.231 304.607C146.403 304.607 145.652 304.394 144.98 303.968C144.312 303.537 143.782 302.905 143.389 302.072C143.001 301.234 142.806 300.206 142.806 298.989C142.806 297.739 143.008 296.7 143.41 295.871C143.813 295.038 144.348 294.415 145.015 294.004C145.688 293.587 146.424 293.379 147.224 293.379C147.835 293.379 148.344 293.483 148.751 293.691C149.163 293.895 149.494 294.15 149.745 294.458C150.001 294.761 150.195 295.059 150.328 295.353H150.42V289.884H153.439V304.43H150.456V302.683H150.328C150.186 302.986 149.984 303.286 149.724 303.585C149.468 303.878 149.135 304.122 148.723 304.316C148.315 304.51 147.818 304.607 147.231 304.607ZM148.19 302.2C148.678 302.2 149.09 302.067 149.426 301.802C149.767 301.532 150.027 301.156 150.207 300.673C150.392 300.19 150.484 299.624 150.484 298.975C150.484 298.326 150.394 297.763 150.214 297.285C150.034 296.807 149.774 296.437 149.433 296.177C149.092 295.916 148.678 295.786 148.19 295.786C147.693 295.786 147.274 295.921 146.933 296.191C146.592 296.461 146.334 296.835 146.159 297.313C145.984 297.791 145.896 298.345 145.896 298.975C145.896 299.61 145.984 300.171 146.159 300.658C146.339 301.141 146.597 301.52 146.933 301.795C147.274 302.065 147.693 302.2 148.19 302.2ZM155.926 304.43V293.521H158.859V295.424H158.973C159.172 294.747 159.506 294.236 159.974 293.89C160.443 293.54 160.983 293.364 161.594 293.364C161.745 293.364 161.909 293.374 162.084 293.393C162.259 293.412 162.413 293.438 162.545 293.471V296.156C162.403 296.113 162.207 296.075 161.956 296.042C161.705 296.009 161.475 295.992 161.267 295.992C160.822 295.992 160.424 296.089 160.074 296.283C159.728 296.473 159.454 296.738 159.25 297.079C159.051 297.42 158.952 297.813 158.952 298.258V304.43H155.926ZM168.574 304.643C167.451 304.643 166.485 304.415 165.676 303.961C164.871 303.502 164.251 302.853 163.815 302.015C163.379 301.172 163.162 300.175 163.162 299.025C163.162 297.903 163.379 296.918 163.815 296.07C164.251 295.223 164.864 294.562 165.654 294.089C166.45 293.615 167.383 293.379 168.453 293.379C169.172 293.379 169.842 293.495 170.463 293.727C171.088 293.954 171.632 294.297 172.096 294.756C172.565 295.216 172.93 295.793 173.19 296.489C173.45 297.181 173.581 297.99 173.581 298.918V299.749H164.369V297.874H170.733C170.733 297.439 170.638 297.053 170.449 296.717C170.259 296.38 169.996 296.118 169.66 295.928C169.329 295.734 168.943 295.637 168.502 295.637C168.043 295.637 167.636 295.744 167.281 295.957C166.931 296.165 166.656 296.447 166.457 296.802C166.258 297.152 166.156 297.543 166.152 297.974V299.756C166.152 300.296 166.251 300.763 166.45 301.156C166.654 301.549 166.94 301.852 167.309 302.065C167.679 302.278 168.117 302.384 168.623 302.384C168.959 302.384 169.267 302.337 169.547 302.242C169.826 302.147 170.065 302.005 170.264 301.816C170.463 301.627 170.614 301.395 170.718 301.12L173.517 301.305C173.375 301.977 173.083 302.564 172.643 303.066C172.208 303.563 171.644 303.951 170.953 304.231C170.266 304.505 169.473 304.643 168.574 304.643ZM182.551 299.785V293.521H185.576V304.43H182.672V302.448H182.558C182.312 303.087 181.902 303.601 181.329 303.989C180.761 304.378 180.067 304.572 179.248 304.572C178.519 304.572 177.877 304.406 177.324 304.075C176.77 303.743 176.336 303.272 176.024 302.661C175.716 302.05 175.56 301.319 175.555 300.467V293.521H178.581V299.927C178.585 300.571 178.758 301.08 179.099 301.454C179.44 301.828 179.897 302.015 180.47 302.015C180.834 302.015 181.175 301.932 181.493 301.766C181.81 301.596 182.065 301.345 182.26 301.013C182.458 300.682 182.556 300.272 182.551 299.785ZM187.94 304.43V302.626L193.281 296.013V295.935H188.124V293.521H196.924V295.488L191.91 301.937V302.015H197.109V304.43H187.94ZM199.365 304.43V302.626L204.706 296.013V295.935H199.55V293.521H208.35V295.488L203.336 301.937V302.015H208.534V304.43H199.365ZM213.959 304.636C213.263 304.636 212.643 304.515 212.098 304.273C211.554 304.027 211.123 303.665 210.805 303.187C210.493 302.704 210.337 302.103 210.337 301.383C210.337 300.777 210.448 300.268 210.67 299.856C210.893 299.444 211.196 299.112 211.58 298.862C211.963 298.611 212.399 298.421 212.886 298.293C213.379 298.165 213.895 298.076 214.435 298.023C215.069 297.957 215.58 297.896 215.969 297.839C216.357 297.777 216.639 297.687 216.814 297.569C216.989 297.451 217.077 297.275 217.077 297.043V297.001C217.077 296.551 216.935 296.203 216.651 295.957C216.371 295.71 215.973 295.587 215.457 295.587C214.913 295.587 214.48 295.708 214.158 295.95C213.836 296.186 213.623 296.485 213.518 296.844L210.72 296.617C210.862 295.954 211.142 295.381 211.558 294.898C211.975 294.411 212.512 294.037 213.17 293.776C213.833 293.511 214.6 293.379 215.472 293.379C216.078 293.379 216.658 293.45 217.212 293.592C217.77 293.734 218.265 293.954 218.696 294.252C219.132 294.55 219.475 294.934 219.726 295.403C219.977 295.867 220.102 296.423 220.102 297.072V304.43H217.233V302.917H217.148C216.973 303.258 216.738 303.558 216.445 303.819C216.151 304.075 215.798 304.276 215.386 304.423C214.974 304.565 214.499 304.636 213.959 304.636ZM214.825 302.548C215.27 302.548 215.663 302.46 216.004 302.285C216.345 302.105 216.613 301.863 216.807 301.56C217.001 301.257 217.098 300.914 217.098 300.531V299.373C217.003 299.434 216.873 299.491 216.707 299.543C216.546 299.591 216.364 299.636 216.161 299.678C215.957 299.716 215.753 299.752 215.55 299.785C215.346 299.813 215.161 299.839 214.996 299.863C214.641 299.915 214.33 299.998 214.065 300.112C213.8 300.225 213.594 300.379 213.447 300.573C213.301 300.763 213.227 300.999 213.227 301.283C213.227 301.695 213.376 302.01 213.675 302.228C213.978 302.441 214.361 302.548 214.825 302.548Z" fill="#F3F3F3"/>
</g>
<g filter="url(#filter2_i_2383_661)">
<path d="M43.2592 267.068H41.5973C41.5334 266.713 41.4144 266.401 41.2404 266.131C41.0664 265.861 40.8533 265.632 40.6012 265.444C40.3491 265.255 40.0668 265.113 39.7543 265.017C39.4453 264.922 39.1168 264.874 38.7688 264.874C38.1403 264.874 37.5774 265.032 37.0803 265.348C36.5866 265.664 36.196 266.127 35.9084 266.738C35.6243 267.349 35.4822 268.094 35.4822 268.975C35.4822 269.863 35.6243 270.612 35.9084 271.223C36.196 271.834 36.5884 272.295 37.0856 272.608C37.5827 272.92 38.142 273.077 38.7635 273.077C39.108 273.077 39.4347 273.031 39.7436 272.938C40.0561 272.842 40.3384 272.702 40.5906 272.517C40.8427 272.333 41.0558 272.107 41.2298 271.841C41.4073 271.571 41.5298 271.262 41.5973 270.914L43.2592 270.919C43.1705 271.456 42.9982 271.949 42.7425 272.4C42.4904 272.848 42.1655 273.235 41.7678 273.561C41.3736 273.885 40.9226 274.135 40.4148 274.312C39.907 274.49 39.353 274.579 38.7528 274.579C37.8082 274.579 36.9666 274.355 36.228 273.908C35.4893 273.457 34.907 272.812 34.4808 271.974C34.0582 271.136 33.8469 270.136 33.8469 268.975C33.8469 267.81 34.06 266.811 34.4862 265.976C34.9123 265.138 35.4947 264.495 36.2333 264.048C36.9719 263.597 37.8118 263.371 38.7528 263.371C39.3317 263.371 39.8714 263.455 40.3722 263.622C40.8764 263.785 41.3292 264.027 41.7305 264.346C42.1317 264.662 42.4638 265.049 42.7266 265.507C42.9893 265.962 43.1669 266.482 43.2592 267.068ZM47.482 274.611C46.9635 274.611 46.4948 274.515 46.0757 274.323C45.6567 274.128 45.3247 273.846 45.0796 273.476C44.8382 273.107 44.7174 272.654 44.7174 272.118C44.7174 271.656 44.8062 271.276 44.9838 270.978C45.1613 270.68 45.401 270.444 45.7029 270.27C46.0047 270.096 46.3421 269.964 46.7149 269.875C47.0878 269.787 47.4678 269.719 47.8548 269.673C48.3449 269.616 48.7426 269.57 49.048 269.534C49.3534 269.495 49.5754 269.433 49.7139 269.348C49.8524 269.263 49.9216 269.124 49.9216 268.933V268.895C49.9216 268.43 49.7902 268.07 49.5274 267.814C49.2682 267.558 48.8811 267.43 48.3662 267.43C47.83 267.43 47.4074 267.549 47.0985 267.787C46.7931 268.022 46.5818 268.283 46.4646 268.57L44.9678 268.229C45.1453 267.732 45.4046 267.331 45.7455 267.026C46.0899 266.717 46.4859 266.493 46.9333 266.354C47.3808 266.212 47.8513 266.141 48.3449 266.141C48.6716 266.141 49.0178 266.18 49.3836 266.259C49.7529 266.333 50.0974 266.472 50.417 266.674C50.7401 266.876 51.0047 267.166 51.2107 267.542C51.4166 267.915 51.5196 268.4 51.5196 268.996V274.43H49.9642V273.311H49.9003C49.7973 273.517 49.6428 273.719 49.4369 273.918C49.2309 274.117 48.9664 274.282 48.6432 274.414C48.32 274.545 47.933 274.611 47.482 274.611ZM47.8282 273.332C48.2686 273.332 48.645 273.245 48.9575 273.071C49.2735 272.897 49.5132 272.67 49.6766 272.39C49.8435 272.105 49.9269 271.802 49.9269 271.479V270.424C49.8701 270.481 49.76 270.534 49.5967 270.584C49.4369 270.63 49.254 270.671 49.048 270.706C48.8421 270.738 48.6414 270.768 48.4461 270.797C48.2508 270.822 48.0874 270.843 47.9561 270.861C47.6471 270.9 47.3648 270.966 47.1091 271.058C46.857 271.15 46.6546 271.283 46.5019 271.457C46.3527 271.628 46.2781 271.855 46.2781 272.139C46.2781 272.533 46.4237 272.832 46.7149 273.034C47.0061 273.233 47.3772 273.332 47.8282 273.332ZM53.641 274.43V266.248H55.1804V267.548H55.2656C55.4148 267.107 55.6776 266.761 56.054 266.509C56.4339 266.253 56.8636 266.125 57.343 266.125C57.4425 266.125 57.5597 266.129 57.6946 266.136C57.8331 266.143 57.9414 266.152 58.0195 266.163V267.686C57.9556 267.668 57.842 267.649 57.6786 267.627C57.5153 267.603 57.3519 267.59 57.1886 267.59C56.8121 267.59 56.4766 267.67 56.1818 267.83C55.8906 267.986 55.6598 268.205 55.4893 268.485C55.3189 268.762 55.2337 269.078 55.2337 269.433V274.43H53.641ZM62.1677 274.589C61.5072 274.589 60.9177 274.421 60.3992 274.083C59.8843 273.743 59.4795 273.258 59.1847 272.629C58.8936 271.997 58.748 271.239 58.748 270.355C58.748 269.471 58.8953 268.714 59.1901 268.086C59.4884 267.457 59.8968 266.976 60.4152 266.642C60.9337 266.308 61.5214 266.141 62.1784 266.141C62.6862 266.141 63.0945 266.227 63.4035 266.397C63.716 266.564 63.9575 266.759 64.1279 266.983C64.3019 267.207 64.4369 267.404 64.5328 267.574H64.6286V263.521H66.2213V274.43H64.6659V273.157H64.5328C64.4369 273.331 64.2984 273.529 64.1173 273.753C63.9397 273.977 63.6947 274.172 63.3822 274.339C63.0697 274.506 62.6649 274.589 62.1677 274.589ZM62.5193 273.231C62.9774 273.231 63.3644 273.11 63.6805 272.869C64.0001 272.624 64.2416 272.285 64.4049 271.852C64.5718 271.418 64.6553 270.914 64.6553 270.339C64.6553 269.771 64.5736 269.273 64.4102 268.847C64.2469 268.421 64.0072 268.089 63.6911 267.851C63.3751 267.613 62.9845 267.494 62.5193 267.494C62.0399 267.494 61.6404 267.619 61.3208 267.867C61.0012 268.116 60.7597 268.455 60.5963 268.885C60.4365 269.314 60.3566 269.799 60.3566 270.339C60.3566 270.886 60.4383 271.377 60.6017 271.814C60.765 272.251 61.0065 272.597 61.3261 272.853C61.6492 273.105 62.047 273.231 62.5193 273.231ZM74.0569 269.572V274.43H72.4642V263.521H74.0356V267.58H74.1368C74.3286 267.139 74.6215 266.789 75.0157 266.53C75.4099 266.271 75.9248 266.141 76.5605 266.141C77.1215 266.141 77.6116 266.257 78.0306 266.488C78.4532 266.718 78.7799 267.063 79.0107 267.521C79.2451 267.975 79.3623 268.544 79.3623 269.225V274.43H77.7696V269.417C77.7696 268.817 77.6151 268.352 77.3062 268.022C76.9972 267.688 76.5676 267.521 76.0171 267.521C75.6407 267.521 75.3034 267.601 75.0051 267.761C74.7103 267.92 74.4777 268.155 74.3073 268.464C74.1404 268.769 74.0569 269.138 74.0569 269.572ZM84.934 274.595C84.167 274.595 83.4976 274.419 82.9259 274.067C82.3541 273.716 81.9102 273.224 81.5942 272.592C81.2781 271.96 81.1201 271.221 81.1201 270.376C81.1201 269.527 81.2781 268.785 81.5942 268.15C81.9102 267.514 82.3541 267.02 82.9259 266.669C83.4976 266.317 84.167 266.141 84.934 266.141C85.7011 266.141 86.3705 266.317 86.9422 266.669C87.5139 267.02 87.9578 267.514 88.2739 268.15C88.5899 268.785 88.748 269.527 88.748 270.376C88.748 271.221 88.5899 271.96 88.2739 272.592C87.9578 273.224 87.5139 273.716 86.9422 274.067C86.3705 274.419 85.7011 274.595 84.934 274.595ZM84.9394 273.258C85.4365 273.258 85.8485 273.126 86.1752 272.864C86.5019 272.601 86.7433 272.251 86.8996 271.814C87.0594 271.377 87.1393 270.896 87.1393 270.371C87.1393 269.849 87.0594 269.369 86.8996 268.933C86.7433 268.492 86.5019 268.139 86.1752 267.873C85.8485 267.606 85.4365 267.473 84.9394 267.473C84.4387 267.473 84.0232 267.606 83.6929 267.873C83.3662 268.139 83.123 268.492 82.9632 268.933C82.8069 269.369 82.7288 269.849 82.7288 270.371C82.7288 270.896 82.8069 271.377 82.9632 271.814C83.123 272.251 83.3662 272.601 83.6929 272.864C84.0232 273.126 84.4387 273.258 84.9394 273.258ZM92.1184 263.521V274.43H90.5257V263.521H92.1184ZM97.324 274.589C96.6634 274.589 96.074 274.421 95.5555 274.083C95.0406 273.743 94.6357 273.258 94.341 272.629C94.0498 271.997 93.9042 271.239 93.9042 270.355C93.9042 269.471 94.0516 268.714 94.3463 268.086C94.6446 267.457 95.053 266.976 95.5715 266.642C96.0899 266.308 96.6776 266.141 97.3346 266.141C97.8424 266.141 98.2508 266.227 98.5597 266.397C98.8722 266.564 99.1137 266.759 99.2842 266.983C99.4582 267.207 99.5931 267.404 99.689 267.574H99.7849V263.521H101.378V274.43H99.8222V273.157H99.689C99.5931 273.331 99.4546 273.529 99.2735 273.753C99.096 273.977 98.8509 274.172 98.5384 274.339C98.2259 274.506 97.8211 274.589 97.324 274.589ZM97.6755 273.231C98.1336 273.231 98.5207 273.11 98.8367 272.869C99.1563 272.624 99.3978 272.285 99.5612 271.852C99.7281 271.418 99.8115 270.914 99.8115 270.339C99.8115 269.771 99.7298 269.273 99.5665 268.847C99.4031 268.421 99.1634 268.089 98.8474 267.851C98.5313 267.613 98.1407 267.494 97.6755 267.494C97.1961 267.494 96.7966 267.619 96.477 267.867C96.1574 268.116 95.9159 268.455 95.7526 268.885C95.5928 269.314 95.5129 269.799 95.5129 270.339C95.5129 270.886 95.5945 271.377 95.7579 271.814C95.9213 272.251 96.1627 272.597 96.4823 272.853C96.8055 273.105 97.2032 273.231 97.6755 273.231ZM107.177 274.595C106.371 274.595 105.677 274.423 105.094 274.078C104.515 273.73 104.068 273.242 103.752 272.613C103.439 271.981 103.283 271.241 103.283 270.392C103.283 269.554 103.439 268.815 103.752 268.176C104.068 267.537 104.508 267.038 105.073 266.679C105.641 266.321 106.305 266.141 107.065 266.141C107.527 266.141 107.974 266.218 108.407 266.37C108.841 266.523 109.23 266.763 109.574 267.089C109.919 267.416 110.19 267.841 110.389 268.363C110.588 268.881 110.687 269.511 110.687 270.254V270.818H104.183V269.625H109.127C109.127 269.206 109.041 268.835 108.871 268.512C108.7 268.185 108.461 267.928 108.152 267.739C107.846 267.551 107.488 267.457 107.076 267.457C106.628 267.457 106.238 267.567 105.904 267.787C105.574 268.004 105.318 268.288 105.137 268.64C104.959 268.988 104.871 269.366 104.871 269.774V270.706C104.871 271.253 104.966 271.718 105.158 272.102C105.354 272.485 105.625 272.778 105.973 272.981C106.321 273.18 106.728 273.279 107.193 273.279C107.495 273.279 107.77 273.237 108.019 273.151C108.267 273.062 108.482 272.931 108.663 272.757C108.844 272.583 108.983 272.368 109.079 272.113L110.586 272.384C110.465 272.828 110.249 273.217 109.936 273.551C109.627 273.881 109.238 274.138 108.77 274.323C108.305 274.504 107.774 274.595 107.177 274.595ZM112.454 274.43V266.248H113.994V267.548H114.079C114.228 267.107 114.491 266.761 114.867 266.509C115.247 266.253 115.677 266.125 116.157 266.125C116.256 266.125 116.373 266.129 116.508 266.136C116.647 266.143 116.755 266.152 116.833 266.163V267.686C116.769 267.668 116.655 267.649 116.492 267.627C116.329 267.603 116.165 267.59 116.002 267.59C115.626 267.59 115.29 267.67 114.995 267.83C114.704 267.986 114.473 268.205 114.303 268.485C114.132 268.762 114.047 269.078 114.047 269.433V274.43H112.454ZM123.774 269.572V274.43H122.181V266.248H123.71V267.58H123.811C123.999 267.146 124.294 266.798 124.695 266.536C125.1 266.273 125.61 266.141 126.224 266.141C126.782 266.141 127.27 266.259 127.689 266.493C128.108 266.724 128.433 267.068 128.664 267.526C128.894 267.984 129.01 268.551 129.01 269.225V274.43H127.417V269.417C127.417 268.824 127.263 268.361 126.954 268.027C126.645 267.69 126.22 267.521 125.681 267.521C125.311 267.521 124.983 267.601 124.695 267.761C124.411 267.92 124.186 268.155 124.019 268.464C123.855 268.769 123.774 269.138 123.774 269.572ZM133.527 274.611C133.008 274.611 132.54 274.515 132.121 274.323C131.702 274.128 131.37 273.846 131.125 273.476C130.883 273.107 130.762 272.654 130.762 272.118C130.762 271.656 130.851 271.276 131.029 270.978C131.206 270.68 131.446 270.444 131.748 270.27C132.05 270.096 132.387 269.964 132.76 269.875C133.133 269.787 133.513 269.719 133.9 269.673C134.39 269.616 134.788 269.57 135.093 269.534C135.398 269.495 135.62 269.433 135.759 269.348C135.897 269.263 135.967 269.124 135.967 268.933V268.895C135.967 268.43 135.835 268.07 135.572 267.814C135.313 267.558 134.926 267.43 134.411 267.43C133.875 267.43 133.452 267.549 133.143 267.787C132.838 268.022 132.627 268.283 132.509 268.57L131.013 268.229C131.19 267.732 131.449 267.331 131.79 267.026C132.135 266.717 132.531 266.493 132.978 266.354C133.426 266.212 133.896 266.141 134.39 266.141C134.717 266.141 135.063 266.18 135.429 266.259C135.798 266.333 136.142 266.472 136.462 266.674C136.785 266.876 137.05 267.166 137.256 267.542C137.462 267.915 137.565 268.4 137.565 268.996V274.43H136.009V273.311H135.945C135.842 273.517 135.688 273.719 135.482 273.918C135.276 274.117 135.011 274.282 134.688 274.414C134.365 274.545 133.978 274.611 133.527 274.611ZM133.873 273.332C134.313 273.332 134.69 273.245 135.002 273.071C135.318 272.897 135.558 272.67 135.722 272.39C135.888 272.105 135.972 271.802 135.972 271.479V270.424C135.915 270.481 135.805 270.534 135.642 270.584C135.482 270.63 135.299 270.671 135.093 270.706C134.887 270.738 134.686 270.768 134.491 270.797C134.296 270.822 134.132 270.843 134.001 270.861C133.692 270.9 133.41 270.966 133.154 271.058C132.902 271.15 132.699 271.283 132.547 271.457C132.398 271.628 132.323 271.855 132.323 272.139C132.323 272.533 132.469 272.832 132.76 273.034C133.051 273.233 133.422 273.332 133.873 273.332ZM139.686 274.43V266.248H141.215V267.58H141.316C141.486 267.129 141.765 266.777 142.152 266.525C142.539 266.269 143.003 266.141 143.542 266.141C144.089 266.141 144.547 266.269 144.917 266.525C145.29 266.781 145.565 267.132 145.742 267.58H145.828C146.023 267.143 146.334 266.795 146.76 266.536C147.186 266.273 147.694 266.141 148.283 266.141C149.025 266.141 149.631 266.374 150.1 266.839C150.572 267.304 150.808 268.006 150.808 268.943V274.43H149.215V269.092C149.215 268.538 149.064 268.137 148.763 267.888C148.461 267.64 148.1 267.516 147.681 267.516C147.163 267.516 146.76 267.675 146.472 267.995C146.184 268.311 146.041 268.718 146.041 269.215V274.43H144.453V268.991C144.453 268.547 144.315 268.19 144.038 267.92C143.761 267.651 143.4 267.516 142.956 267.516C142.655 267.516 142.376 267.596 142.12 267.755C141.868 267.912 141.664 268.13 141.508 268.411C141.355 268.691 141.279 269.016 141.279 269.385V274.43H139.686ZM156.469 274.595C155.663 274.595 154.969 274.423 154.386 274.078C153.807 273.73 153.36 273.242 153.044 272.613C152.731 271.981 152.575 271.241 152.575 270.392C152.575 269.554 152.731 268.815 153.044 268.176C153.36 267.537 153.8 267.038 154.365 266.679C154.933 266.321 155.597 266.141 156.357 266.141C156.819 266.141 157.266 266.218 157.699 266.37C158.133 266.523 158.522 266.763 158.866 267.089C159.21 267.416 159.482 267.841 159.681 268.363C159.88 268.881 159.979 269.511 159.979 270.254V270.818H153.475V269.625H158.419C158.419 269.206 158.333 268.835 158.163 268.512C157.992 268.185 157.753 267.928 157.444 267.739C157.138 267.551 156.78 267.457 156.368 267.457C155.92 267.457 155.53 267.567 155.196 267.787C154.866 268.004 154.61 268.288 154.429 268.64C154.251 268.988 154.163 269.366 154.163 269.774V270.706C154.163 271.253 154.258 271.718 154.45 272.102C154.646 272.485 154.917 272.778 155.265 272.981C155.613 273.18 156.02 273.279 156.485 273.279C156.787 273.279 157.062 273.237 157.311 273.151C157.559 273.062 157.774 272.931 157.955 272.757C158.136 272.583 158.275 272.368 158.371 272.113L159.878 272.384C159.757 272.828 159.541 273.217 159.228 273.551C158.919 273.881 158.53 274.138 158.062 274.323C157.597 274.504 157.066 274.595 156.469 274.595Z" fill="#F3F3F3" fill-opacity="0.8"/>
</g>
<g filter="url(#filter3_i_2383_661)">
<path d="M258.352 274.43V263.521H265.191V264.938H259.998V268.261H264.834V269.673H259.998V273.013H265.255V274.43H258.352ZM268.519 266.248L270.325 269.433L272.147 266.248H273.888L271.337 270.339L273.91 274.43H272.168L270.325 271.372L268.487 274.43H266.74L269.286 270.339L266.772 266.248H268.519ZM275.524 277.498V266.248H277.079V267.574H277.212C277.305 267.404 277.438 267.207 277.612 266.983C277.786 266.759 278.027 266.564 278.336 266.397C278.645 266.227 279.054 266.141 279.561 266.141C280.222 266.141 280.811 266.308 281.33 266.642C281.848 266.976 282.255 267.457 282.55 268.086C282.848 268.714 282.997 269.471 282.997 270.355C282.997 271.239 282.85 271.997 282.555 272.629C282.26 273.258 281.855 273.743 281.341 274.083C280.826 274.421 280.238 274.589 279.577 274.589C279.08 274.589 278.674 274.506 278.358 274.339C278.045 274.172 277.8 273.977 277.623 273.753C277.445 273.529 277.308 273.331 277.212 273.157H277.116V277.498H275.524ZM277.085 270.339C277.085 270.914 277.168 271.418 277.335 271.852C277.502 272.285 277.743 272.624 278.059 272.869C278.375 273.11 278.762 273.231 279.221 273.231C279.696 273.231 280.094 273.105 280.414 272.853C280.733 272.597 280.975 272.251 281.138 271.814C281.305 271.377 281.388 270.886 281.388 270.339C281.388 269.799 281.307 269.314 281.143 268.885C280.984 268.455 280.742 268.116 280.419 267.867C280.099 267.619 279.7 267.494 279.221 267.494C278.759 267.494 278.368 267.613 278.049 267.851C277.733 268.089 277.493 268.421 277.33 268.847C277.166 269.273 277.085 269.771 277.085 270.339ZM284.782 274.43V266.248H286.374V274.43H284.782ZM285.586 264.985C285.309 264.985 285.071 264.893 284.872 264.708C284.677 264.52 284.579 264.297 284.579 264.037C284.579 263.775 284.677 263.551 284.872 263.366C285.071 263.178 285.309 263.084 285.586 263.084C285.863 263.084 286.099 263.178 286.294 263.366C286.493 263.551 286.593 263.775 286.593 264.037C286.593 264.297 286.493 264.52 286.294 264.708C286.099 264.893 285.863 264.985 285.586 264.985ZM288.517 274.43V266.248H290.056V267.548H290.142C290.291 267.107 290.554 266.761 290.93 266.509C291.31 266.253 291.74 266.125 292.219 266.125C292.318 266.125 292.436 266.129 292.571 266.136C292.709 266.143 292.817 266.152 292.896 266.163V267.686C292.832 267.668 292.718 267.649 292.555 267.627C292.391 267.603 292.228 267.59 292.065 267.59C291.688 267.59 291.353 267.67 291.058 267.83C290.767 267.986 290.536 268.205 290.365 268.485C290.195 268.762 290.11 269.078 290.11 269.433V274.43H288.517ZM295.53 277.498C295.292 277.498 295.075 277.478 294.88 277.439C294.684 277.404 294.539 277.365 294.443 277.322L294.826 276.017C295.118 276.095 295.377 276.129 295.604 276.118C295.831 276.108 296.032 276.022 296.206 275.863C296.384 275.703 296.54 275.442 296.675 275.08L296.872 274.536L293.878 266.248H295.583L297.655 272.597H297.74L299.812 266.248H301.522L298.15 275.522C297.994 275.948 297.795 276.308 297.554 276.603C297.312 276.901 297.025 277.125 296.691 277.274C296.357 277.423 295.97 277.498 295.53 277.498ZM310.051 274.589C309.391 274.589 308.801 274.421 308.283 274.083C307.768 273.743 307.363 273.258 307.069 272.629C306.777 271.997 306.632 271.239 306.632 270.355C306.632 269.471 306.779 268.714 307.074 268.086C307.372 267.457 307.781 266.976 308.299 266.642C308.817 266.308 309.405 266.141 310.062 266.141C310.57 266.141 310.978 266.227 311.287 266.397C311.6 266.564 311.841 266.759 312.012 266.983C312.186 267.207 312.321 267.404 312.417 267.574H312.512V263.521H314.105V274.43H312.55V273.157H312.417C312.321 273.331 312.182 273.529 312.001 273.753C311.824 273.977 311.578 274.172 311.266 274.339C310.953 274.506 310.549 274.589 310.051 274.589ZM310.403 273.231C310.861 273.231 311.248 273.11 311.564 272.869C311.884 272.624 312.125 272.285 312.289 271.852C312.456 271.418 312.539 270.914 312.539 270.339C312.539 269.771 312.457 269.273 312.294 268.847C312.131 268.421 311.891 268.089 311.575 267.851C311.259 267.613 310.868 267.494 310.403 267.494C309.924 267.494 309.524 267.619 309.205 267.867C308.885 268.116 308.643 268.455 308.48 268.885C308.32 269.314 308.24 269.799 308.24 270.339C308.24 270.886 308.322 271.377 308.485 271.814C308.649 272.251 308.89 272.597 309.21 272.853C309.533 273.105 309.931 273.231 310.403 273.231ZM318.759 274.611C318.241 274.611 317.772 274.515 317.353 274.323C316.934 274.128 316.602 273.846 316.357 273.476C316.116 273.107 315.995 272.654 315.995 272.118C315.995 271.656 316.084 271.276 316.261 270.978C316.439 270.68 316.678 270.444 316.98 270.27C317.282 270.096 317.619 269.964 317.992 269.875C318.365 269.787 318.745 269.719 319.132 269.673C319.622 269.616 320.02 269.57 320.325 269.534C320.631 269.495 320.853 269.433 320.991 269.348C321.13 269.263 321.199 269.124 321.199 268.933V268.895C321.199 268.43 321.068 268.07 320.805 267.814C320.546 267.558 320.158 267.43 319.644 267.43C319.107 267.43 318.685 267.549 318.376 267.787C318.07 268.022 317.859 268.283 317.742 268.57L316.245 268.229C316.423 267.732 316.682 267.331 317.023 267.026C317.367 266.717 317.763 266.493 318.211 266.354C318.658 266.212 319.129 266.141 319.622 266.141C319.949 266.141 320.295 266.18 320.661 266.259C321.03 266.333 321.375 266.472 321.694 266.674C322.017 266.876 322.282 267.166 322.488 267.542C322.694 267.915 322.797 268.4 322.797 268.996V274.43H321.242V273.311H321.178C321.075 273.517 320.92 273.719 320.714 273.918C320.508 274.117 320.244 274.282 319.921 274.414C319.597 274.545 319.21 274.611 318.759 274.611ZM319.106 273.332C319.546 273.332 319.922 273.245 320.235 273.071C320.551 272.897 320.791 272.67 320.954 272.39C321.121 272.105 321.204 271.802 321.204 271.479V270.424C321.147 270.481 321.037 270.534 320.874 270.584C320.714 270.63 320.531 270.671 320.325 270.706C320.119 270.738 319.919 270.768 319.723 270.797C319.528 270.822 319.365 270.843 319.233 270.861C318.924 270.9 318.642 270.966 318.386 271.058C318.134 271.15 317.932 271.283 317.779 271.457C317.63 271.628 317.555 271.855 317.555 272.139C317.555 272.533 317.701 272.832 317.992 273.034C318.283 273.233 318.655 273.332 319.106 273.332ZM328.738 266.248V267.526H324.268V266.248H328.738ZM325.467 264.288H327.06V272.027C327.06 272.336 327.106 272.569 327.198 272.725C327.29 272.878 327.409 272.983 327.555 273.039C327.704 273.093 327.866 273.119 328.04 273.119C328.168 273.119 328.279 273.11 328.375 273.093C328.471 273.075 328.546 273.061 328.599 273.05L328.887 274.366C328.794 274.401 328.663 274.437 328.493 274.472C328.322 274.511 328.109 274.533 327.853 274.536C327.434 274.543 327.044 274.469 326.681 274.312C326.319 274.156 326.026 273.915 325.803 273.588C325.579 273.261 325.467 272.851 325.467 272.358V264.288ZM333.938 274.595C333.132 274.595 332.437 274.423 331.855 274.078C331.276 273.73 330.829 273.242 330.513 272.613C330.2 271.981 330.044 271.241 330.044 270.392C330.044 269.554 330.2 268.815 330.513 268.176C330.829 267.537 331.269 267.038 331.834 266.679C332.402 266.321 333.066 266.141 333.826 266.141C334.288 266.141 334.735 266.218 335.168 266.37C335.601 266.523 335.99 266.763 336.335 267.089C336.679 267.416 336.951 267.841 337.15 268.363C337.349 268.881 337.448 269.511 337.448 270.254V270.818H330.944V269.625H335.887C335.887 269.206 335.802 268.835 335.632 268.512C335.461 268.185 335.222 267.928 334.913 267.739C334.607 267.551 334.248 267.457 333.837 267.457C333.389 267.457 332.998 267.567 332.665 267.787C332.334 268.004 332.079 268.288 331.898 268.64C331.72 268.988 331.631 269.366 331.631 269.774V270.706C331.631 271.253 331.727 271.718 331.919 272.102C332.114 272.485 332.386 272.778 332.734 272.981C333.082 273.18 333.489 273.279 333.954 273.279C334.256 273.279 334.531 273.237 334.779 273.151C335.028 273.062 335.243 272.931 335.424 272.757C335.605 272.583 335.744 272.368 335.839 272.113L337.347 272.384C337.226 272.828 337.009 273.217 336.697 273.551C336.388 273.881 335.999 274.138 335.53 274.323C335.065 274.504 334.534 274.595 333.938 274.595Z" fill="#F3F3F3" fill-opacity="0.8"/>
</g>
<g filter="url(#filter4_di_2383_661)">
<path d="M264.035 306.749C262.814 306.745 261.763 306.444 260.882 305.847C260.006 305.251 259.331 304.387 258.858 303.255C258.389 302.123 258.157 300.762 258.162 299.171C258.162 297.585 258.396 296.233 258.865 295.116C259.338 293.998 260.013 293.148 260.889 292.566C261.77 291.979 262.819 291.685 264.035 291.685C265.252 291.685 266.299 291.979 267.175 292.566C268.055 293.153 268.732 294.005 269.206 295.123C269.679 296.236 269.914 297.585 269.909 299.171C269.909 300.767 269.672 302.13 269.199 303.262C268.73 304.394 268.058 305.258 267.182 305.854C266.306 306.451 265.257 306.749 264.035 306.749ZM264.035 304.2C264.869 304.2 265.534 303.781 266.031 302.942C266.528 302.104 266.775 300.847 266.77 299.171C266.77 298.068 266.656 297.149 266.429 296.415C266.206 295.682 265.889 295.13 265.477 294.761C265.07 294.391 264.589 294.207 264.035 294.207C263.207 294.207 262.544 294.621 262.047 295.45C261.55 296.278 261.299 297.519 261.294 299.171C261.294 300.289 261.405 301.221 261.628 301.969C261.855 302.713 262.175 303.272 262.587 303.646C262.998 304.015 263.481 304.2 264.035 304.2ZM272.102 306.43V304.214L277.279 299.42C277.72 298.994 278.089 298.61 278.387 298.269C278.69 297.928 278.92 297.594 279.076 297.268C279.233 296.936 279.311 296.579 279.311 296.195C279.311 295.769 279.214 295.402 279.019 295.094C278.825 294.782 278.56 294.543 278.224 294.377C277.888 294.207 277.507 294.121 277.081 294.121C276.635 294.121 276.247 294.211 275.916 294.391C275.584 294.571 275.329 294.829 275.149 295.165C274.969 295.502 274.879 295.902 274.879 296.366H271.96C271.96 295.414 272.175 294.588 272.606 293.887C273.037 293.186 273.641 292.644 274.417 292.261C275.194 291.877 276.089 291.685 277.102 291.685C278.143 291.685 279.05 291.87 279.822 292.239C280.599 292.604 281.202 293.111 281.633 293.759C282.064 294.408 282.279 295.151 282.279 295.989C282.279 296.539 282.17 297.081 281.953 297.616C281.74 298.151 281.358 298.745 280.809 299.398C280.26 300.047 279.486 300.826 278.487 301.735L276.363 303.816V303.915H282.471V306.43H272.102ZM291.063 291.202L286.376 308.617H283.769L288.457 291.202H291.063ZM297.869 306.629C296.808 306.629 295.864 306.446 295.035 306.082C294.211 305.712 293.56 305.206 293.082 304.562C292.608 303.913 292.365 303.165 292.35 302.317H295.447C295.466 302.673 295.582 302.985 295.795 303.255C296.013 303.52 296.302 303.726 296.661 303.873C297.021 304.02 297.426 304.093 297.876 304.093C298.345 304.093 298.759 304.01 299.119 303.844C299.479 303.679 299.76 303.449 299.964 303.156C300.168 302.862 300.269 302.523 300.269 302.14C300.269 301.752 300.161 301.408 299.943 301.11C299.73 300.807 299.422 300.57 299.019 300.4C298.622 300.229 298.148 300.144 297.599 300.144H296.242V297.886H297.599C298.063 297.886 298.473 297.805 298.828 297.644C299.188 297.483 299.467 297.261 299.666 296.977C299.865 296.688 299.964 296.352 299.964 295.968C299.964 295.603 299.876 295.284 299.701 295.009C299.531 294.73 299.289 294.512 298.977 294.356C298.669 294.2 298.309 294.121 297.897 294.121C297.481 294.121 297.099 294.197 296.754 294.349C296.408 294.496 296.131 294.706 295.923 294.981C295.715 295.255 295.603 295.577 295.589 295.947H292.642C292.656 295.109 292.895 294.37 293.359 293.731C293.823 293.092 294.448 292.592 295.234 292.232C296.025 291.868 296.917 291.685 297.911 291.685C298.915 291.685 299.794 291.868 300.546 292.232C301.299 292.597 301.884 293.089 302.301 293.71C302.722 294.325 302.93 295.016 302.926 295.783C302.93 296.598 302.677 297.277 302.166 297.822C301.659 298.366 300.999 298.712 300.184 298.859V298.972C301.254 299.11 302.069 299.481 302.627 300.087C303.191 300.689 303.47 301.442 303.465 302.346C303.47 303.174 303.231 303.911 302.748 304.555C302.27 305.199 301.609 305.705 300.767 306.075C299.924 306.444 298.958 306.629 297.869 306.629ZM311.379 306.749C310.158 306.745 309.106 306.444 308.226 305.847C307.35 305.251 306.675 304.387 306.202 303.255C305.733 302.123 305.501 300.762 305.506 299.171C305.506 297.585 305.74 296.233 306.209 295.116C306.682 293.998 307.357 293.148 308.233 292.566C309.114 291.979 310.162 291.685 311.379 291.685C312.596 291.685 313.642 291.979 314.518 292.566C315.399 293.153 316.076 294.005 316.55 295.123C317.023 296.236 317.257 297.585 317.253 299.171C317.253 300.767 317.016 302.13 316.543 303.262C316.074 304.394 315.401 305.258 314.525 305.854C313.65 306.451 312.601 306.749 311.379 306.749ZM311.379 304.2C312.213 304.2 312.878 303.781 313.375 302.942C313.872 302.104 314.118 300.847 314.114 299.171C314.114 298.068 314 297.149 313.773 296.415C313.55 295.682 313.233 295.13 312.821 294.761C312.414 294.391 311.933 294.207 311.379 294.207C310.551 294.207 309.888 294.621 309.391 295.45C308.893 296.278 308.642 297.519 308.638 299.171C308.638 300.289 308.749 301.221 308.972 301.969C309.199 302.713 309.518 303.272 309.93 303.646C310.342 304.015 310.825 304.2 311.379 304.2Z" fill="#F3F3F3"/>
</g>
</g>
<path fill-rule="evenodd" clip-rule="evenodd" d="M35.1576 54.8646L35.1516 54.8726L35.1459 54.8807C34.8266 55.3328 34.1114 55.4656 33.552 55.0706C33.1043 54.7543 32.9697 54.0497 33.351 53.4928C33.9198 52.7676 34.333 51.9198 34.6044 51.0911C34.8869 50.2283 35.0183 49.2478 35.0131 48.2863C35.008 47.3247 34.8662 46.3457 34.5745 45.486C34.2943 44.6601 33.8722 43.8168 33.2956 43.0977C32.9084 42.5449 33.0355 41.8389 33.4799 41.5179C34.035 41.1169 34.7516 41.2421 35.0757 41.6908L35.0815 41.6988L35.0875 41.7067C35.8051 42.6531 36.3937 43.7045 36.7455 44.736C37.1157 45.9494 37.3516 47.1232 37.3577 48.2738C37.3642 49.4845 37.2485 50.6305 36.8042 51.7586C36.3203 52.9872 35.8517 53.9287 35.1576 54.8646ZM40.3463 57.1118L40.3603 57.092L40.3732 57.0713C41.9637 54.523 42.8811 51.4479 42.8641 48.2444C42.847 45.0418 41.8974 41.9774 40.2805 39.4465C39.9301 38.8908 40.0875 38.2339 40.6781 37.8072C41.0748 37.5207 41.8194 37.6222 42.2612 38.2143C44.0867 41.1106 45.1894 44.6118 45.2087 48.232C45.2286 51.9757 44.1641 55.3633 42.3679 58.2808C41.9524 58.8527 41.3163 59.0129 40.7677 58.6888C40.1731 58.253 40.0644 57.511 40.3463 57.1118ZM49.6573 34.4073L49.673 34.4383L49.6911 34.4678C52.1647 38.5007 53.5393 43.1524 53.5661 48.1875C53.5929 53.2202 52.2692 57.8843 49.8408 61.942C49.4685 62.5406 48.84 62.7093 48.2027 62.4128C47.6228 62.0348 47.467 61.4085 47.7699 60.7759C49.8351 57.1082 51.1193 52.7861 51.0949 48.2006C51.0706 43.6355 49.8769 39.3204 47.6318 35.6524C47.328 35.0261 47.4784 34.4024 48.0515 34.0201C48.7429 33.6898 49.4164 33.9319 49.6573 34.4073ZM56.9815 30.5694L56.9922 30.5905L57.004 30.611C60.0016 35.7924 61.7627 41.7163 61.7969 48.1436C61.8311 54.5643 60.1367 60.501 57.2001 65.7102C56.8271 66.3019 56.2015 66.4677 55.5673 66.1725C54.9892 65.7957 54.8326 65.1722 55.1317 64.5416C57.9607 59.7133 59.4841 54.1195 59.4523 48.1561C59.4205 42.1774 57.7035 36.6052 54.9609 31.8246C54.6172 31.1267 54.8594 30.4432 55.3391 30.2001C56.0431 29.8434 56.7363 30.0856 56.9815 30.5694Z" fill="white"/>
<path d="M467.986 58.2126L471.826 35.6855H477.966L474.125 58.2126H467.986ZM496.28 36.1797C494.518 35.5414 492.656 35.2211 490.782 35.2338C484.723 35.2338 480.454 38.2853 480.418 42.6597C480.384 45.8928 483.466 47.6961 485.792 48.7719C488.179 49.8752 488.981 50.5786 488.97 51.5636C488.955 53.0716 487.063 53.76 485.301 53.76C482.846 53.76 481.543 53.4153 479.528 52.5797L478.738 52.2222L477.877 57.2587C479.31 57.8862 481.959 58.431 484.708 58.4586C491.155 58.4586 495.339 55.4426 495.388 50.7717C495.411 48.2121 493.779 46.264 490.239 44.6584C488.095 43.624 486.783 42.9229 486.796 41.8689C486.796 40.9345 487.908 39.9346 490.309 39.9346C491.882 39.8994 493.445 40.193 494.898 40.7966L495.447 41.0563L496.28 36.1797V36.1797ZM512.053 35.6855H507.329C505.866 35.6855 504.771 36.0855 504.128 37.5451L495.049 58.0977H501.511C501.511 58.0977 502.546 55.3645 502.784 54.7646L510.527 54.7738C510.707 55.5507 511.262 58.0977 511.262 58.0977H517L512.053 35.6855ZM504.542 50.1672C505.049 48.8707 506.986 43.878 506.986 43.878C506.949 43.9377 507.489 42.5746 507.798 41.7298L508.213 43.67C508.213 43.67 509.388 49.0408 509.633 50.1672H504.542ZM462.776 35.6855L456.786 50.9936L456.148 47.8823C455.033 44.2964 451.559 40.4116 447.674 38.4669L453.152 58.0977L459.625 58.0907L469.257 35.6855H462.746" fill="white"/>
<path d="M450.926 35.6853H441.079L441 36.153C448.694 38.0161 453.784 42.517 455.898 47.9235L453.747 37.5794C453.376 36.1553 452.3 35.7301 450.968 35.6807" fill="white"/>
<g opacity="0.7">
<rect x="459.7" y="276.95" width="56.6" height="42.7905" rx="6.55" fill="white" fill-opacity="0.26" stroke="white" stroke-width="1.4"/>
<path d="M459.906 289.844H475.313C477.315 289.844 478.938 291.467 478.938 293.469V300.492M478.938 319.569V311.141M478.938 311.141V300.492M478.938 311.141H459.906M478.938 300.492H459.906" stroke="white" stroke-width="1.4"/>
<path d="M516.094 289.844H497.969M497.969 289.844V300.492M497.969 289.844V277.156M497.969 319.569V311.141M497.969 311.141V300.492M497.969 311.141H516.094M497.969 300.492H516.094" stroke="white" stroke-width="1.4"/>
</g>
<defs>
<filter id="filter0_d_2383_661" x="30.9702" y="159.986" width="445.321" height="36.6215" filterUnits="userSpaceOnUse" color-interpolation-filters="sRGB">
<feFlood flood-opacity="0" result="BackgroundImageFix"/>
<feColorMatrix in="SourceAlpha" type="matrix" values="0 0 0 0 0 0 0 0 0 0 0 0 0 0 0 0 0 0 127 0" result="hardAlpha"/>
<feOffset dy="1"/>
<feGaussianBlur stdDeviation="2"/>
<feComposite in2="hardAlpha" operator="out"/>
<feColorMatrix type="matrix" values="0 0 0 0 0 0 0 0 0 0 0 0 0 0 0 0 0 0 0.16 0"/>
<feBlend mode="normal" in2="BackgroundImageFix" result="effect1_dropShadow_2383_661"/>
<feBlend mode="normal" in="SourceGraphic" in2="effect1_dropShadow_2383_661" result="shape"/>
</filter>
<filter id="filter1_di_2383_661" x="30.2642" y="286.053" width="193.838" height="23.5895" filterUnits="userSpaceOnUse" color-interpolation-filters="sRGB">
<feFlood flood-opacity="0" result="BackgroundImageFix"/>
<feColorMatrix in="SourceAlpha" type="matrix" values="0 0 0 0 0 0 0 0 0 0 0 0 0 0 0 0 0 0 127 0" result="hardAlpha"/>
<feOffset dy="1"/>
<feGaussianBlur stdDeviation="2"/>
<feComposite in2="hardAlpha" operator="out"/>
<feColorMatrix type="matrix" values="0 0 0 0 0.154167 0 0 0 0 0.154167 0 0 0 0 0.154167 0 0 0 0.58 0"/>
<feBlend mode="normal" in2="BackgroundImageFix" result="effect1_dropShadow_2383_661"/>
<feBlend mode="normal" in="SourceGraphic" in2="effect1_dropShadow_2383_661" result="shape"/>
<feColorMatrix in="SourceAlpha" type="matrix" values="0 0 0 0 0 0 0 0 0 0 0 0 0 0 0 0 0 0 127 0" result="hardAlpha"/>
<feOffset dy="-1"/>
<feGaussianBlur stdDeviation="0.5"/>
<feComposite in2="hardAlpha" operator="arithmetic" k2="-1" k3="1"/>
<feColorMatrix type="matrix" values="0 0 0 0 0.208333 0 0 0 0 0.208333 0 0 0 0 0.208333 0 0 0 0.22 0"/>
<feBlend mode="normal" in2="shape" result="effect2_innerShadow_2383_661"/>
</filter>
<filter id="filter2_i_2383_661" x="33.8469" y="262.371" width="126.132" height="12.2393" filterUnits="userSpaceOnUse" color-interpolation-filters="sRGB">
<feFlood flood-opacity="0" result="BackgroundImageFix"/>
<feBlend mode="normal" in="SourceGraphic" in2="BackgroundImageFix" result="shape"/>
<feColorMatrix in="SourceAlpha" type="matrix" values="0 0 0 0 0 0 0 0 0 0 0 0 0 0 0 0 0 0 127 0" result="hardAlpha"/>
<feOffset dy="-1"/>
<feGaussianBlur stdDeviation="0.5"/>
<feComposite in2="hardAlpha" operator="arithmetic" k2="-1" k3="1"/>
<feColorMatrix type="matrix" values="0 0 0 0 0.316667 0 0 0 0 0.316667 0 0 0 0 0.316667 0 0 0 0.4 0"/>
<feBlend mode="normal" in2="shape" result="effect1_innerShadow_2383_661"/>
</filter>
<filter id="filter3_i_2383_661" x="258.352" y="262.084" width="79.0962" height="15.414" filterUnits="userSpaceOnUse" color-interpolation-filters="sRGB">
<feFlood flood-opacity="0" result="BackgroundImageFix"/>
<feBlend mode="normal" in="SourceGraphic" in2="BackgroundImageFix" result="shape"/>
<feColorMatrix in="SourceAlpha" type="matrix" values="0 0 0 0 0 0 0 0 0 0 0 0 0 0 0 0 0 0 127 0" result="hardAlpha"/>
<feOffset dy="-1"/>
<feGaussianBlur stdDeviation="0.5"/>
<feComposite in2="hardAlpha" operator="arithmetic" k2="-1" k3="1"/>
<feColorMatrix type="matrix" values="0 0 0 0 0.316667 0 0 0 0 0.316667 0 0 0 0 0.316667 0 0 0 0.4 0"/>
<feBlend mode="normal" in2="shape" result="effect1_innerShadow_2383_661"/>
</filter>
<filter id="filter4_di_2383_661" x="254.155" y="288.202" width="67.1051" height="25.4148" filterUnits="userSpaceOnUse" color-interpolation-filters="sRGB">
<feFlood flood-opacity="0" result="BackgroundImageFix"/>
<feColorMatrix in="SourceAlpha" type="matrix" values="0 0 0 0 0 0 0 0 0 0 0 0 0 0 0 0 0 0 127 0" result="hardAlpha"/>
<feOffset dy="1"/>
<feGaussianBlur stdDeviation="2"/>
<feComposite in2="hardAlpha" operator="out"/>
<feColorMatrix type="matrix" values="0 0 0 0 0.154167 0 0 0 0 0.154167 0 0 0 0 0.154167 0 0 0 0.58 0"/>
<feBlend mode="normal" in2="BackgroundImageFix" result="effect1_dropShadow_2383_661"/>
<feBlend mode="normal" in="SourceGraphic" in2="effect1_dropShadow_2383_661" result="shape"/>
<feColorMatrix in="SourceAlpha" type="matrix" values="0 0 0 0 0 0 0 0 0 0 0 0 0 0 0 0 0 0 127 0" result="hardAlpha"/>
<feOffset dy="-1"/>
<feGaussianBlur stdDeviation="0.5"/>
<feComposite in2="hardAlpha" operator="arithmetic" k2="-1" k3="1"/>
<feColorMatrix type="matrix" values="0 0 0 0 0.208333 0 0 0 0 0.208333 0 0 0 0 0.208333 0 0 0 0.22 0"/>
<feBlend mode="normal" in2="shape" result="effect2_innerShadow_2383_661"/>
</filter>
<linearGradient id="paint0_linear_2383_661" x1="558" y1="1.50001" x2="-1.10149e-05" y2="355" gradientUnits="userSpaceOnUse">
<stop stop-color="#5034EC"/>
<stop offset="0.995876" stop-color="#5366E6"/>
</linearGradient>
</defs>
</svg>
