<svg width="355" height="555" viewBox="0 0 355 555" fill="none" xmlns="http://www.w3.org/2000/svg">
<rect width="355" height="555" fill="#1B2034"/>
<mask id="mask0_2383_473" style="mask-type:alpha" maskUnits="userSpaceOnUse" x="0" y="0" width="355" height="555">
<rect width="355" height="555" fill="#8CFFF8"/>
<rect x="1" y="1" width="353" height="553" stroke="url(#paint0_linear_2383_473)" stroke-opacity="0.5" stroke-width="2"/>
</mask>
<g mask="url(#mask0_2383_473)">
<path d="M-5 446H361V542C361 553.046 352.046 562 341 562H15C3.95431 562 -5 553.046 -5 542V446Z" fill="#1B2034"/>
<circle cx="270" cy="70" r="261.5" stroke="#5046ED"/>
<circle cx="364" cy="40" r="261.5" stroke="#5046ED"/>
<circle cx="484" cy="40" r="261.5" stroke="#5046ED"/>
<g filter="url(#filter0_d_2383_473)">
<path d="M32.2592 486.638H30.5973C30.5334 486.283 30.4144 485.971 30.2404 485.701C30.0664 485.431 29.8533 485.202 29.6012 485.014C29.3491 484.826 29.0668 484.684 28.7543 484.588C28.4453 484.492 28.1168 484.444 27.7688 484.444C27.1403 484.444 26.5774 484.602 26.0803 484.918C25.5866 485.234 25.196 485.697 24.9084 486.308C24.6243 486.919 24.4822 487.665 24.4822 488.545C24.4822 489.433 24.6243 490.183 24.9084 490.793C25.196 491.404 25.5884 491.866 26.0856 492.178C26.5827 492.491 27.142 492.647 27.7635 492.647C28.108 492.647 28.4347 492.601 28.7436 492.509C29.0561 492.413 29.3384 492.272 29.5906 492.088C29.8427 491.903 30.0558 491.678 30.2298 491.411C30.4073 491.141 30.5298 490.832 30.5973 490.484L32.2592 490.49C32.1705 491.026 31.9982 491.52 31.7425 491.971C31.4904 492.418 31.1655 492.805 30.7678 493.132C30.3736 493.455 29.9226 493.705 29.4148 493.883C28.907 494.06 28.353 494.149 27.7528 494.149C26.8082 494.149 25.9666 493.925 25.228 493.478C24.4893 493.027 23.907 492.382 23.4808 491.544C23.0582 490.706 22.8469 489.707 22.8469 488.545C22.8469 487.381 23.06 486.381 23.4862 485.547C23.9123 484.708 24.4947 484.066 25.2333 483.618C25.9719 483.167 26.8118 482.942 27.7528 482.942C28.3317 482.942 28.8714 483.025 29.3722 483.192C29.8764 483.355 30.3292 483.597 30.7305 483.917C31.1317 484.233 31.4638 484.62 31.7266 485.078C31.9893 485.532 32.1669 486.053 32.2592 486.638ZM35.0771 494H33.3299L37.2557 483.091H39.1573L43.0831 494H41.3359L38.2518 485.072H38.1665L35.0771 494ZM35.37 489.728H41.0376V491.113H35.37V489.728ZM44.6585 494V483.091H48.547C49.3921 483.091 50.0935 483.237 50.651 483.528C51.2121 483.819 51.6311 484.222 51.9081 484.737C52.1851 485.248 52.3236 485.839 52.3236 486.511C52.3236 487.178 52.1833 487.766 51.9028 488.274C51.6258 488.778 51.2068 489.17 50.6457 489.451C50.0882 489.732 49.3868 489.872 48.5416 489.872H45.596V488.455H48.3925C48.9252 488.455 49.3584 488.379 49.6922 488.226C50.0296 488.073 50.2764 487.851 50.4326 487.56C50.5889 487.269 50.667 486.919 50.667 486.511C50.667 486.099 50.5871 485.742 50.4273 485.44C50.271 485.138 50.0242 484.907 49.6869 484.748C49.3531 484.584 48.9145 484.502 48.3712 484.502H46.3044V494H44.6585ZM50.0438 489.078L52.7391 494H50.8641L48.222 489.078H50.0438ZM57.858 494H54.3264V483.091H57.9699C59.0388 483.091 59.9568 483.309 60.7238 483.746C61.4909 484.179 62.0786 484.803 62.4869 485.616C62.8989 486.425 63.1048 487.397 63.1048 488.529C63.1048 489.666 62.8971 490.642 62.4816 491.459C62.0697 492.276 61.4731 492.904 60.6919 493.345C59.9106 493.782 58.966 494 57.858 494ZM55.9724 492.562H57.7675C58.5985 492.562 59.2892 492.406 59.8396 492.093C60.39 491.777 60.8019 491.321 61.0754 490.724C61.3488 490.124 61.4855 489.392 61.4855 488.529C61.4855 487.674 61.3488 486.947 61.0754 486.351C60.8055 485.754 60.4024 485.301 59.8662 484.993C59.33 484.684 58.6642 484.529 57.8687 484.529H55.9724V492.562ZM69.1214 494V483.091H70.7673V487.832H76.2059V483.091H77.8572V494H76.2059V489.243H70.7673V494H69.1214ZM89.7304 488.545C89.7304 489.71 89.5173 490.712 89.0912 491.55C88.665 492.384 88.0809 493.027 87.3387 493.478C86.6001 493.925 85.7602 494.149 84.8192 494.149C83.8746 494.149 83.0312 493.925 82.289 493.478C81.5503 493.027 80.968 492.382 80.5418 491.544C80.1157 490.706 79.9026 489.707 79.9026 488.545C79.9026 487.381 80.1157 486.381 80.5418 485.547C80.968 484.708 81.5503 484.066 82.289 483.618C83.0312 483.167 83.8746 482.942 84.8192 482.942C85.7602 482.942 86.6001 483.167 87.3387 483.618C88.0809 484.066 88.665 484.708 89.0912 485.547C89.5173 486.381 89.7304 487.381 89.7304 488.545ZM88.1004 488.545C88.1004 487.658 87.9566 486.91 87.6689 486.303C87.3849 485.692 86.9942 485.23 86.4971 484.918C86.0035 484.602 85.4442 484.444 84.8192 484.444C84.1906 484.444 83.6295 484.602 83.1359 484.918C82.6423 485.23 82.2517 485.692 81.964 486.303C81.68 486.91 81.5379 487.658 81.5379 488.545C81.5379 489.433 81.68 490.183 81.964 490.793C82.2517 491.401 82.6423 491.862 83.1359 492.178C83.6295 492.491 84.1906 492.647 84.8192 492.647C85.4442 492.647 86.0035 492.491 86.4971 492.178C86.9942 491.862 87.3849 491.401 87.6689 490.793C87.9566 490.183 88.1004 489.433 88.1004 488.545ZM91.7825 494V483.091H93.4284V492.583H98.3716V494H91.7825ZM103.781 494H100.249V483.091H103.893C104.962 483.091 105.88 483.309 106.647 483.746C107.414 484.179 108.001 484.803 108.41 485.616C108.822 486.425 109.028 487.397 109.028 488.529C109.028 489.666 108.82 490.642 108.404 491.459C107.993 492.276 107.396 492.904 106.615 493.345C105.833 493.782 104.889 494 103.781 494ZM101.895 492.562H103.69C104.521 492.562 105.212 492.406 105.762 492.093C106.313 491.777 106.725 491.321 106.998 490.724C107.272 490.124 107.408 489.392 107.408 488.529C107.408 487.674 107.272 486.947 106.998 486.351C106.728 485.754 106.325 485.301 105.789 484.993C105.253 484.684 104.587 484.529 103.792 484.529H101.895V492.562ZM111.074 494V483.091H117.914V484.508H112.72V487.832H117.557V489.243H112.72V492.583H117.978V494H111.074ZM120.113 494V483.091H124.001C124.846 483.091 125.548 483.237 126.105 483.528C126.666 483.819 127.085 484.222 127.362 484.737C127.639 485.248 127.778 485.839 127.778 486.511C127.778 487.178 127.637 487.766 127.357 488.274C127.08 488.778 126.661 489.17 126.1 489.451C125.542 489.732 124.841 489.872 123.996 489.872H121.05V488.455H123.847C124.379 488.455 124.813 488.379 125.146 488.226C125.484 488.073 125.73 487.851 125.887 487.56C126.043 487.269 126.121 486.919 126.121 486.511C126.121 486.099 126.041 485.742 125.881 485.44C125.725 485.138 125.478 484.907 125.141 484.748C124.807 484.584 124.369 484.502 123.825 484.502H121.759V494H120.113ZM125.498 489.078L128.193 494H126.318L123.676 489.078H125.498ZM142.555 483.091V494H141.043L135.497 485.999H135.396V494H133.75V483.091H135.274L140.824 491.102H140.925V483.091H142.555ZM145.878 494H144.131L148.056 483.091H149.958L153.884 494H152.137L149.053 485.072H148.967L145.878 494ZM146.171 489.728H151.838V491.113H146.171V489.728ZM155.459 483.091H157.457L160.93 491.571H161.058L164.531 483.091H166.528V494H164.962V486.106H164.861L161.644 493.984H160.344L157.127 486.1H157.025V494H155.459V483.091ZM168.921 494V483.091H175.761V484.508H170.567V487.832H175.404V489.243H170.567V492.583H175.825V494H168.921Z" fill="#F3F3F3" fill-opacity="0.8" shape-rendering="crispEdges"/>
</g>
<g filter="url(#filter1_d_2383_473)">
<path d="M253.152 483.091L256.188 491.976H256.311L259.347 483.091H261.126L257.2 494H255.299L251.373 483.091H253.152ZM262.51 494H260.763L264.688 483.091H266.59L270.516 494H268.769L265.684 485.072H265.599L262.51 494ZM262.803 489.728H268.47V491.113H262.803V489.728ZM272.091 494V483.091H273.737V492.583H278.68V494H272.091ZM282.204 483.091V494H280.558V483.091H282.204ZM288.132 494H284.601V483.091H288.244C289.313 483.091 290.231 483.309 290.998 483.746C291.765 484.179 292.353 484.803 292.761 485.616C293.173 486.425 293.379 487.397 293.379 488.529C293.379 489.666 293.172 490.642 292.756 491.459C292.344 492.276 291.748 492.904 290.966 493.345C290.185 493.782 289.24 494 288.132 494ZM286.247 492.562H288.042C288.873 492.562 289.564 492.406 290.114 492.093C290.664 491.777 291.076 491.321 291.35 490.724C291.623 490.124 291.76 489.392 291.76 488.529C291.76 487.674 291.623 486.947 291.35 486.351C291.08 485.754 290.677 485.301 290.141 484.993C289.604 484.684 288.939 484.529 288.143 484.529H286.247V492.562ZM298.858 484.508V483.091H307.301V484.508H303.897V494H302.256V484.508H298.858ZM309.166 494V483.091H310.812V487.832H316.251V483.091H317.902V494H316.251V489.243H310.812V494H309.166ZM320.299 494V483.091H324.188C325.033 483.091 325.734 483.237 326.292 483.528C326.853 483.819 327.272 484.222 327.549 484.737C327.826 485.248 327.964 485.839 327.964 486.511C327.964 487.178 327.824 487.766 327.543 488.274C327.266 488.778 326.847 489.17 326.286 489.451C325.729 489.732 325.027 489.872 324.182 489.872H321.237V488.455H324.033C324.566 488.455 324.999 488.379 325.333 488.226C325.67 488.073 325.917 487.851 326.073 487.56C326.229 487.269 326.308 486.919 326.308 486.511C326.308 486.099 326.228 485.742 326.068 485.44C325.912 485.138 325.665 484.907 325.328 484.748C324.994 484.584 324.555 484.502 324.012 484.502H321.945V494H320.299ZM325.684 489.078L328.38 494H326.505L323.863 489.078H325.684ZM336.982 483.091H338.634V490.266C338.634 491.029 338.454 491.706 338.096 492.295C337.737 492.881 337.233 493.343 336.583 493.68C335.933 494.014 335.171 494.181 334.298 494.181C333.428 494.181 332.668 494.014 332.018 493.68C331.368 493.343 330.864 492.881 330.505 492.295C330.146 491.706 329.967 491.029 329.967 490.266V483.091H331.613V490.133C331.613 490.626 331.721 491.065 331.938 491.449C332.158 491.832 332.469 492.134 332.87 492.354C333.271 492.571 333.747 492.679 334.298 492.679C334.852 492.679 335.329 492.571 335.731 492.354C336.135 492.134 336.444 491.832 336.657 491.449C336.874 491.065 336.982 490.626 336.982 490.133V483.091Z" fill="#F3F3F3" fill-opacity="0.8" shape-rendering="crispEdges"/>
</g>
<g filter="url(#filter2_d_2383_473)">
<path d="M23.598 509.455H26.2614L30.892 520.761H31.0625L35.6932 509.455H38.3565V524H36.2685V513.474H36.1335L31.8438 523.979H30.1108L25.821 513.467H25.6861V524H23.598V509.455ZM41.3768 524V513.091H43.5004V524H41.3768ZM42.4492 511.408C42.0799 511.408 41.7627 511.285 41.4975 511.038C41.2371 510.787 41.1069 510.489 41.1069 510.143C41.1069 509.793 41.2371 509.495 41.4975 509.249C41.7627 508.998 42.0799 508.872 42.4492 508.872C42.8185 508.872 43.1334 508.998 43.3938 509.249C43.659 509.495 43.7915 509.793 43.7915 510.143C43.7915 510.489 43.659 510.787 43.3938 511.038C43.1334 511.285 42.8185 511.408 42.4492 511.408ZM50.9524 524.22C49.8965 524.22 48.9875 523.981 48.2251 523.503C47.4676 523.02 46.8852 522.355 46.478 521.507C46.0708 520.66 45.8672 519.689 45.8672 518.595C45.8672 517.487 46.0755 516.509 46.4922 515.662C46.9089 514.81 47.496 514.144 48.2536 513.666C49.0111 513.188 49.9036 512.949 50.9311 512.949C51.7597 512.949 52.4983 513.103 53.147 513.411C53.7957 513.714 54.3189 514.14 54.7166 514.689C55.1191 515.238 55.3582 515.88 55.4339 516.614H53.3672C53.2536 516.102 52.9931 515.662 52.5859 515.293C52.1835 514.923 51.6437 514.739 50.9666 514.739C50.3748 514.739 49.8563 514.895 49.4112 515.207C48.9709 515.515 48.6276 515.955 48.3814 516.528C48.1352 517.097 48.0121 517.769 48.0121 518.545C48.0121 519.341 48.1328 520.027 48.3743 520.605C48.6158 521.183 48.9567 521.63 49.397 521.947C49.8421 522.265 50.3653 522.423 50.9666 522.423C51.3691 522.423 51.7337 522.35 52.0604 522.203C52.3918 522.052 52.6688 521.836 52.8913 521.557C53.1186 521.277 53.2772 520.941 53.3672 520.548H55.4339C55.3582 521.254 55.1286 521.884 54.745 522.438C54.3615 522.991 53.8478 523.427 53.2038 523.744C52.5646 524.062 51.8142 524.22 50.9524 524.22ZM59.8285 517.523V524H57.7049V509.455H59.8001V514.866H59.935C60.1907 514.279 60.5813 513.813 61.1069 513.467C61.6325 513.122 62.319 512.949 63.1665 512.949C63.9147 512.949 64.5681 513.103 65.1268 513.411C65.6902 513.718 66.1258 514.178 66.4336 514.788C66.7461 515.394 66.9023 516.152 66.9023 517.061V524H64.7788V517.317C64.7788 516.517 64.5728 515.896 64.1609 515.456C63.7489 515.011 63.176 514.788 62.4421 514.788C61.9402 514.788 61.4904 514.895 61.0927 515.108C60.6997 515.321 60.3896 515.634 60.1623 516.045C59.9397 516.453 59.8285 516.945 59.8285 517.523ZM72.9109 524.241C72.2196 524.241 71.5946 524.114 71.0359 523.858C70.4772 523.598 70.0344 523.221 69.7077 522.729C69.3858 522.236 69.2248 521.633 69.2248 520.918C69.2248 520.302 69.3432 519.795 69.5799 519.398C69.8166 519 70.1362 518.685 70.5387 518.453C70.9412 518.221 71.391 518.046 71.8881 517.928C72.3853 517.809 72.8919 517.719 73.408 517.658C74.0614 517.582 74.5917 517.52 74.9989 517.473C75.4061 517.421 75.7021 517.338 75.8867 517.224C76.0714 517.111 76.1637 516.926 76.1637 516.67V516.621C76.1637 516 75.9885 515.52 75.6381 515.179C75.2925 514.838 74.7764 514.668 74.0898 514.668C73.3749 514.668 72.8114 514.826 72.3995 515.143C71.9923 515.456 71.7106 515.804 71.5543 516.188L69.5586 515.733C69.7953 515.07 70.141 514.535 70.5955 514.128C71.0548 513.716 71.5827 513.418 72.1793 513.233C72.7759 513.044 73.4033 512.949 74.0614 512.949C74.497 512.949 74.9587 513.001 75.4464 513.105C75.9388 513.205 76.3981 513.389 76.8242 513.659C77.2551 513.929 77.6078 514.315 77.8825 514.817C78.1571 515.314 78.2944 515.96 78.2944 516.756V524H76.2205V522.509H76.1353C75.998 522.783 75.792 523.053 75.5174 523.318C75.2428 523.583 74.89 523.804 74.4592 523.979C74.0283 524.154 73.5122 524.241 72.9109 524.241ZM73.3725 522.537C73.9596 522.537 74.4615 522.421 74.8782 522.189C75.2996 521.957 75.6192 521.654 75.837 521.28C76.0595 520.901 76.1708 520.496 76.1708 520.065V518.659C76.0951 518.735 75.9483 518.806 75.7305 518.872C75.5174 518.934 75.2736 518.988 74.9989 519.036C74.7243 519.078 74.4568 519.118 74.1964 519.156C73.936 519.189 73.7182 519.218 73.543 519.241C73.131 519.294 72.7546 519.381 72.4137 519.504C72.0775 519.627 71.8076 519.805 71.604 520.037C71.4052 520.264 71.3058 520.567 71.3058 520.946C71.3058 521.472 71.4999 521.869 71.8881 522.139C72.2764 522.404 72.7712 522.537 73.3725 522.537ZM85.8246 524.22C84.7498 524.22 83.8241 523.991 83.0476 523.531C82.2758 523.067 81.6792 522.416 81.2578 521.578C80.8411 520.735 80.6328 519.748 80.6328 518.616C80.6328 517.499 80.8411 516.514 81.2578 515.662C81.6792 514.81 82.2663 514.144 83.0192 513.666C83.7768 513.188 84.6622 512.949 85.6754 512.949C86.291 512.949 86.8875 513.051 87.4652 513.254C88.0429 513.458 88.5613 513.777 89.0206 514.213C89.4799 514.649 89.8421 515.214 90.1072 515.911C90.3724 516.602 90.505 517.442 90.505 518.432V519.185H81.8331V517.594H88.424C88.424 517.035 88.3104 516.54 88.0831 516.109C87.8558 515.674 87.5362 515.33 87.1243 515.08C86.7171 514.829 86.2389 514.703 85.6896 514.703C85.093 514.703 84.5722 514.85 84.1271 515.143C83.6868 515.432 83.3459 515.811 83.1044 516.28C82.8677 516.744 82.7493 517.248 82.7493 517.793V519.036C82.7493 519.765 82.8771 520.385 83.1328 520.896C83.3932 521.408 83.7554 521.798 84.2195 522.068C84.6835 522.333 85.2256 522.466 85.8459 522.466C86.2483 522.466 86.6153 522.409 86.9467 522.295C87.2782 522.177 87.5646 522.002 87.8061 521.77C88.0476 521.538 88.2322 521.251 88.3601 520.911L90.37 521.273C90.209 521.865 89.9202 522.383 89.5036 522.828C89.0916 523.268 88.5732 523.612 87.9482 523.858C87.3279 524.099 86.62 524.22 85.8246 524.22ZM94.9847 509.455V524H92.8612V509.455H94.9847ZM104.534 524H102.204L107.439 509.455H109.974L115.208 524H112.879L108.767 512.097H108.653L104.534 524ZM104.924 518.304H112.481V520.151H104.924V518.304ZM119.262 517.523V524H117.138V513.091H119.177V514.866H119.312C119.563 514.289 119.956 513.825 120.491 513.474C121.031 513.124 121.71 512.949 122.529 512.949C123.272 512.949 123.924 513.105 124.482 513.418C125.041 513.725 125.474 514.185 125.782 514.795C126.09 515.406 126.244 516.161 126.244 517.061V524H124.12V517.317C124.12 516.526 123.914 515.908 123.502 515.463C123.09 515.013 122.524 514.788 121.805 514.788C121.312 514.788 120.874 514.895 120.491 515.108C120.112 515.321 119.811 515.634 119.589 516.045C119.371 516.453 119.262 516.945 119.262 517.523ZM133.175 524.213C132.295 524.213 131.509 523.988 130.817 523.538C130.131 523.084 129.591 522.437 129.198 521.599C128.81 520.757 128.616 519.746 128.616 518.567C128.616 517.388 128.812 516.379 129.205 515.541C129.603 514.703 130.147 514.062 130.839 513.616C131.53 513.171 132.314 512.949 133.19 512.949C133.867 512.949 134.411 513.062 134.823 513.29C135.24 513.512 135.562 513.773 135.789 514.071C136.021 514.369 136.201 514.632 136.329 514.859H136.457V509.455H138.58V524H136.506V522.303H136.329C136.201 522.535 136.016 522.8 135.775 523.098C135.538 523.396 135.211 523.657 134.795 523.879C134.378 524.102 133.838 524.213 133.175 524.213ZM133.644 522.402C134.255 522.402 134.771 522.241 135.192 521.919C135.619 521.592 135.941 521.14 136.158 520.562C136.381 519.985 136.492 519.312 136.492 518.545C136.492 517.788 136.383 517.125 136.165 516.557C135.948 515.989 135.628 515.546 135.207 515.229C134.785 514.911 134.264 514.753 133.644 514.753C133.005 514.753 132.472 514.919 132.046 515.25C131.62 515.581 131.298 516.034 131.08 516.607C130.867 517.179 130.761 517.826 130.761 518.545C130.761 519.275 130.87 519.93 131.087 520.513C131.305 521.095 131.627 521.557 132.053 521.898C132.484 522.234 133.014 522.402 133.644 522.402ZM141.611 524V513.091H143.664V514.824H143.777C143.976 514.237 144.327 513.775 144.828 513.439C145.335 513.098 145.908 512.928 146.547 512.928C146.68 512.928 146.836 512.932 147.016 512.942C147.201 512.951 147.345 512.963 147.449 512.977V515.009C147.364 514.985 147.212 514.959 146.995 514.93C146.777 514.897 146.559 514.881 146.341 514.881C145.839 514.881 145.392 514.987 144.999 515.2C144.611 515.409 144.303 515.7 144.076 516.074C143.848 516.443 143.735 516.865 143.735 517.338V524H141.611ZM153.598 524.22C152.523 524.22 151.598 523.991 150.821 523.531C150.049 523.067 149.453 522.416 149.031 521.578C148.615 520.735 148.406 519.748 148.406 518.616C148.406 517.499 148.615 516.514 149.031 515.662C149.453 514.81 150.04 514.144 150.793 513.666C151.55 513.188 152.436 512.949 153.449 512.949C154.064 512.949 154.661 513.051 155.239 513.254C155.816 513.458 156.335 513.777 156.794 514.213C157.253 514.649 157.616 515.214 157.881 515.911C158.146 516.602 158.278 517.442 158.278 518.432V519.185H149.607V517.594H156.197C156.197 517.035 156.084 516.54 155.857 516.109C155.629 515.674 155.31 515.33 154.898 515.08C154.491 514.829 154.012 514.703 153.463 514.703C152.866 514.703 152.346 514.85 151.901 515.143C151.46 515.432 151.119 515.811 150.878 516.28C150.641 516.744 150.523 517.248 150.523 517.793V519.036C150.523 519.765 150.651 520.385 150.906 520.896C151.167 521.408 151.529 521.798 151.993 522.068C152.457 522.333 152.999 522.466 153.619 522.466C154.022 522.466 154.389 522.409 154.72 522.295C155.052 522.177 155.338 522.002 155.58 521.77C155.821 521.538 156.006 521.251 156.134 520.911L158.143 521.273C157.982 521.865 157.694 522.383 157.277 522.828C156.865 523.268 156.347 523.612 155.722 523.858C155.101 524.099 154.393 524.22 153.598 524.22ZM167.545 519.476V513.091H169.676V524H167.588V522.111H167.474C167.223 522.693 166.821 523.179 166.267 523.567C165.717 523.95 165.033 524.142 164.214 524.142C163.513 524.142 162.893 523.988 162.353 523.68C161.818 523.368 161.397 522.906 161.089 522.295C160.786 521.685 160.635 520.929 160.635 520.03V513.091H162.758V519.774C162.758 520.518 162.964 521.109 163.376 521.55C163.788 521.99 164.323 522.21 164.981 522.21C165.379 522.21 165.774 522.111 166.167 521.912C166.565 521.713 166.894 521.412 167.154 521.01C167.42 520.607 167.55 520.096 167.545 519.476ZM172.302 524V522.544L178.211 515.037V514.938H172.494V513.091H180.86V514.639L175.178 522.054V522.153H181.059V524H172.302ZM183.337 524V522.544L189.246 515.037V514.938H183.529V513.091H191.895V514.639L186.213 522.054V522.153H192.094V524H183.337ZM197.774 524.241C197.083 524.241 196.458 524.114 195.899 523.858C195.34 523.598 194.898 523.221 194.571 522.729C194.249 522.236 194.088 521.633 194.088 520.918C194.088 520.302 194.206 519.795 194.443 519.398C194.68 519 195 518.685 195.402 518.453C195.804 518.221 196.254 518.046 196.751 517.928C197.249 517.809 197.755 517.719 198.271 517.658C198.925 517.582 199.455 517.52 199.862 517.473C200.269 517.421 200.565 517.338 200.75 517.224C200.935 517.111 201.027 516.926 201.027 516.67V516.621C201.027 516 200.852 515.52 200.501 515.179C200.156 514.838 199.64 514.668 198.953 514.668C198.238 514.668 197.675 514.826 197.263 515.143C196.856 515.456 196.574 515.804 196.418 516.188L194.422 515.733C194.659 515.07 195.004 514.535 195.459 514.128C195.918 513.716 196.446 513.418 197.043 513.233C197.639 513.044 198.267 512.949 198.925 512.949C199.36 512.949 199.822 513.001 200.31 513.105C200.802 513.205 201.261 513.389 201.688 513.659C202.118 513.929 202.471 514.315 202.746 514.817C203.02 515.314 203.158 515.96 203.158 516.756V524H201.084V522.509H200.999C200.861 522.783 200.655 523.053 200.381 523.318C200.106 523.583 199.753 523.804 199.322 523.979C198.892 524.154 198.375 524.241 197.774 524.241ZM198.236 522.537C198.823 522.537 199.325 522.421 199.741 522.189C200.163 521.957 200.482 521.654 200.7 521.28C200.923 520.901 201.034 520.496 201.034 520.065V518.659C200.958 518.735 200.812 518.806 200.594 518.872C200.381 518.934 200.137 518.988 199.862 519.036C199.588 519.078 199.32 519.118 199.06 519.156C198.799 519.189 198.581 519.218 198.406 519.241C197.994 519.294 197.618 519.381 197.277 519.504C196.941 519.627 196.671 519.805 196.467 520.037C196.268 520.264 196.169 520.567 196.169 520.946C196.169 521.472 196.363 521.869 196.751 522.139C197.14 522.404 197.634 522.537 198.236 522.537Z" fill="#F4F4F4"/>
</g>
<g filter="url(#filter3_d_2383_473)">
<path d="M257.463 524.241C256.341 524.237 255.382 523.941 254.587 523.354C253.791 522.767 253.183 521.912 252.761 520.79C252.34 519.668 252.129 518.316 252.129 516.734C252.129 515.158 252.34 513.811 252.761 512.693C253.188 511.576 253.798 510.723 254.594 510.136C255.394 509.549 256.35 509.256 257.463 509.256C258.576 509.256 259.53 509.552 260.325 510.143C261.121 510.731 261.729 511.583 262.151 512.7C262.577 513.813 262.79 515.158 262.79 516.734C262.79 518.321 262.579 519.675 262.158 520.797C261.736 521.914 261.128 522.769 260.332 523.361C259.537 523.948 258.58 524.241 257.463 524.241ZM257.463 522.345C258.448 522.345 259.217 521.865 259.771 520.903C260.33 519.942 260.609 518.553 260.609 516.734C260.609 515.527 260.482 514.507 260.226 513.673C259.975 512.835 259.613 512.201 259.139 511.77C258.67 511.334 258.112 511.116 257.463 511.116C256.483 511.116 255.714 511.599 255.155 512.565C254.596 513.531 254.314 514.921 254.31 516.734C254.31 517.946 254.435 518.972 254.686 519.81C254.942 520.643 255.304 521.275 255.773 521.706C256.241 522.132 256.805 522.345 257.463 522.345ZM265.309 524V522.409L270.231 517.31C270.757 516.756 271.19 516.27 271.531 515.854C271.877 515.432 272.135 515.032 272.305 514.653C272.475 514.275 272.561 513.872 272.561 513.446C272.561 512.963 272.447 512.546 272.22 512.196C271.993 511.841 271.682 511.569 271.289 511.379C270.896 511.185 270.454 511.088 269.961 511.088C269.44 511.088 268.986 511.195 268.598 511.408C268.209 511.621 267.911 511.921 267.703 512.31C267.494 512.698 267.39 513.152 267.39 513.673H265.295C265.295 512.788 265.499 512.014 265.906 511.351C266.313 510.688 266.872 510.174 267.582 509.81C268.292 509.44 269.1 509.256 270.004 509.256C270.918 509.256 271.723 509.438 272.419 509.803C273.119 510.162 273.666 510.655 274.059 511.28C274.452 511.9 274.649 512.601 274.649 513.382C274.649 513.922 274.547 514.45 274.343 514.966C274.145 515.482 273.797 516.057 273.299 516.692C272.802 517.321 272.111 518.086 271.225 518.986L268.335 522.011V522.118H274.883V524H265.309ZM283.143 508.773L278.456 526.188H276.559L281.247 508.773H283.143ZM289.983 524.199C289.007 524.199 288.136 524.031 287.369 523.695C286.607 523.358 286.003 522.892 285.558 522.295C285.118 521.694 284.881 520.998 284.848 520.207H287.078C287.106 520.638 287.251 521.012 287.511 521.33C287.776 521.642 288.122 521.884 288.548 522.054C288.974 522.224 289.448 522.31 289.968 522.31C290.541 522.31 291.048 522.21 291.488 522.011C291.933 521.812 292.281 521.536 292.532 521.18C292.783 520.821 292.909 520.406 292.909 519.938C292.909 519.45 292.783 519.021 292.532 518.652C292.286 518.278 291.924 517.984 291.446 517.771C290.972 517.558 290.399 517.452 289.727 517.452H288.498V515.662H289.727C290.267 515.662 290.74 515.565 291.147 515.371C291.559 515.177 291.881 514.907 292.113 514.561C292.345 514.211 292.461 513.801 292.461 513.332C292.461 512.883 292.359 512.492 292.156 512.161C291.957 511.824 291.673 511.562 291.304 511.372C290.939 511.183 290.508 511.088 290.011 511.088C289.538 511.088 289.095 511.176 288.683 511.351C288.276 511.521 287.944 511.768 287.689 512.089C287.433 512.407 287.296 512.788 287.277 513.233H285.153C285.177 512.447 285.409 511.756 285.849 511.159C286.294 510.562 286.881 510.096 287.61 509.76C288.34 509.424 289.149 509.256 290.039 509.256C290.972 509.256 291.777 509.438 292.454 509.803C293.136 510.162 293.662 510.643 294.031 511.244C294.405 511.846 294.59 512.504 294.585 513.219C294.59 514.033 294.362 514.724 293.903 515.293C293.449 515.861 292.842 516.242 292.085 516.436V516.55C293.051 516.696 293.799 517.08 294.329 517.7C294.864 518.321 295.129 519.09 295.125 520.009C295.129 520.809 294.907 521.526 294.457 522.161C294.012 522.795 293.404 523.295 292.632 523.659C291.86 524.019 290.977 524.199 289.983 524.199ZM302.873 524.241C301.751 524.237 300.792 523.941 299.997 523.354C299.201 522.767 298.593 521.912 298.172 520.79C297.75 519.668 297.539 518.316 297.539 516.734C297.539 515.158 297.75 513.811 298.172 512.693C298.598 511.576 299.208 510.723 300.004 510.136C300.804 509.549 301.761 509.256 302.873 509.256C303.986 509.256 304.94 509.552 305.735 510.143C306.531 510.731 307.139 511.583 307.561 512.7C307.987 513.813 308.2 515.158 308.2 516.734C308.2 518.321 307.989 519.675 307.568 520.797C307.146 521.914 306.538 522.769 305.743 523.361C304.947 523.948 303.991 524.241 302.873 524.241ZM302.873 522.345C303.858 522.345 304.627 521.865 305.181 520.903C305.74 519.942 306.02 518.553 306.02 516.734C306.02 515.527 305.892 514.507 305.636 513.673C305.385 512.835 305.023 512.201 304.549 511.77C304.081 511.334 303.522 511.116 302.873 511.116C301.893 511.116 301.124 511.599 300.565 512.565C300.006 513.531 299.725 514.921 299.72 516.734C299.72 517.946 299.845 518.972 300.096 519.81C300.352 520.643 300.714 521.275 301.183 521.706C301.652 522.132 302.215 522.345 302.873 522.345Z" fill="#F4F4F4"/>
</g>
<g filter="url(#filter4_d_2383_473)">
<path d="M33.2592 345.638H31.5973C31.5334 345.283 31.4144 344.971 31.2404 344.701C31.0664 344.431 30.8533 344.202 30.6012 344.014C30.3491 343.826 30.0668 343.684 29.7543 343.588C29.4453 343.492 29.1168 343.444 28.7688 343.444C28.1403 343.444 27.5774 343.602 27.0803 343.918C26.5866 344.234 26.196 344.697 25.9084 345.308C25.6243 345.919 25.4822 346.665 25.4822 347.545C25.4822 348.433 25.6243 349.183 25.9084 349.793C26.196 350.404 26.5884 350.866 27.0856 351.178C27.5827 351.491 28.142 351.647 28.7635 351.647C29.108 351.647 29.4347 351.601 29.7436 351.509C30.0561 351.413 30.3384 351.272 30.5906 351.088C30.8427 350.903 31.0558 350.678 31.2298 350.411C31.4073 350.141 31.5298 349.832 31.5973 349.484L33.2592 349.49C33.1705 350.026 32.9982 350.52 32.7425 350.971C32.4904 351.418 32.1655 351.805 31.7678 352.132C31.3736 352.455 30.9226 352.705 30.4148 352.883C29.907 353.06 29.353 353.149 28.7528 353.149C27.8082 353.149 26.9666 352.925 26.228 352.478C25.4893 352.027 24.907 351.382 24.4808 350.544C24.0582 349.706 23.8469 348.707 23.8469 347.545C23.8469 346.381 24.06 345.381 24.4862 344.547C24.9123 343.708 25.4947 343.066 26.2333 342.618C26.9719 342.167 27.8118 341.942 28.7528 341.942C29.3317 341.942 29.8714 342.025 30.3722 342.192C30.8764 342.355 31.3292 342.597 31.7305 342.917C32.1317 343.233 32.4638 343.62 32.7266 344.078C32.9893 344.532 33.1669 345.053 33.2592 345.638ZM37.482 353.181C36.9635 353.181 36.4948 353.085 36.0757 352.893C35.6567 352.698 35.3247 352.416 35.0796 352.047C34.8382 351.677 34.7174 351.224 34.7174 350.688C34.7174 350.227 34.8062 349.847 34.9838 349.548C35.1613 349.25 35.401 349.014 35.7029 348.84C36.0047 348.666 36.3421 348.534 36.7149 348.446C37.0878 348.357 37.4678 348.289 37.8548 348.243C38.3449 348.186 38.7426 348.14 39.048 348.105C39.3534 348.066 39.5754 348.004 39.7139 347.918C39.8524 347.833 39.9216 347.695 39.9216 347.503V347.466C39.9216 347 39.7902 346.64 39.5274 346.384C39.2682 346.129 38.8811 346.001 38.3662 346.001C37.83 346.001 37.4074 346.12 37.0985 346.358C36.7931 346.592 36.5818 346.853 36.4646 347.141L34.9678 346.8C35.1453 346.303 35.4046 345.901 35.7455 345.596C36.0899 345.287 36.4859 345.063 36.9333 344.925C37.3808 344.783 37.8513 344.712 38.3449 344.712C38.6716 344.712 39.0178 344.751 39.3836 344.829C39.7529 344.903 40.0974 345.042 40.417 345.244C40.7401 345.447 41.0047 345.736 41.2107 346.113C41.4166 346.485 41.5196 346.97 41.5196 347.567V353H39.9642V351.881H39.9003C39.7973 352.087 39.6428 352.29 39.4369 352.489C39.2309 352.687 38.9664 352.853 38.6432 352.984C38.32 353.115 37.933 353.181 37.482 353.181ZM37.8282 351.903C38.2686 351.903 38.645 351.816 38.9575 351.642C39.2735 351.468 39.5132 351.24 39.6766 350.96C39.8435 350.676 39.9269 350.372 39.9269 350.049V348.994C39.8701 349.051 39.76 349.104 39.5967 349.154C39.4369 349.2 39.254 349.241 39.048 349.277C38.8421 349.309 38.6414 349.339 38.4461 349.367C38.2508 349.392 38.0874 349.413 37.9561 349.431C37.6471 349.47 37.3648 349.536 37.1091 349.628C36.857 349.721 36.6546 349.854 36.5019 350.028C36.3527 350.198 36.2781 350.425 36.2781 350.71C36.2781 351.104 36.4237 351.402 36.7149 351.604C37.0061 351.803 37.3772 351.903 37.8282 351.903ZM43.641 353V344.818H45.1804V346.118H45.2656C45.4148 345.678 45.6776 345.331 46.054 345.079C46.4339 344.824 46.8636 344.696 47.343 344.696C47.4425 344.696 47.5597 344.699 47.6946 344.706C47.8331 344.713 47.9414 344.722 48.0195 344.733V346.256C47.9556 346.239 47.842 346.219 47.6786 346.198C47.5153 346.173 47.3519 346.161 47.1886 346.161C46.8121 346.161 46.4766 346.24 46.1818 346.4C45.8906 346.556 45.6598 346.775 45.4893 347.055C45.3189 347.332 45.2337 347.648 45.2337 348.004V353H43.641ZM52.1677 353.16C51.5072 353.16 50.9177 352.991 50.3992 352.654C49.8843 352.313 49.4795 351.828 49.1847 351.2C48.8936 350.567 48.748 349.809 48.748 348.925C48.748 348.041 48.8953 347.284 49.1901 346.656C49.4884 346.027 49.8968 345.546 50.4152 345.212C50.9337 344.879 51.5214 344.712 52.1784 344.712C52.6862 344.712 53.0945 344.797 53.4035 344.967C53.716 345.134 53.9575 345.33 54.1279 345.553C54.3019 345.777 54.4369 345.974 54.5328 346.145H54.6286V342.091H56.2213V353H54.6659V351.727H54.5328C54.4369 351.901 54.2984 352.1 54.1173 352.324C53.9397 352.547 53.6947 352.743 53.3822 352.909C53.0697 353.076 52.6649 353.16 52.1677 353.16ZM52.5193 351.801C52.9774 351.801 53.3644 351.681 53.6805 351.439C54.0001 351.194 54.2416 350.855 54.4049 350.422C54.5718 349.989 54.6553 349.484 54.6553 348.909C54.6553 348.341 54.5736 347.844 54.4102 347.418C54.2469 346.991 54.0072 346.659 53.6911 346.422C53.3751 346.184 52.9845 346.065 52.5193 346.065C52.0399 346.065 51.6404 346.189 51.3208 346.438C51.0012 346.686 50.7597 347.025 50.5963 347.455C50.4365 347.885 50.3566 348.369 50.3566 348.909C50.3566 349.456 50.4383 349.948 50.6017 350.385C50.765 350.821 51.0065 351.168 51.3261 351.423C51.6492 351.675 52.047 351.801 52.5193 351.801ZM71.3971 342.091V353H69.8843L64.3392 344.999H64.238V353H62.5921V342.091H64.1155L69.6659 350.102H69.7671V342.091H71.3971ZM78.8532 349.607V344.818H80.4512V353H78.8851V351.583H78.7999C78.6117 352.02 78.3098 352.384 77.8944 352.675C77.4824 352.963 76.9693 353.107 76.3549 353.107C75.8294 353.107 75.3642 352.991 74.9593 352.76C74.5581 352.526 74.242 352.18 74.0112 351.722C73.7839 351.263 73.6703 350.697 73.6703 350.022V344.818H75.263V349.831C75.263 350.388 75.4174 350.832 75.7264 351.162C76.0353 351.493 76.4366 351.658 76.9302 351.658C77.2285 351.658 77.525 351.583 77.8198 351.434C78.1181 351.285 78.3649 351.059 78.5602 350.757C78.7591 350.456 78.8567 350.072 78.8532 349.607ZM82.5912 353V344.818H84.1199V346.15H84.2211C84.3916 345.699 84.6704 345.347 85.0574 345.095C85.4445 344.839 85.9079 344.712 86.4477 344.712C86.9946 344.712 87.4527 344.839 87.822 345.095C88.1949 345.351 88.4701 345.702 88.6476 346.15H88.7329C88.9282 345.713 89.2389 345.365 89.665 345.106C90.0912 344.843 90.599 344.712 91.1885 344.712C91.9307 344.712 92.5361 344.944 93.0049 345.409C93.4772 345.875 93.7133 346.576 93.7133 347.513V353H92.1207V347.663C92.1207 347.109 91.9697 346.707 91.6679 346.459C91.366 346.21 91.0056 346.086 90.5866 346.086C90.0681 346.086 89.665 346.246 89.3774 346.565C89.0898 346.881 88.9459 347.288 88.9459 347.785V353H87.3586V347.561C87.3586 347.118 87.2201 346.761 86.9431 346.491C86.6661 346.221 86.3057 346.086 85.8618 346.086C85.5599 346.086 85.2812 346.166 85.0255 346.326C84.7733 346.482 84.5692 346.7 84.4129 346.981C84.2602 347.261 84.1839 347.586 84.1839 347.956V353H82.5912ZM95.9759 353V342.091H97.5685V346.145H97.6644C97.7567 345.974 97.8899 345.777 98.0639 345.553C98.2379 345.33 98.4794 345.134 98.7884 344.967C99.0973 344.797 99.5057 344.712 100.013 344.712C100.674 344.712 101.263 344.879 101.782 345.212C102.3 345.546 102.707 346.027 103.002 346.656C103.3 347.284 103.449 348.041 103.449 348.925C103.449 349.809 103.302 350.567 103.007 351.2C102.712 351.828 102.308 352.313 101.793 352.654C101.278 352.991 100.69 353.16 100.029 353.16C99.5323 353.16 99.1257 353.076 98.8097 352.909C98.4972 352.743 98.2521 352.547 98.0746 352.324C97.897 352.1 97.7603 351.901 97.6644 351.727H97.5312V353H95.9759ZM97.5366 348.909C97.5366 349.484 97.62 349.989 97.7869 350.422C97.9538 350.855 98.1953 351.194 98.5114 351.439C98.8274 351.681 99.2145 351.801 99.6726 351.801C100.148 351.801 100.546 351.675 100.866 351.423C101.185 351.168 101.427 350.821 101.59 350.385C101.757 349.948 101.841 349.456 101.841 348.909C101.841 348.369 101.759 347.885 101.596 347.455C101.436 347.025 101.194 346.686 100.871 346.438C100.551 346.189 100.152 346.065 99.6726 346.065C99.2109 346.065 98.8203 346.184 98.5007 346.422C98.1847 346.659 97.945 346.991 97.7816 347.418C97.6183 347.844 97.5366 348.341 97.5366 348.909ZM108.764 353.165C107.958 353.165 107.264 352.993 106.681 352.648C106.102 352.3 105.655 351.812 105.339 351.184C105.026 350.551 104.87 349.811 104.87 348.962C104.87 348.124 105.026 347.386 105.339 346.746C105.655 346.107 106.095 345.608 106.66 345.25C107.228 344.891 107.892 344.712 108.652 344.712C109.114 344.712 109.561 344.788 109.994 344.941C110.428 345.093 110.816 345.333 111.161 345.66C111.505 345.987 111.777 346.411 111.976 346.933C112.175 347.451 112.274 348.082 112.274 348.824V349.388H105.77V348.195H110.714C110.714 347.776 110.628 347.405 110.458 347.082C110.287 346.755 110.048 346.498 109.739 346.31C109.433 346.121 109.075 346.027 108.663 346.027C108.215 346.027 107.825 346.137 107.491 346.358C107.161 346.574 106.905 346.858 106.724 347.21C106.546 347.558 106.457 347.936 106.457 348.344V349.277C106.457 349.824 106.553 350.289 106.745 350.672C106.94 351.056 107.212 351.349 107.56 351.551C107.908 351.75 108.315 351.849 108.78 351.849C109.082 351.849 109.357 351.807 109.606 351.722C109.854 351.633 110.069 351.501 110.25 351.327C110.431 351.153 110.57 350.939 110.666 350.683L112.173 350.955C112.052 351.398 111.836 351.787 111.523 352.121C111.214 352.451 110.825 352.709 110.357 352.893C109.891 353.075 109.361 353.165 108.764 353.165ZM114.041 353V344.818H115.581V346.118H115.666C115.815 345.678 116.078 345.331 116.454 345.079C116.834 344.824 117.264 344.696 117.743 344.696C117.843 344.696 117.96 344.699 118.095 344.706C118.233 344.713 118.342 344.722 118.42 344.733V346.256C118.356 346.239 118.242 346.219 118.079 346.198C117.916 346.173 117.752 346.161 117.589 346.161C117.213 346.161 116.877 346.24 116.582 346.4C116.291 346.556 116.06 346.775 115.89 347.055C115.719 347.332 115.634 347.648 115.634 348.004V353H114.041Z" fill="white" fill-opacity="0.98" shape-rendering="crispEdges"/>
</g>
<g filter="url(#filter5_d_2383_473)">
<path d="M32.392 394.288C31.4515 394.275 30.5246 394.103 29.6115 393.773C28.7053 393.444 27.8814 392.895 27.1399 392.126C26.3984 391.357 25.8046 390.324 25.3583 389.026C24.9189 387.728 24.6992 386.108 24.6992 384.165C24.6992 382.325 24.8812 380.691 25.245 379.263C25.6158 377.835 26.1478 376.63 26.8413 375.648C27.5347 374.66 28.3723 373.908 29.354 373.393C30.3358 372.878 31.4377 372.621 32.6598 372.621C33.9162 372.621 35.0318 372.868 36.0067 373.362C36.9817 373.857 37.7712 374.54 38.3754 375.412C38.9864 376.283 39.3743 377.276 39.5391 378.388H36.3981C36.1853 377.509 35.763 376.792 35.1314 376.235C34.4998 375.679 33.6759 375.401 32.6598 375.401C31.1151 375.401 29.9102 376.074 29.0451 377.42C28.1869 378.765 27.7544 380.636 27.7475 383.032H27.902C28.2659 382.435 28.7121 381.927 29.2408 381.508C29.7763 381.083 30.3736 380.756 31.0327 380.53C31.6986 380.296 32.3989 380.18 33.1335 380.18C34.3556 380.18 35.4609 380.478 36.4496 381.076C37.4451 381.666 38.238 382.483 38.8285 383.527C39.4189 384.57 39.7141 385.765 39.7141 387.11C39.7141 388.456 39.4086 389.675 38.7976 390.766C38.1934 391.858 37.3421 392.723 36.2436 393.362C35.1451 393.993 33.8613 394.302 32.392 394.288ZM32.3817 391.611C33.1919 391.611 33.9162 391.412 34.5547 391.013C35.1932 390.615 35.6978 390.08 36.0685 389.407C36.4393 388.734 36.6246 387.982 36.6246 387.152C36.6246 386.342 36.4427 385.603 36.0788 384.938C35.7218 384.272 35.2275 383.743 34.5959 383.352C33.9711 382.96 33.2571 382.765 32.4538 382.765C31.8428 382.765 31.2764 382.881 30.7546 383.115C30.2397 383.348 29.7866 383.671 29.3952 384.083C29.0039 384.495 28.695 384.968 28.4684 385.504C28.2487 386.033 28.1388 386.592 28.1388 387.183C28.1388 387.972 28.3208 388.703 28.6847 389.376C29.0554 390.049 29.56 390.591 30.1985 391.003C30.8439 391.408 31.5716 391.611 32.3817 391.611ZM43.4653 394V391.693L50.602 384.299C51.3641 383.496 51.9923 382.792 52.4866 382.188C52.9878 381.577 53.362 380.997 53.6091 380.447C53.8563 379.898 53.9798 379.315 53.9798 378.697C53.9798 377.996 53.8151 377.392 53.4855 376.884C53.156 376.369 52.7063 375.975 52.1365 375.7C51.5666 375.418 50.9247 375.278 50.2107 375.278C49.4555 375.278 48.7964 375.432 48.2334 375.741C47.6704 376.05 47.2379 376.486 46.9358 377.049C46.6337 377.612 46.4827 378.271 46.4827 379.026H43.4447C43.4447 377.742 43.7399 376.62 44.3303 375.659C44.9208 374.698 45.7309 373.953 46.7607 373.424C47.7906 372.888 48.9611 372.621 50.2725 372.621C51.5975 372.621 52.7646 372.885 53.7739 373.414C54.79 373.935 55.5829 374.65 56.1528 375.556C56.7226 376.455 57.0075 377.471 57.0075 378.604C57.0075 379.387 56.8599 380.152 56.5647 380.901C56.2764 381.649 55.7718 382.483 55.0509 383.403C54.33 384.316 53.3276 385.425 52.0438 386.729L47.8524 391.116V391.271H57.3474V394H43.4653ZM61.961 394L71.1677 375.793V375.638H60.5193V372.909H74.4632V375.731L65.2874 394H61.961ZM79.3214 394L88.5281 375.793V375.638H77.8796V372.909H91.8235V375.731L82.6477 394H79.3214ZM103.79 394L112.997 375.793V375.638H102.348V372.909H116.292V375.731L107.116 394H103.79ZM126.784 394.288C125.843 394.275 124.916 394.103 124.003 393.773C123.097 393.444 122.273 392.895 121.532 392.126C120.79 391.357 120.196 390.324 119.75 389.026C119.311 387.728 119.091 386.108 119.091 384.165C119.091 382.325 119.273 380.691 119.637 379.263C120.007 377.835 120.539 376.63 121.233 375.648C121.926 374.66 122.764 373.908 123.746 373.393C124.727 372.878 125.829 372.621 127.051 372.621C128.308 372.621 129.423 372.868 130.398 373.362C131.373 373.857 132.163 374.54 132.767 375.412C133.378 376.283 133.766 377.276 133.931 378.388H130.79C130.577 377.509 130.155 376.792 129.523 376.235C128.891 375.679 128.068 375.401 127.051 375.401C125.507 375.401 124.302 376.074 123.437 377.42C122.579 378.765 122.146 380.636 122.139 383.032H122.294C122.657 382.435 123.104 381.927 123.632 381.508C124.168 381.083 124.765 380.756 125.424 380.53C126.09 380.296 126.791 380.18 127.525 380.18C128.747 380.18 129.853 380.478 130.841 381.076C131.837 381.666 132.63 382.483 133.22 383.527C133.811 384.57 134.106 385.765 134.106 387.11C134.106 388.456 133.8 389.675 133.189 390.766C132.585 391.858 131.734 392.723 130.635 393.362C129.537 393.993 128.253 394.302 126.784 394.288ZM126.773 391.611C127.583 391.611 128.308 391.412 128.946 391.013C129.585 390.615 130.089 390.08 130.46 389.407C130.831 388.734 131.016 387.982 131.016 387.152C131.016 386.342 130.834 385.603 130.47 384.938C130.113 384.272 129.619 383.743 128.987 383.352C128.363 382.96 127.649 382.765 126.845 382.765C126.234 382.765 125.668 382.881 125.146 383.115C124.631 383.348 124.178 383.671 123.787 384.083C123.396 384.495 123.087 384.968 122.86 385.504C122.64 386.033 122.53 386.592 122.53 387.183C122.53 387.972 122.712 388.703 123.076 389.376C123.447 390.049 123.952 390.591 124.59 391.003C125.235 391.408 125.963 391.611 126.773 391.611ZM144.819 394.288C143.528 394.288 142.368 394.041 141.338 393.547C140.315 393.046 139.498 392.359 138.887 391.487C138.276 390.615 137.95 389.62 137.908 388.501H140.998C141.073 389.407 141.475 390.152 142.203 390.735C142.931 391.319 143.802 391.611 144.819 391.611C145.629 391.611 146.346 391.425 146.971 391.055C147.603 390.677 148.097 390.159 148.454 389.5C148.818 388.841 149 388.089 149 387.244C149 386.386 148.814 385.621 148.444 384.948C148.073 384.275 147.561 383.746 146.909 383.362C146.264 382.977 145.522 382.782 144.685 382.775C144.046 382.775 143.404 382.885 142.759 383.104C142.114 383.324 141.592 383.612 141.194 383.969L138.279 383.537L139.463 372.909H151.059V375.638H142.11L141.441 381.539H141.564C141.976 381.141 142.522 380.808 143.202 380.54C143.888 380.272 144.623 380.138 145.406 380.138C146.689 380.138 147.833 380.444 148.835 381.055C149.844 381.666 150.637 382.5 151.214 383.558C151.797 384.608 152.086 385.816 152.079 387.183C152.086 388.549 151.777 389.767 151.152 390.838C150.534 391.909 149.676 392.754 148.577 393.372C147.486 393.983 146.233 394.288 144.819 394.288ZM155.397 389.881V387.306L164.511 372.909H166.54V376.699H165.253L158.734 387.018V387.183H171.226V389.881H155.397ZM165.397 394V389.098L165.418 387.924V372.909H168.435V394H165.397ZM182.49 394V391.693L189.626 384.299C190.388 383.496 191.017 382.792 191.511 382.188C192.012 381.577 192.386 380.997 192.634 380.447C192.881 379.898 193.004 379.315 193.004 378.697C193.004 377.996 192.839 377.392 192.51 376.884C192.18 376.369 191.731 375.975 191.161 375.7C190.591 375.418 189.949 375.278 189.235 375.278C188.48 375.278 187.821 375.432 187.258 375.741C186.695 376.05 186.262 376.486 185.96 377.049C185.658 377.612 185.507 378.271 185.507 379.026H182.469C182.469 377.742 182.764 376.62 183.355 375.659C183.945 374.698 184.755 373.953 185.785 373.424C186.815 372.888 187.986 372.621 189.297 372.621C190.622 372.621 191.789 372.885 192.798 373.414C193.814 373.935 194.607 374.65 195.177 375.556C195.747 376.455 196.032 377.471 196.032 378.604C196.032 379.387 195.884 380.152 195.589 380.901C195.301 381.649 194.796 382.483 194.075 383.403C193.354 384.316 192.352 385.425 191.068 386.729L186.877 391.116V391.271H196.372V394H182.49ZM207.237 394.288C205.946 394.288 204.786 394.041 203.756 393.547C202.733 393.046 201.916 392.359 201.305 391.487C200.694 390.615 200.368 389.62 200.326 388.501H203.416C203.491 389.407 203.893 390.152 204.621 390.735C205.348 391.319 206.22 391.611 207.237 391.611C208.047 391.611 208.764 391.425 209.389 391.055C210.02 390.677 210.515 390.159 210.872 389.5C211.236 388.841 211.418 388.089 211.418 387.244C211.418 386.386 211.232 385.621 210.862 384.948C210.491 384.275 209.979 383.746 209.327 383.362C208.682 382.977 207.94 382.782 207.103 382.775C206.464 382.775 205.822 382.885 205.177 383.104C204.531 383.324 204.01 383.612 203.612 383.969L200.697 383.537L201.881 372.909H213.477V375.638H204.528L203.859 381.539H203.982C204.394 381.141 204.94 380.808 205.62 380.54C206.306 380.272 207.041 380.138 207.824 380.138C209.107 380.138 210.25 380.444 211.253 381.055C212.262 381.666 213.055 382.5 213.632 383.558C214.215 384.608 214.504 385.816 214.497 387.183C214.504 388.549 214.195 389.767 213.57 390.838C212.952 391.909 212.094 392.754 210.995 393.372C209.904 393.983 208.651 394.288 207.237 394.288ZM218.258 394V391.693L225.395 384.299C226.157 383.496 226.785 382.792 227.28 382.188C227.781 381.577 228.155 380.997 228.402 380.447C228.649 379.898 228.773 379.315 228.773 378.697C228.773 377.996 228.608 377.392 228.278 376.884C227.949 376.369 227.499 375.975 226.929 375.7C226.36 375.418 225.718 375.278 225.004 375.278C224.248 375.278 223.589 375.432 223.026 375.741C222.463 376.05 222.031 376.486 221.729 377.049C221.427 377.612 221.276 378.271 221.276 379.026H218.238C218.238 377.742 218.533 376.62 219.123 375.659C219.714 374.698 220.524 373.953 221.554 373.424C222.584 372.888 223.754 372.621 225.065 372.621C226.39 372.621 227.558 372.885 228.567 373.414C229.583 373.935 230.376 374.65 230.946 375.556C231.516 376.455 231.801 377.471 231.801 378.604C231.801 379.387 231.653 380.152 231.358 380.901C231.069 381.649 230.565 382.483 229.844 383.403C229.123 384.316 228.121 385.425 226.837 386.729L222.645 391.116V391.271H232.14V394H218.258ZM236.754 394L245.961 375.793V375.638H235.312V372.909H249.256V375.731L240.08 394H236.754ZM260.069 389.881V387.306L269.183 372.909H271.212V376.699H269.925L263.406 387.018V387.183H275.898V389.881H260.069ZM270.069 394V389.098L270.09 387.924V372.909H273.107V394H270.069ZM280.197 394L289.404 375.793V375.638H278.756V372.909H292.699V375.731L283.524 394H280.197ZM297.558 394L306.764 375.793V375.638H296.116V372.909H310.06V375.731L300.884 394H297.558ZM320.343 394.288C318.867 394.288 317.562 394.034 316.429 393.526C315.303 393.018 314.421 392.318 313.783 391.425C313.144 390.533 312.828 389.517 312.835 388.377C312.828 387.485 313.01 386.664 313.381 385.916C313.759 385.161 314.27 384.532 314.915 384.031C315.561 383.523 316.282 383.201 317.078 383.063V382.94C316.028 382.686 315.187 382.123 314.555 381.251C313.923 380.379 313.611 379.376 313.618 378.244C313.611 377.166 313.896 376.205 314.473 375.36C315.056 374.509 315.856 373.839 316.872 373.352C317.888 372.864 319.045 372.621 320.343 372.621C321.627 372.621 322.773 372.868 323.782 373.362C324.798 373.85 325.598 374.519 326.182 375.37C326.765 376.215 327.061 377.173 327.067 378.244C327.061 379.376 326.738 380.379 326.099 381.251C325.461 382.123 324.63 382.686 323.607 382.94V383.063C324.397 383.201 325.107 383.523 325.739 384.031C326.377 384.532 326.886 385.161 327.263 385.916C327.648 386.664 327.843 387.485 327.85 388.377C327.843 389.517 327.521 390.533 326.882 391.425C326.244 392.318 325.358 393.018 324.225 393.526C323.099 394.034 321.805 394.288 320.343 394.288ZM320.343 391.683C321.215 391.683 321.97 391.539 322.608 391.25C323.247 390.955 323.741 390.547 324.091 390.025C324.441 389.496 324.62 388.878 324.627 388.171C324.62 387.437 324.428 386.788 324.05 386.225C323.679 385.662 323.175 385.219 322.536 384.896C321.898 384.574 321.167 384.412 320.343 384.412C319.512 384.412 318.774 384.574 318.129 384.896C317.483 385.219 316.975 385.662 316.604 386.225C316.234 386.788 316.052 387.437 316.059 388.171C316.052 388.878 316.22 389.496 316.563 390.025C316.913 390.547 317.411 390.955 318.056 391.25C318.702 391.539 319.464 391.683 320.343 391.683ZM320.343 381.869C321.043 381.869 321.664 381.728 322.207 381.446C322.749 381.165 323.175 380.774 323.484 380.272C323.799 379.771 323.961 379.184 323.968 378.511C323.961 377.852 323.803 377.276 323.494 376.781C323.192 376.287 322.77 375.906 322.227 375.638C321.685 375.364 321.057 375.226 320.343 375.226C319.615 375.226 318.976 375.364 318.427 375.638C317.885 375.906 317.463 376.287 317.161 376.781C316.858 377.276 316.711 377.852 316.718 378.511C316.711 379.184 316.862 379.771 317.171 380.272C317.48 380.774 317.905 381.165 318.448 381.446C318.997 381.728 319.629 381.869 320.343 381.869Z" fill="white"/>
</g>
</g>
<path d="M52.3701 70.0485L55.5533 51.3747H60.6428L57.4588 70.0485H52.3701ZM75.8239 51.7844C74.3633 51.2553 72.8204 50.9898 71.2669 51.0003C66.2441 51.0003 62.7055 53.5299 62.6751 57.156C62.6474 59.8361 65.2017 61.3309 67.1301 62.2227C69.1089 63.1373 69.774 63.7204 69.7644 64.5369C69.7521 65.7869 68.1838 66.3576 66.7233 66.3576C64.6882 66.3576 63.6078 66.0718 61.9376 65.3792L61.2831 65.0828L60.5695 69.2578C61.7566 69.778 63.9527 70.2296 66.2317 70.2524C71.5756 70.2524 75.0445 67.7524 75.0846 63.8805C75.1036 61.7587 73.7507 60.1438 70.8163 58.8128C69.0394 57.9553 67.9514 57.3742 67.9628 56.5005C67.9628 55.7259 68.8841 54.8971 70.8744 54.8971C72.1784 54.8679 73.4742 55.1113 74.6787 55.6116L75.1341 55.8269L75.8239 51.7844ZM88.8994 51.3747H84.9836C83.7707 51.3747 82.8628 51.7063 82.3302 52.9163L74.8035 69.9533H80.1608C80.1608 69.9533 81.0183 67.6876 81.2155 67.1903L87.6341 67.1979C87.7837 67.842 88.2439 69.9533 88.2439 69.9533H93L88.8994 51.3747ZM82.6732 63.3793C83.0933 62.3046 84.6987 58.1659 84.6987 58.1659C84.6682 58.2154 85.116 57.0855 85.3723 56.3852L85.7162 57.9935C85.7162 57.9935 86.6899 62.4456 86.8929 63.3793H82.6732ZM48.0513 51.3747L43.0857 64.0644L42.5569 61.4853C41.6327 58.5127 38.7526 55.2924 35.5323 53.6804L40.0731 69.9533L45.4389 69.9475L53.4239 51.3747H48.0266" fill="#1B2034"/>
<path d="M38.2279 51.3744H30.0657L30 51.7622C36.3777 53.3066 40.5973 57.0375 42.3494 61.5192L40.5669 52.9445C40.2591 51.7641 39.3674 51.4116 38.2632 51.3706" fill="#1B2034"/>
<g opacity="0.8">
<rect x="267.7" y="37.7" width="56.6" height="42.7905" rx="6.55" fill="white" fill-opacity="0.15" stroke="white" stroke-width="1.4"/>
<path d="M267.906 50.5938H283.313C285.315 50.5938 286.938 52.2167 286.938 54.2187V61.2422M286.938 80.3188V71.8906M286.938 71.8906V61.2422M286.938 71.8906H267.906M286.938 61.2422H267.906" stroke="white" stroke-width="1.4"/>
<path d="M324.094 50.5938H305.969M305.969 50.5938V61.2422M305.969 50.5938V37.9062M305.969 80.3188V71.8906M305.969 71.8906V61.2422M305.969 71.8906H324.094M305.969 61.2422H324.094" stroke="white" stroke-width="1.4"/>
</g>
<defs>
<filter id="filter0_d_2383_473" x="18.8469" y="482.942" width="160.978" height="19.2074" filterUnits="userSpaceOnUse" color-interpolation-filters="sRGB">
<feFlood flood-opacity="0" result="BackgroundImageFix"/>
<feColorMatrix in="SourceAlpha" type="matrix" values="0 0 0 0 0 0 0 0 0 0 0 0 0 0 0 0 0 0 127 0" result="hardAlpha"/>
<feOffset dy="4"/>
<feGaussianBlur stdDeviation="2"/>
<feComposite in2="hardAlpha" operator="out"/>
<feColorMatrix type="matrix" values="0 0 0 0 0.491667 0 0 0 0 0.491667 0 0 0 0 0.491667 0 0 0 0.25 0"/>
<feBlend mode="normal" in2="BackgroundImageFix" result="effect1_dropShadow_2383_473"/>
<feBlend mode="normal" in="SourceGraphic" in2="effect1_dropShadow_2383_473" result="shape"/>
</filter>
<filter id="filter1_d_2383_473" x="247.373" y="483.091" width="95.2607" height="19.0902" filterUnits="userSpaceOnUse" color-interpolation-filters="sRGB">
<feFlood flood-opacity="0" result="BackgroundImageFix"/>
<feColorMatrix in="SourceAlpha" type="matrix" values="0 0 0 0 0 0 0 0 0 0 0 0 0 0 0 0 0 0 127 0" result="hardAlpha"/>
<feOffset dy="4"/>
<feGaussianBlur stdDeviation="2"/>
<feComposite in2="hardAlpha" operator="out"/>
<feColorMatrix type="matrix" values="0 0 0 0 0.491667 0 0 0 0 0.491667 0 0 0 0 0.491667 0 0 0 0.25 0"/>
<feBlend mode="normal" in2="BackgroundImageFix" result="effect1_dropShadow_2383_473"/>
<feBlend mode="normal" in="SourceGraphic" in2="effect1_dropShadow_2383_473" result="shape"/>
</filter>
<filter id="filter2_d_2383_473" x="19.598" y="508.872" width="187.56" height="23.3693" filterUnits="userSpaceOnUse" color-interpolation-filters="sRGB">
<feFlood flood-opacity="0" result="BackgroundImageFix"/>
<feColorMatrix in="SourceAlpha" type="matrix" values="0 0 0 0 0 0 0 0 0 0 0 0 0 0 0 0 0 0 127 0" result="hardAlpha"/>
<feOffset dy="4"/>
<feGaussianBlur stdDeviation="2"/>
<feComposite in2="hardAlpha" operator="out"/>
<feColorMatrix type="matrix" values="0 0 0 0 0.375 0 0 0 0 0.375 0 0 0 0 0.375 0 0 0 0.25 0"/>
<feBlend mode="normal" in2="BackgroundImageFix" result="effect1_dropShadow_2383_473"/>
<feBlend mode="normal" in="SourceGraphic" in2="effect1_dropShadow_2383_473" result="shape"/>
</filter>
<filter id="filter3_d_2383_473" x="248.129" y="508.773" width="64.0706" height="25.4148" filterUnits="userSpaceOnUse" color-interpolation-filters="sRGB">
<feFlood flood-opacity="0" result="BackgroundImageFix"/>
<feColorMatrix in="SourceAlpha" type="matrix" values="0 0 0 0 0 0 0 0 0 0 0 0 0 0 0 0 0 0 127 0" result="hardAlpha"/>
<feOffset dy="4"/>
<feGaussianBlur stdDeviation="2"/>
<feComposite in2="hardAlpha" operator="out"/>
<feColorMatrix type="matrix" values="0 0 0 0 0.375 0 0 0 0 0.375 0 0 0 0 0.375 0 0 0 0.25 0"/>
<feBlend mode="normal" in2="BackgroundImageFix" result="effect1_dropShadow_2383_473"/>
<feBlend mode="normal" in="SourceGraphic" in2="effect1_dropShadow_2383_473" result="shape"/>
</filter>
<filter id="filter4_d_2383_473" x="19.8469" y="341.942" width="102.573" height="19.2394" filterUnits="userSpaceOnUse" color-interpolation-filters="sRGB">
<feFlood flood-opacity="0" result="BackgroundImageFix"/>
<feColorMatrix in="SourceAlpha" type="matrix" values="0 0 0 0 0 0 0 0 0 0 0 0 0 0 0 0 0 0 127 0" result="hardAlpha"/>
<feOffset dy="4"/>
<feGaussianBlur stdDeviation="2"/>
<feComposite in2="hardAlpha" operator="out"/>
<feColorMatrix type="matrix" values="0 0 0 0 0.491667 0 0 0 0 0.491667 0 0 0 0 0.491667 0 0 0 0.25 0"/>
<feBlend mode="normal" in2="BackgroundImageFix" result="effect1_dropShadow_2383_473"/>
<feBlend mode="normal" in="SourceGraphic" in2="effect1_dropShadow_2383_473" result="shape"/>
</filter>
<filter id="filter5_d_2383_473" x="19.3213" y="372.621" width="313.907" height="32.4441" filterUnits="userSpaceOnUse" color-interpolation-filters="sRGB">
<feFlood flood-opacity="0" result="BackgroundImageFix"/>
<feColorMatrix in="SourceAlpha" type="matrix" values="0 0 0 0 0 0 0 0 0 0 0 0 0 0 0 0 0 0 127 0" result="hardAlpha"/>
<feOffset dy="5.37795"/>
<feGaussianBlur stdDeviation="2.68897"/>
<feComposite in2="hardAlpha" operator="out"/>
<feColorMatrix type="matrix" values="0 0 0 0 0.241667 0 0 0 0 0.241667 0 0 0 0 0.241667 0 0 0 0.15 0"/>
<feBlend mode="normal" in2="BackgroundImageFix" result="effect1_dropShadow_2383_473"/>
<feBlend mode="normal" in="SourceGraphic" in2="effect1_dropShadow_2383_473" result="shape"/>
</filter>
<linearGradient id="paint0_linear_2383_473" x1="21.0581" y1="15" x2="418.323" y2="490.52" gradientUnits="userSpaceOnUse">
<stop stop-color="#1A2036"/>
<stop offset="1" stop-color="white" stop-opacity="0.35"/>
</linearGradient>
</defs>
</svg>
