<svg width="355" height="555" viewBox="0 0 355 555" fill="none" xmlns="http://www.w3.org/2000/svg">
<rect width="355" height="555" fill="url(#paint0_linear_2383_1165)"/>
<mask id="mask0_2383_1165" style="mask-type:alpha" maskUnits="userSpaceOnUse" x="0" y="0" width="355" height="555">
<rect width="355" height="555" fill="#8CFFF8"/>
<rect x="1" y="1" width="353" height="553" stroke="url(#paint1_linear_2383_1165)" stroke-opacity="0.5" stroke-width="2"/>
</mask>
<g mask="url(#mask0_2383_1165)">
<path d="M0 446H355V555H0V446Z" fill="#1B2034"/>
<g filter="url(#filter0_di_2383_1165)">
<path d="M31.598 508.053H34.2614L38.892 519.36H39.0625L43.6932 508.053H46.3565V522.598H44.2685V512.073H44.1335L39.8438 522.577H38.1108L33.821 512.065H33.6861V522.598H31.598V508.053ZM49.3768 522.598V511.689H51.5004V522.598H49.3768ZM50.4492 510.006C50.0799 510.006 49.7627 509.883 49.4975 509.636C49.2371 509.386 49.1069 509.087 49.1069 508.742C49.1069 508.391 49.2371 508.093 49.4975 507.847C49.7627 507.596 50.0799 507.47 50.4492 507.47C50.8185 507.47 51.1334 507.596 51.3938 507.847C51.659 508.093 51.7915 508.391 51.7915 508.742C51.7915 509.087 51.659 509.386 51.3938 509.636C51.1334 509.883 50.8185 510.006 50.4492 510.006ZM58.9524 522.818C57.8965 522.818 56.9875 522.579 56.2251 522.101C55.4676 521.618 54.8852 520.953 54.478 520.105C54.0708 519.258 53.8672 518.287 53.8672 517.193C53.8672 516.085 54.0755 515.108 54.4922 514.26C54.9089 513.408 55.496 512.743 56.2536 512.264C57.0111 511.786 57.9036 511.547 58.9311 511.547C59.7597 511.547 60.4983 511.701 61.147 512.009C61.7957 512.312 62.3189 512.738 62.7166 513.287C63.1191 513.836 63.3582 514.478 63.4339 515.212H61.3672C61.2536 514.7 60.9931 514.26 60.5859 513.891C60.1835 513.521 59.6437 513.337 58.9666 513.337C58.3748 513.337 57.8563 513.493 57.4112 513.806C56.9709 514.113 56.6276 514.554 56.3814 515.127C56.1352 515.695 56.0121 516.367 56.0121 517.144C56.0121 517.939 56.1328 518.626 56.3743 519.203C56.6158 519.781 56.9567 520.228 57.397 520.546C57.8421 520.863 58.3653 521.021 58.9666 521.021C59.3691 521.021 59.7337 520.948 60.0604 520.801C60.3918 520.65 60.6688 520.434 60.8913 520.155C61.1186 519.876 61.2772 519.539 61.3672 519.146H63.4339C63.3582 519.852 63.1286 520.482 62.745 521.036C62.3615 521.59 61.8478 522.025 61.2038 522.342C60.5646 522.66 59.8142 522.818 58.9524 522.818ZM67.8285 516.121V522.598H65.7049V508.053H67.8001V513.465H67.935C68.1907 512.878 68.5813 512.411 69.1069 512.065C69.6325 511.72 70.319 511.547 71.1665 511.547C71.9147 511.547 72.5681 511.701 73.1268 512.009C73.6902 512.316 74.1258 512.776 74.4336 513.386C74.7461 513.993 74.9023 514.75 74.9023 515.659V522.598H72.7788V515.915C72.7788 515.115 72.5728 514.494 72.1609 514.054C71.7489 513.609 71.176 513.386 70.4421 513.386C69.9402 513.386 69.4904 513.493 69.0927 513.706C68.6997 513.919 68.3896 514.232 68.1623 514.644C67.9397 515.051 67.8285 515.543 67.8285 516.121ZM80.9109 522.84C80.2196 522.84 79.5946 522.712 79.0359 522.456C78.4772 522.196 78.0344 521.819 77.7077 521.327C77.3858 520.834 77.2248 520.231 77.2248 519.516C77.2248 518.9 77.3432 518.394 77.5799 517.996C77.8166 517.598 78.1362 517.283 78.5387 517.051C78.9412 516.819 79.391 516.644 79.8881 516.526C80.3853 516.407 80.8919 516.317 81.408 516.256C82.0614 516.18 82.5917 516.119 82.9989 516.071C83.4061 516.019 83.7021 515.936 83.8867 515.823C84.0714 515.709 84.1637 515.524 84.1637 515.269V515.219C84.1637 514.599 83.9885 514.118 83.6381 513.777C83.2925 513.436 82.7764 513.266 82.0898 513.266C81.3749 513.266 80.8114 513.424 80.3995 513.742C79.9923 514.054 79.7106 514.402 79.5543 514.786L77.5586 514.331C77.7953 513.668 78.141 513.133 78.5955 512.726C79.0548 512.314 79.5827 512.016 80.1793 511.831C80.7759 511.642 81.4033 511.547 82.0614 511.547C82.497 511.547 82.9587 511.599 83.4464 511.703C83.9388 511.803 84.3981 511.987 84.8242 512.257C85.2551 512.527 85.6078 512.913 85.8825 513.415C86.1571 513.912 86.2944 514.558 86.2944 515.354V522.598H84.2205V521.107H84.1353C83.998 521.381 83.792 521.651 83.5174 521.916C83.2428 522.181 82.89 522.402 82.4592 522.577C82.0283 522.752 81.5122 522.84 80.9109 522.84ZM81.3725 521.135C81.9596 521.135 82.4615 521.019 82.8782 520.787C83.2996 520.555 83.6192 520.252 83.837 519.878C84.0595 519.499 84.1708 519.094 84.1708 518.663V517.257C84.0951 517.333 83.9483 517.404 83.7305 517.47C83.5174 517.532 83.2736 517.586 82.9989 517.634C82.7243 517.676 82.4568 517.717 82.1964 517.754C81.936 517.788 81.7182 517.816 81.543 517.84C81.131 517.892 80.7546 517.979 80.4137 518.102C80.0775 518.226 79.8076 518.403 79.604 518.635C79.4052 518.862 79.3058 519.165 79.3058 519.544C79.3058 520.07 79.4999 520.467 79.8881 520.737C80.2764 521.003 80.7712 521.135 81.3725 521.135ZM93.8246 522.818C92.7498 522.818 91.8241 522.589 91.0476 522.129C90.2758 521.665 89.6792 521.014 89.2578 520.176C88.8411 519.333 88.6328 518.346 88.6328 517.215C88.6328 516.097 88.8411 515.112 89.2578 514.26C89.6792 513.408 90.2663 512.743 91.0192 512.264C91.7768 511.786 92.6622 511.547 93.6754 511.547C94.291 511.547 94.8875 511.649 95.4652 511.852C96.0429 512.056 96.5613 512.376 97.0206 512.811C97.4799 513.247 97.8421 513.813 98.1072 514.509C98.3724 515.2 98.505 516.04 98.505 517.03V517.783H89.8331V516.192H96.424C96.424 515.633 96.3104 515.138 96.0831 514.708C95.8558 514.272 95.5362 513.929 95.1243 513.678C94.7171 513.427 94.2389 513.301 93.6896 513.301C93.093 513.301 92.5722 513.448 92.1271 513.742C91.6868 514.03 91.3459 514.409 91.1044 514.878C90.8677 515.342 90.7493 515.846 90.7493 516.391V517.634C90.7493 518.363 90.8771 518.983 91.1328 519.494C91.3932 520.006 91.7554 520.396 92.2195 520.666C92.6835 520.931 93.2256 521.064 93.8459 521.064C94.2483 521.064 94.6153 521.007 94.9467 520.894C95.2782 520.775 95.5646 520.6 95.8061 520.368C96.0476 520.136 96.2322 519.85 96.3601 519.509L98.37 519.871C98.209 520.463 97.9202 520.981 97.5036 521.426C97.0916 521.867 96.5732 522.21 95.9482 522.456C95.3279 522.698 94.62 522.818 93.8246 522.818ZM102.985 508.053V522.598H100.861V508.053H102.985ZM112.534 522.598H110.204L115.439 508.053H117.974L123.208 522.598H120.879L116.767 510.695H116.653L112.534 522.598ZM112.924 516.902H120.481V518.749H112.924V516.902ZM127.262 516.121V522.598H125.138V511.689H127.177V513.465H127.312C127.563 512.887 127.956 512.423 128.491 512.073C129.031 511.722 129.71 511.547 130.529 511.547C131.272 511.547 131.924 511.703 132.482 512.016C133.041 512.324 133.474 512.783 133.782 513.394C134.09 514.004 134.244 514.76 134.244 515.659V522.598H132.12V515.915C132.12 515.124 131.914 514.506 131.502 514.061C131.09 513.611 130.524 513.386 129.805 513.386C129.312 513.386 128.874 513.493 128.491 513.706C128.112 513.919 127.811 514.232 127.589 514.644C127.371 515.051 127.262 515.543 127.262 516.121ZM141.175 522.811C140.295 522.811 139.509 522.586 138.817 522.136C138.131 521.682 137.591 521.036 137.198 520.198C136.81 519.355 136.616 518.344 136.616 517.165C136.616 515.986 136.812 514.977 137.205 514.139C137.603 513.301 138.147 512.66 138.839 512.215C139.53 511.77 140.314 511.547 141.19 511.547C141.867 511.547 142.411 511.661 142.823 511.888C143.24 512.11 143.562 512.371 143.789 512.669C144.021 512.967 144.201 513.23 144.329 513.458H144.457V508.053H146.58V522.598H144.506V520.901H144.329C144.201 521.133 144.016 521.398 143.775 521.696C143.538 521.994 143.211 522.255 142.795 522.477C142.378 522.7 141.838 522.811 141.175 522.811ZM141.644 521C142.255 521 142.771 520.839 143.192 520.517C143.619 520.19 143.941 519.738 144.158 519.161C144.381 518.583 144.492 517.911 144.492 517.144C144.492 516.386 144.383 515.723 144.165 515.155C143.948 514.587 143.628 514.144 143.207 513.827C142.785 513.51 142.264 513.351 141.644 513.351C141.005 513.351 140.472 513.517 140.046 513.848C139.62 514.18 139.298 514.632 139.08 515.205C138.867 515.778 138.761 516.424 138.761 517.144C138.761 517.873 138.87 518.529 139.087 519.111C139.305 519.693 139.627 520.155 140.053 520.496C140.484 520.832 141.014 521 141.644 521ZM149.611 522.598V511.689H151.664V513.422H151.777C151.976 512.835 152.327 512.373 152.828 512.037C153.335 511.696 153.908 511.526 154.547 511.526C154.68 511.526 154.836 511.53 155.016 511.54C155.201 511.549 155.345 511.561 155.449 511.575V513.607C155.364 513.583 155.212 513.557 154.995 513.529C154.777 513.495 154.559 513.479 154.341 513.479C153.839 513.479 153.392 513.585 152.999 513.798C152.611 514.007 152.303 514.298 152.076 514.672C151.848 515.041 151.735 515.463 151.735 515.936V522.598H149.611ZM161.598 522.818C160.523 522.818 159.598 522.589 158.821 522.129C158.049 521.665 157.453 521.014 157.031 520.176C156.615 519.333 156.406 518.346 156.406 517.215C156.406 516.097 156.615 515.112 157.031 514.26C157.453 513.408 158.04 512.743 158.793 512.264C159.55 511.786 160.436 511.547 161.449 511.547C162.064 511.547 162.661 511.649 163.239 511.852C163.816 512.056 164.335 512.376 164.794 512.811C165.253 513.247 165.616 513.813 165.881 514.509C166.146 515.2 166.278 516.04 166.278 517.03V517.783H157.607V516.192H164.197C164.197 515.633 164.084 515.138 163.857 514.708C163.629 514.272 163.31 513.929 162.898 513.678C162.491 513.427 162.012 513.301 161.463 513.301C160.866 513.301 160.346 513.448 159.901 513.742C159.46 514.03 159.119 514.409 158.878 514.878C158.641 515.342 158.523 515.846 158.523 516.391V517.634C158.523 518.363 158.651 518.983 158.906 519.494C159.167 520.006 159.529 520.396 159.993 520.666C160.457 520.931 160.999 521.064 161.619 521.064C162.022 521.064 162.389 521.007 162.72 520.894C163.052 520.775 163.338 520.6 163.58 520.368C163.821 520.136 164.006 519.85 164.134 519.509L166.143 519.871C165.982 520.463 165.694 520.981 165.277 521.426C164.865 521.867 164.347 522.21 163.722 522.456C163.101 522.698 162.393 522.818 161.598 522.818ZM175.545 518.074V511.689H177.676V522.598H175.588V520.709H175.474C175.223 521.291 174.821 521.777 174.267 522.165C173.717 522.548 173.033 522.74 172.214 522.74C171.513 522.74 170.893 522.586 170.353 522.279C169.818 521.966 169.397 521.504 169.089 520.894C168.786 520.283 168.635 519.528 168.635 518.628V511.689H170.758V518.372C170.758 519.116 170.964 519.708 171.376 520.148C171.788 520.588 172.323 520.808 172.981 520.808C173.379 520.808 173.774 520.709 174.167 520.51C174.565 520.311 174.894 520.011 175.154 519.608C175.42 519.206 175.55 518.694 175.545 518.074ZM180.302 522.598V521.142L186.211 513.635V513.536H180.494V511.689H188.86V513.237L183.178 520.652V520.752H189.059V522.598H180.302ZM191.337 522.598V521.142L197.246 513.635V513.536H191.529V511.689H199.895V513.237L194.213 520.652V520.752H200.094V522.598H191.337ZM205.774 522.84C205.083 522.84 204.458 522.712 203.899 522.456C203.34 522.196 202.898 521.819 202.571 521.327C202.249 520.834 202.088 520.231 202.088 519.516C202.088 518.9 202.206 518.394 202.443 517.996C202.68 517.598 203 517.283 203.402 517.051C203.804 516.819 204.254 516.644 204.751 516.526C205.249 516.407 205.755 516.317 206.271 516.256C206.925 516.18 207.455 516.119 207.862 516.071C208.269 516.019 208.565 515.936 208.75 515.823C208.935 515.709 209.027 515.524 209.027 515.269V515.219C209.027 514.599 208.852 514.118 208.501 513.777C208.156 513.436 207.64 513.266 206.953 513.266C206.238 513.266 205.675 513.424 205.263 513.742C204.856 514.054 204.574 514.402 204.418 514.786L202.422 514.331C202.659 513.668 203.004 513.133 203.459 512.726C203.918 512.314 204.446 512.016 205.043 511.831C205.639 511.642 206.267 511.547 206.925 511.547C207.36 511.547 207.822 511.599 208.31 511.703C208.802 511.803 209.261 511.987 209.688 512.257C210.118 512.527 210.471 512.913 210.746 513.415C211.02 513.912 211.158 514.558 211.158 515.354V522.598H209.084V521.107H208.999C208.861 521.381 208.655 521.651 208.381 521.916C208.106 522.181 207.753 522.402 207.322 522.577C206.892 522.752 206.375 522.84 205.774 522.84ZM206.236 521.135C206.823 521.135 207.325 521.019 207.741 520.787C208.163 520.555 208.482 520.252 208.7 519.878C208.923 519.499 209.034 519.094 209.034 518.663V517.257C208.958 517.333 208.812 517.404 208.594 517.47C208.381 517.532 208.137 517.586 207.862 517.634C207.588 517.676 207.32 517.717 207.06 517.754C206.799 517.788 206.581 517.816 206.406 517.84C205.994 517.892 205.618 517.979 205.277 518.102C204.941 518.226 204.671 518.403 204.467 518.635C204.268 518.862 204.169 519.165 204.169 519.544C204.169 520.07 204.363 520.467 204.751 520.737C205.14 521.003 205.634 521.135 206.236 521.135Z" fill="white"/>
</g>
<path d="M284.37 511.049L287.553 492.375H292.643L289.459 511.049H284.37ZM307.824 492.784C306.363 492.255 304.82 491.99 303.267 492C298.244 492 294.706 494.53 294.675 498.156C294.647 500.836 297.202 502.331 299.13 503.223C301.109 504.137 301.774 504.72 301.764 505.537C301.752 506.787 300.184 507.358 298.723 507.358C296.688 507.358 295.608 507.072 293.938 506.379L293.283 506.083L292.569 510.258C293.757 510.778 295.953 511.23 298.232 511.252C303.576 511.252 307.045 508.752 307.085 504.88C307.104 502.759 305.751 501.144 302.816 499.813C301.039 498.955 299.951 498.374 299.963 497.5C299.963 496.726 300.884 495.897 302.874 495.897C304.178 495.868 305.474 496.111 306.679 496.612L307.134 496.827L307.824 492.784ZM320.899 492.375H316.984C315.771 492.375 314.863 492.706 314.33 493.916L306.803 510.953H312.161C312.161 510.953 313.018 508.688 313.215 508.19L319.634 508.198C319.784 508.842 320.244 510.953 320.244 510.953H325L320.899 492.375ZM314.673 504.379C315.093 503.305 316.699 499.166 316.699 499.166C316.668 499.215 317.116 498.085 317.372 497.385L317.716 498.993C317.716 498.993 318.69 503.446 318.893 504.379H314.673ZM280.051 492.375L275.086 505.064L274.557 502.485C273.633 499.513 270.753 496.292 267.532 494.68L272.073 510.953L277.439 510.948L285.424 492.375H280.027" fill="white"/>
<path d="M270.228 492.374H262.066L262 492.762C268.378 494.307 272.597 498.038 274.349 502.519L272.567 493.945C272.259 492.764 271.367 492.412 270.263 492.371" fill="white"/>
<g filter="url(#filter1_di_2383_1165)">
<path d="M40.2592 484.078H38.5973C38.5334 483.723 38.4144 483.411 38.2404 483.141C38.0664 482.871 37.8533 482.642 37.6012 482.454C37.3491 482.266 37.0668 482.124 36.7543 482.028C36.4453 481.932 36.1168 481.884 35.7688 481.884C35.1403 481.884 34.5774 482.042 34.0803 482.358C33.5866 482.674 33.196 483.137 32.9084 483.748C32.6243 484.359 32.4822 485.105 32.4822 485.985C32.4822 486.873 32.6243 487.622 32.9084 488.233C33.196 488.844 33.5884 489.306 34.0856 489.618C34.5827 489.931 35.142 490.087 35.7635 490.087C36.108 490.087 36.4347 490.041 36.7436 489.948C37.0561 489.853 37.3384 489.712 37.5906 489.528C37.8427 489.343 38.0558 489.117 38.2298 488.851C38.4073 488.581 38.5298 488.272 38.5973 487.924L40.2592 487.93C40.1705 488.466 39.9982 488.959 39.7425 489.41C39.4904 489.858 39.1655 490.245 38.7678 490.572C38.3736 490.895 37.9226 491.145 37.4148 491.323C36.907 491.5 36.353 491.589 35.7528 491.589C34.8082 491.589 33.9666 491.365 33.228 490.918C32.4893 490.467 31.907 489.822 31.4808 488.984C31.0582 488.146 30.8469 487.147 30.8469 485.985C30.8469 484.821 31.06 483.821 31.4862 482.986C31.9123 482.148 32.4947 481.506 33.2333 481.058C33.9719 480.607 34.8118 480.382 35.7528 480.382C36.3317 480.382 36.8714 480.465 37.3722 480.632C37.8764 480.795 38.3292 481.037 38.7305 481.356C39.1317 481.673 39.4638 482.06 39.7266 482.518C39.9893 482.972 40.1669 483.492 40.2592 484.078ZM43.0771 491.44H41.3299L45.2557 480.531H47.1573L51.0831 491.44H49.3359L46.2518 482.512H46.1665L43.0771 491.44ZM43.37 487.168H49.0376V488.553H43.37V487.168ZM52.6585 491.44V480.531H56.547C57.3921 480.531 58.0935 480.676 58.651 480.968C59.2121 481.259 59.6311 481.662 59.9081 482.177C60.1851 482.688 60.3236 483.279 60.3236 483.951C60.3236 484.618 60.1833 485.206 59.9028 485.714C59.6258 486.218 59.2068 486.61 58.6457 486.891C58.0882 487.171 57.3868 487.312 56.5416 487.312H53.596V485.895H56.3925C56.9252 485.895 57.3584 485.818 57.6922 485.666C58.0296 485.513 58.2764 485.291 58.4326 485C58.5889 484.709 58.667 484.359 58.667 483.951C58.667 483.539 58.5871 483.182 58.4273 482.88C58.271 482.578 58.0242 482.347 57.6869 482.187C57.3531 482.024 56.9145 481.942 56.3712 481.942H54.3044V491.44H52.6585ZM58.0438 486.518L60.7391 491.44H58.8641L56.222 486.518H58.0438ZM65.858 491.44H62.3264V480.531H65.9699C67.0388 480.531 67.9568 480.749 68.7238 481.186C69.4909 481.619 70.0786 482.242 70.4869 483.056C70.8989 483.865 71.1048 484.837 71.1048 485.969C71.1048 487.106 70.8971 488.082 70.4816 488.899C70.0697 489.716 69.4731 490.344 68.6919 490.785C67.9106 491.222 66.966 491.44 65.858 491.44ZM63.9724 490.002H65.7675C66.5985 490.002 67.2892 489.845 67.8396 489.533C68.39 489.217 68.8019 488.761 69.0754 488.164C69.3488 487.564 69.4855 486.832 69.4855 485.969C69.4855 485.114 69.3488 484.387 69.0754 483.791C68.8055 483.194 68.4024 482.741 67.8662 482.432C67.33 482.124 66.6642 481.969 65.8687 481.969H63.9724V490.002ZM77.1214 491.44V480.531H78.7673V485.272H84.2059V480.531H85.8572V491.44H84.2059V486.683H78.7673V491.44H77.1214ZM97.7304 485.985C97.7304 487.15 97.5173 488.152 97.0912 488.99C96.665 489.824 96.0809 490.467 95.3387 490.918C94.6001 491.365 93.7602 491.589 92.8192 491.589C91.8746 491.589 91.0312 491.365 90.289 490.918C89.5503 490.467 88.968 489.822 88.5418 488.984C88.1157 488.146 87.9026 487.147 87.9026 485.985C87.9026 484.821 88.1157 483.821 88.5418 482.986C88.968 482.148 89.5503 481.506 90.289 481.058C91.0312 480.607 91.8746 480.382 92.8192 480.382C93.7602 480.382 94.6001 480.607 95.3387 481.058C96.0809 481.506 96.665 482.148 97.0912 482.986C97.5173 483.821 97.7304 484.821 97.7304 485.985ZM96.1004 485.985C96.1004 485.098 95.9566 484.35 95.6689 483.743C95.3849 483.132 94.9942 482.67 94.4971 482.358C94.0035 482.042 93.4442 481.884 92.8192 481.884C92.1906 481.884 91.6295 482.042 91.1359 482.358C90.6423 482.67 90.2517 483.132 89.964 483.743C89.68 484.35 89.5379 485.098 89.5379 485.985C89.5379 486.873 89.68 487.622 89.964 488.233C90.2517 488.841 90.6423 489.302 91.1359 489.618C91.6295 489.931 92.1906 490.087 92.8192 490.087C93.4442 490.087 94.0035 489.931 94.4971 489.618C94.9942 489.302 95.3849 488.841 95.6689 488.233C95.9566 487.622 96.1004 486.873 96.1004 485.985ZM99.7825 491.44V480.531H101.428V490.023H106.372V491.44H99.7825ZM111.781 491.44H108.249V480.531H111.893C112.962 480.531 113.88 480.749 114.647 481.186C115.414 481.619 116.001 482.242 116.41 483.056C116.822 483.865 117.028 484.837 117.028 485.969C117.028 487.106 116.82 488.082 116.404 488.899C115.993 489.716 115.396 490.344 114.615 490.785C113.833 491.222 112.889 491.44 111.781 491.44ZM109.895 490.002H111.69C112.521 490.002 113.212 489.845 113.762 489.533C114.313 489.217 114.725 488.761 114.998 488.164C115.272 487.564 115.408 486.832 115.408 485.969C115.408 485.114 115.272 484.387 114.998 483.791C114.728 483.194 114.325 482.741 113.789 482.432C113.253 482.124 112.587 481.969 111.792 481.969H109.895V490.002ZM119.074 491.44V480.531H125.914V481.948H120.72V485.272H125.557V486.683H120.72V490.023H125.978V491.44H119.074ZM128.113 491.44V480.531H132.001C132.846 480.531 133.548 480.676 134.105 480.968C134.666 481.259 135.085 481.662 135.362 482.177C135.639 482.688 135.778 483.279 135.778 483.951C135.778 484.618 135.637 485.206 135.357 485.714C135.08 486.218 134.661 486.61 134.1 486.891C133.542 487.171 132.841 487.312 131.996 487.312H129.05V485.895H131.847C132.379 485.895 132.813 485.818 133.146 485.666C133.484 485.513 133.73 485.291 133.887 485C134.043 484.709 134.121 484.359 134.121 483.951C134.121 483.539 134.041 483.182 133.881 482.88C133.725 482.578 133.478 482.347 133.141 482.187C132.807 482.024 132.369 481.942 131.825 481.942H129.759V491.44H128.113ZM133.498 486.518L136.193 491.44H134.318L131.676 486.518H133.498ZM150.555 480.531V491.44H149.043L143.497 483.439H143.396V491.44H141.75V480.531H143.274L148.824 488.542H148.925V480.531H150.555ZM153.878 491.44H152.131L156.056 480.531H157.958L161.884 491.44H160.137L157.053 482.512H156.967L153.878 491.44ZM154.171 487.168H159.838V488.553H154.171V487.168ZM163.459 480.531H165.457L168.93 489.011H169.058L172.531 480.531H174.528V491.44H172.962V483.546H172.861L169.644 491.424H168.344L165.127 483.54H165.025V491.44H163.459V480.531ZM176.921 491.44V480.531H183.761V481.948H178.567V485.272H183.404V486.683H178.567V490.023H183.825V491.44H176.921Z" fill="#F3F3F3" fill-opacity="0.8" shape-rendering="crispEdges"/>
</g>
<path d="M-153.428 295.756C-125.96 253.977 -101.996 269.732 -74.528 227.954C-47.0602 186.175 -71.0246 170.419 -43.5648 128.652C-16.105 86.8856 7.86727 102.629 35.335 60.8502C62.8027 19.0713 38.8383 3.31587 66.306 -38.463C93.7737 -80.2418 117.738 -64.4864 145.214 -106.277C172.689 -148.068 148.717 -163.812 176.185 -205.59" stroke="#1645FF" stroke-opacity="0.35" stroke-width="0.634507" stroke-miterlimit="10"/>
<path d="M-176.486 277.418C-149.019 235.64 -125.054 251.395 -97.5866 209.616C-70.1188 167.837 -94.0832 152.082 -66.6234 110.315C-39.1636 68.5482 -15.1913 84.2917 12.2764 42.5128C39.7441 0.733932 15.7797 -15.0215 43.2474 -56.8004C70.7152 -98.5792 94.6795 -82.8238 122.155 -124.615C149.631 -166.406 125.658 -182.149 153.126 -223.928" stroke="#1645FF" stroke-opacity="0.35" stroke-width="0.634507" stroke-miterlimit="10"/>
<path d="M-251.269 229.281C-223.801 187.502 -199.836 203.257 -172.369 161.479C-144.901 119.7 -168.865 103.944 -141.406 62.1773C-113.946 20.4105 -89.9735 36.154 -62.5058 -5.6249C-35.0381 -47.4038 -59.0025 -63.1592 -31.5348 -104.938C-4.06708 -146.717 19.8973 -130.961 47.3729 -172.752C74.8485 -214.543 50.8763 -230.287 78.344 -272.066" stroke="#1645FF" stroke-opacity="0.35" stroke-width="0.634507" stroke-miterlimit="10"/>
<path d="M-187.134 267.684C-159.666 225.905 -135.702 241.66 -108.234 199.881C-80.7663 158.102 -104.731 142.347 -77.2708 100.58C-49.811 58.8133 -25.8388 74.5568 1.62893 32.7779C29.0966 -9.00093 5.13227 -24.7564 32.6 -66.5353C60.0677 -108.314 84.0321 -92.5586 111.508 -134.35C138.983 -176.14 115.011 -191.884 142.479 -233.663" stroke="#1645FF" stroke-opacity="0.35" stroke-width="0.634507" stroke-miterlimit="10"/>
<path d="M-214.86 251.306C-187.393 209.527 -163.428 225.283 -135.961 183.504C-108.493 141.725 -132.457 125.97 -104.997 84.2027C-77.5376 42.4359 -53.5653 58.1793 -26.0976 16.4005C1.37007 -25.3784 -22.5943 -41.1338 4.87342 -82.9127C32.3411 -124.692 56.3055 -108.936 83.7811 -150.727C111.257 -192.518 87.2845 -208.261 114.752 -250.04" stroke="#1645FF" stroke-opacity="0.35" stroke-width="0.634507" stroke-miterlimit="10"/>
<path d="M-141.445 303.634C-113.978 261.855 -90.0132 277.61 -62.5455 235.832C-35.0778 194.053 -59.0422 178.297 -31.5824 136.53C-4.12256 94.7635 19.8497 110.507 47.3174 68.7281C74.7851 26.9493 50.8207 11.1938 78.2885 -30.5851C105.756 -72.3639 129.721 -56.6085 157.196 -98.3993C184.672 -140.19 160.699 -155.934 188.167 -197.713" stroke="#1645FF" stroke-opacity="0.35" stroke-width="0.634507" stroke-miterlimit="10"/>
<path d="M-164.505 285.296C-137.037 243.518 -113.073 259.273 -85.6051 217.494C-58.1374 175.715 -82.1017 159.96 -54.6419 118.193C-27.1821 76.4261 -3.20988 92.1696 24.2578 50.3907C51.7255 8.61186 27.7612 -7.1436 55.2289 -48.9225C82.6966 -90.7013 106.661 -74.9459 134.137 -116.737C161.612 -158.528 137.64 -174.271 165.108 -216.05" stroke="#1645FF" stroke-opacity="0.35" stroke-width="0.634507" stroke-miterlimit="10"/>
<path d="M-239.287 237.159C-211.819 195.38 -187.855 211.135 -160.387 169.356C-132.92 127.578 -156.884 111.822 -129.424 70.0553C-101.964 28.2884 -77.9921 44.0319 -50.5244 2.25303C-23.0567 -39.5258 -47.0211 -55.2813 -19.5533 -97.0602C7.91437 -138.839 31.8787 -123.084 59.3543 -164.874C86.83 -206.665 62.8577 -222.409 90.3254 -264.188" stroke="#1645FF" stroke-opacity="0.35" stroke-width="0.634507" stroke-miterlimit="10"/>
<path d="M-226.843 243.428C-199.375 201.649 -175.411 217.405 -147.943 175.626C-120.475 133.847 -144.44 118.092 -116.98 76.3248C-89.52 34.558 -65.5478 50.3014 -38.0801 8.52256C-10.6123 -33.2563 -34.5767 -49.0118 -7.109 -90.7906C20.3587 -132.569 44.3231 -116.814 71.7987 -158.605C99.2743 -200.396 75.302 -216.139 102.77 -257.918" stroke="#1645FF" stroke-opacity="0.35" stroke-width="0.634507" stroke-miterlimit="10"/>
<path d="M-199.116 259.806C-171.649 218.027 -147.684 233.782 -120.216 192.003C-92.7487 150.225 -116.713 134.469 -89.2533 92.7022C-61.7935 50.9354 -37.8212 66.6789 -10.3535 24.9C17.1142 -16.8789 -6.85015 -32.6343 20.6176 -74.4132C48.0853 -116.192 72.0496 -100.437 99.5252 -142.227C127.001 -184.018 103.029 -199.762 130.496 -241.541" stroke="#1645FF" stroke-opacity="0.35" stroke-width="0.634507" stroke-miterlimit="10"/>
<path d="M-31.8495 378.537C-4.38181 336.758 19.5825 352.514 47.0503 310.735C74.518 268.956 50.5536 253.201 78.0134 211.434C105.473 169.667 129.445 185.41 156.913 143.631C184.381 101.853 160.417 86.0971 187.884 44.3183C215.352 2.5394 239.316 18.2949 266.792 -23.496C294.268 -65.2869 270.295 -81.0304 297.763 -122.809" stroke="white" stroke-opacity="0.35" stroke-width="0.634507" stroke-miterlimit="10"/>
<path d="M-54.9081 360.2C-27.4404 318.421 -3.47605 334.176 23.9917 292.397C51.4594 250.619 27.495 234.863 54.9548 193.096C82.4146 151.329 106.387 167.073 133.855 125.294C161.322 83.5152 137.358 67.7597 164.826 25.9809C192.293 -15.798 216.258 -0.0425331 243.733 -41.8334C271.209 -83.6243 247.237 -99.3678 274.704 -141.147" stroke="white" stroke-opacity="0.35" stroke-width="0.634507" stroke-miterlimit="10"/>
<path d="M-129.69 312.062C-102.223 270.283 -78.2583 286.039 -50.7906 244.26C-23.3229 202.481 -47.2872 186.725 -19.8274 144.959C7.63241 103.192 31.6047 118.935 59.0724 77.1563C86.5401 35.3775 62.5757 19.622 90.0434 -22.1568C117.511 -63.9357 141.476 -48.1802 168.951 -89.9711C196.427 -131.762 172.454 -147.505 199.922 -189.284" stroke="white" stroke-opacity="0.35" stroke-width="0.634507" stroke-miterlimit="10"/>
<path d="M-65.5556 350.465C-38.0879 308.686 -14.1235 324.441 13.3442 282.663C40.8119 240.884 16.8476 225.128 44.3074 183.361C71.7672 141.595 95.7394 157.338 123.207 115.559C150.675 73.7803 126.71 58.0249 154.178 16.246C181.646 -25.5329 205.61 -9.7774 233.086 -51.5683C260.561 -93.3592 236.589 -109.103 264.057 -150.881" stroke="white" stroke-opacity="0.35" stroke-width="0.634507" stroke-miterlimit="10"/>
<path d="M-93.2821 334.087C-65.8144 292.309 -41.8501 308.064 -14.3824 266.285C13.0853 224.506 -10.879 208.751 16.5808 166.984C44.0406 125.217 68.0129 140.961 95.4806 99.1817C122.948 57.4029 98.9839 41.6474 126.452 -0.131443C153.919 -41.9103 177.884 -26.1548 205.359 -67.9457C232.835 -109.737 208.863 -125.48 236.33 -167.259" stroke="white" stroke-opacity="0.35" stroke-width="0.634507" stroke-miterlimit="10"/>
<path d="M-19.8671 386.415C7.60061 344.636 31.565 360.392 59.0327 318.613C86.5004 276.834 62.536 261.078 89.9958 219.312C117.456 177.545 141.428 193.288 168.896 151.509C196.363 109.731 172.399 93.9751 199.867 52.1962C227.334 10.4173 251.299 26.1728 278.774 -15.6181C306.25 -57.409 282.278 -73.1524 309.745 -114.931" stroke="white" stroke-opacity="0.35" stroke-width="0.634507" stroke-miterlimit="10"/>
<path d="M-42.9267 368.078C-15.459 326.299 8.5054 342.054 35.9731 300.275C63.4408 258.497 39.4765 242.741 66.9363 200.974C94.3961 159.207 118.368 174.951 145.836 133.172C173.304 91.3931 149.339 75.6377 176.807 33.8588C204.275 -7.92007 228.239 7.8354 255.715 -33.9555C283.19 -75.7464 259.218 -91.4898 286.686 -133.269" stroke="white" stroke-opacity="0.35" stroke-width="0.634507" stroke-miterlimit="10"/>
<path d="M-117.709 319.94C-90.2412 278.161 -66.2768 293.917 -38.8091 252.138C-11.3414 210.359 -35.3058 194.603 -7.84595 152.837C19.6139 111.07 43.5861 126.813 71.0538 85.0343C98.5215 43.2554 74.5572 27.5 102.025 -14.2789C129.493 -56.0578 153.457 -40.3023 180.933 -82.0932C208.408 -123.884 184.436 -139.628 211.904 -181.406" stroke="white" stroke-opacity="0.35" stroke-width="0.634507" stroke-miterlimit="10"/>
<path d="M-105.265 326.209C-77.7968 284.431 -53.8325 300.186 -26.3648 258.407C1.10293 216.628 -22.8614 200.873 4.59838 159.106C32.0582 117.339 56.0304 133.083 83.4982 91.3038C110.966 49.5249 87.0015 33.7695 114.469 -8.00937C141.937 -49.7882 165.901 -34.0328 193.377 -75.8236C220.853 -117.615 196.88 -133.358 224.348 -175.137" stroke="white" stroke-opacity="0.35" stroke-width="0.634507" stroke-miterlimit="10"/>
<path d="M-77.538 342.587C-50.0703 300.808 -26.1059 316.564 1.36178 274.785C28.8295 233.006 4.86514 217.25 32.3249 175.483C59.7848 133.717 83.757 149.46 111.225 107.681C138.692 65.9024 114.728 50.1469 142.196 8.36807C169.663 -33.4108 193.628 -17.6553 221.103 -59.4462C248.579 -101.237 224.607 -116.981 252.075 -158.759" stroke="white" stroke-opacity="0.35" stroke-width="0.634507" stroke-miterlimit="10"/>
</g>
<g opacity="0.8">
<rect x="267.7" y="37.7" width="56.6" height="42.7905" rx="6.55" fill="white" fill-opacity="0.17" stroke="white" stroke-width="1.4"/>
<path d="M267.906 50.5938H283.313C285.315 50.5938 286.938 52.2167 286.938 54.2187V61.2422M286.938 80.3188V71.8906M286.938 71.8906V61.2422M286.938 71.8906H267.906M286.938 61.2422H267.906" stroke="white" stroke-width="1.4"/>
<path d="M324.094 50.5938H305.969M305.969 50.5938V61.2422M305.969 50.5938V37.9062M305.969 80.3188V71.8906M305.969 71.8906V61.2422M305.969 71.8906H324.094M305.969 61.2422H324.094" stroke="white" stroke-width="1.4"/>
</g>
<g filter="url(#filter2_d_2383_1165)">
<path d="M30.4703 397.219C29.5982 397.206 28.7388 397.047 27.8921 396.742C27.0518 396.436 26.2879 395.927 25.6004 395.214C24.9129 394.501 24.3622 393.543 23.9484 392.34C23.541 391.136 23.3373 389.634 23.3373 387.832C23.3373 386.126 23.506 384.611 23.8434 383.287C24.1871 381.963 24.6805 380.846 25.3235 379.935C25.9664 379.019 26.7431 378.322 27.6534 377.844C28.5637 377.367 29.5855 377.128 30.7186 377.128C31.8836 377.128 32.918 377.357 33.822 377.816C34.726 378.274 35.458 378.907 36.0182 379.716C36.5848 380.524 36.9445 381.444 37.0973 382.476H34.1849C33.9875 381.661 33.596 380.995 33.0103 380.48C32.4247 379.964 31.6608 379.706 30.7186 379.706C29.2863 379.706 28.169 380.33 27.3669 381.578C26.5712 382.826 26.1701 384.56 26.1638 386.782H26.307C26.6444 386.228 27.0582 385.757 27.5484 385.369C28.0449 384.974 28.5987 384.672 29.2099 384.462C29.8274 384.245 30.4767 384.137 31.1579 384.137C32.291 384.137 33.3159 384.414 34.2326 384.968C35.1557 385.515 35.8909 386.273 36.4384 387.24C36.9859 388.208 37.2596 389.316 37.2596 390.563C37.2596 391.811 36.9763 392.941 36.4098 393.953C35.8495 394.965 35.0602 395.768 34.0416 396.36C33.0231 396.945 31.8326 397.232 30.4703 397.219ZM30.4608 394.736C31.212 394.736 31.8836 394.552 32.4756 394.182C33.0676 393.813 33.5355 393.317 33.8793 392.693C34.2231 392.069 34.3949 391.372 34.3949 390.602C34.3949 389.85 34.2262 389.166 33.8888 388.549C33.5578 387.931 33.0995 387.441 32.5138 387.078C31.9345 386.715 31.2724 386.534 30.5276 386.534C29.9611 386.534 29.4359 386.642 28.9521 386.858C28.4746 387.075 28.0545 387.374 27.6916 387.756C27.3287 388.138 27.0423 388.577 26.8322 389.074C26.6285 389.564 26.5266 390.083 26.5266 390.63C26.5266 391.362 26.6953 392.04 27.0327 392.664C27.3765 393.288 27.8444 393.791 28.4364 394.173C29.0348 394.549 29.7096 394.736 30.4608 394.736ZM40.7378 396.952V394.813L47.3552 387.957C48.0618 387.212 48.6443 386.559 49.1026 385.999C49.5674 385.432 49.9143 384.895 50.1435 384.385C50.3727 383.876 50.4872 383.335 50.4872 382.762C50.4872 382.113 50.3345 381.552 50.0289 381.081C49.7233 380.604 49.3064 380.238 48.778 379.983C48.2496 379.722 47.6544 379.592 46.9923 379.592C46.2921 379.592 45.681 379.735 45.1589 380.021C44.6369 380.308 44.2359 380.712 43.9558 381.234C43.6757 381.756 43.5356 382.367 43.5356 383.068H40.7187C40.7187 381.877 40.9924 380.836 41.5399 379.945C42.0874 379.054 42.8386 378.363 43.7934 377.873C44.7483 377.376 45.8337 377.128 47.0496 377.128C48.2783 377.128 49.3605 377.373 50.2963 377.863C51.2384 378.347 51.9737 379.009 52.5021 379.85C53.0304 380.683 53.2946 381.626 53.2946 382.676C53.2946 383.402 53.1578 384.112 52.884 384.805C52.6166 385.499 52.1487 386.273 51.4803 387.126C50.8119 387.972 49.8825 389.001 48.692 390.21L44.8056 394.278V394.421H53.6097V396.952H40.7378ZM57.8876 396.952L66.4244 380.069V379.926H56.5508V377.395H69.48V380.012L60.9719 396.952H57.8876ZM73.9847 396.952L82.5215 380.069V379.926H72.6479V377.395H85.5771V380.012L77.069 396.952H73.9847ZM96.6729 396.952L105.21 380.069V379.926H95.3361V377.395H108.265V380.012L99.7572 396.952H96.6729ZM117.993 397.219C117.121 397.206 116.262 397.047 115.415 396.742C114.575 396.436 113.811 395.927 113.123 395.214C112.436 394.501 111.885 393.543 111.471 392.34C111.064 391.136 110.86 389.634 110.86 387.832C110.86 386.126 111.029 384.611 111.366 383.287C111.71 381.963 112.203 380.846 112.846 379.935C113.489 379.019 114.266 378.322 115.176 377.844C116.087 377.367 117.108 377.128 118.242 377.128C119.407 377.128 120.441 377.357 121.345 377.816C122.249 378.274 122.981 378.907 123.541 379.716C124.108 380.524 124.467 381.444 124.62 382.476H121.708C121.51 381.661 121.119 380.995 120.533 380.48C119.948 379.964 119.184 379.706 118.242 379.706C116.809 379.706 115.692 380.33 114.89 381.578C114.094 382.826 113.693 384.56 113.687 386.782H113.83C114.167 386.228 114.581 385.757 115.071 385.369C115.568 384.974 116.122 384.672 116.733 384.462C117.35 384.245 118 384.137 118.681 384.137C119.814 384.137 120.839 384.414 121.756 384.968C122.679 385.515 123.414 386.273 123.961 387.24C124.509 388.208 124.783 389.316 124.783 390.563C124.783 391.811 124.499 392.941 123.933 393.953C123.372 394.965 122.583 395.768 121.565 396.36C120.546 396.945 119.356 397.232 117.993 397.219ZM117.984 394.736C118.735 394.736 119.407 394.552 119.999 394.182C120.591 393.813 121.058 393.317 121.402 392.693C121.746 392.069 121.918 391.372 121.918 390.602C121.918 389.85 121.749 389.166 121.412 388.549C121.081 387.931 120.622 387.441 120.037 387.078C119.457 386.715 118.795 386.534 118.051 386.534C117.484 386.534 116.959 386.642 116.475 386.858C115.998 387.075 115.577 387.374 115.215 387.756C114.852 388.138 114.565 388.577 114.355 389.074C114.151 389.564 114.05 390.083 114.05 390.63C114.05 391.362 114.218 392.04 114.556 392.664C114.899 393.288 115.367 393.791 115.959 394.173C116.558 394.549 117.233 394.736 117.984 394.736ZM134.716 397.219C133.519 397.219 132.443 396.99 131.488 396.532C130.54 396.067 129.782 395.43 129.216 394.622C128.649 393.813 128.347 392.89 128.308 391.853H131.173C131.243 392.693 131.616 393.384 132.29 393.925C132.965 394.466 133.774 394.736 134.716 394.736C135.467 394.736 136.132 394.564 136.712 394.221C137.297 393.871 137.756 393.39 138.087 392.779C138.424 392.168 138.593 391.471 138.593 390.688C138.593 389.892 138.421 389.182 138.077 388.558C137.733 387.934 137.259 387.444 136.654 387.088C136.056 386.731 135.368 386.55 134.592 386.543C134 386.543 133.404 386.645 132.806 386.849C132.208 387.053 131.724 387.32 131.355 387.651L128.652 387.25L129.75 377.395H140.502V379.926H132.204L131.584 385.397H131.698C132.08 385.028 132.586 384.72 133.217 384.471C133.853 384.223 134.534 384.099 135.26 384.099C136.451 384.099 137.51 384.382 138.44 384.949C139.376 385.515 140.111 386.289 140.646 387.269C141.187 388.243 141.454 389.363 141.448 390.63C141.454 391.897 141.168 393.027 140.588 394.02C140.015 395.013 139.22 395.796 138.201 396.369C137.189 396.936 136.027 397.219 134.716 397.219ZM144.525 393.132V390.745L152.976 377.395H154.857V380.909H153.663L147.619 390.477V390.63H159.202V393.132H144.525ZM153.797 396.952V392.406L153.816 391.318V377.395H156.614V396.952H153.797ZM169.646 396.952V394.813L176.263 387.957C176.97 387.212 177.552 386.559 178.011 385.999C178.475 385.432 178.822 384.895 179.051 384.385C179.281 383.876 179.395 383.335 179.395 382.762C179.395 382.113 179.242 381.552 178.937 381.081C178.631 380.604 178.214 380.238 177.686 379.983C177.158 379.722 176.562 379.592 175.9 379.592C175.2 379.592 174.589 379.735 174.067 380.021C173.545 380.308 173.144 380.712 172.864 381.234C172.584 381.756 172.444 382.367 172.444 383.068H169.627C169.627 381.877 169.9 380.836 170.448 379.945C170.995 379.054 171.746 378.363 172.701 377.873C173.656 377.376 174.742 377.128 175.958 377.128C177.186 377.128 178.268 377.373 179.204 377.863C180.146 378.347 180.882 379.009 181.41 379.85C181.938 380.683 182.203 381.626 182.203 382.676C182.203 383.402 182.066 384.112 181.792 384.805C181.525 385.499 181.057 386.273 180.388 387.126C179.72 387.972 178.79 389.001 177.6 390.21L173.714 394.278V394.421H182.518V396.952H169.646ZM192.592 397.219C191.395 397.219 190.319 396.99 189.364 396.532C188.416 396.067 187.658 395.43 187.092 394.622C186.525 393.813 186.223 392.89 186.184 391.853H189.049C189.119 392.693 189.492 393.384 190.166 393.925C190.841 394.466 191.65 394.736 192.592 394.736C193.343 394.736 194.008 394.564 194.587 394.221C195.173 393.871 195.632 393.39 195.963 392.779C196.3 392.168 196.469 391.471 196.469 390.688C196.469 389.892 196.297 389.182 195.953 388.558C195.609 387.934 195.135 387.444 194.53 387.088C193.932 386.731 193.244 386.55 192.468 386.543C191.876 386.543 191.28 386.645 190.682 386.849C190.084 387.053 189.6 387.32 189.231 387.651L186.528 387.25L187.626 377.395H198.378V379.926H190.08L189.46 385.397H189.574C189.956 385.028 190.462 384.72 191.093 384.471C191.729 384.223 192.41 384.099 193.136 384.099C194.326 384.099 195.386 384.382 196.316 384.949C197.252 385.515 197.987 386.289 198.522 387.269C199.063 388.243 199.33 389.363 199.324 390.63C199.33 391.897 199.044 393.027 198.464 394.02C197.891 395.013 197.096 395.796 196.077 396.369C195.065 396.936 193.903 397.219 192.592 397.219ZM202.811 396.952V394.813L209.429 387.957C210.136 387.212 210.718 386.559 211.176 385.999C211.641 385.432 211.988 384.895 212.217 384.385C212.446 383.876 212.561 383.335 212.561 382.762C212.561 382.113 212.408 381.552 212.103 381.081C211.797 380.604 211.38 380.238 210.852 379.983C210.323 379.722 209.728 379.592 209.066 379.592C208.366 379.592 207.755 379.735 207.233 380.021C206.711 380.308 206.31 380.712 206.029 381.234C205.749 381.756 205.609 382.367 205.609 383.068H202.792C202.792 381.877 203.066 380.836 203.614 379.945C204.161 379.054 204.912 378.363 205.867 377.873C206.822 377.376 207.907 377.128 209.123 377.128C210.352 377.128 211.434 377.373 212.37 377.863C213.312 378.347 214.047 379.009 214.576 379.85C215.104 380.683 215.368 381.626 215.368 382.676C215.368 383.402 215.231 384.112 214.958 384.805C214.69 385.499 214.222 386.273 213.554 387.126C212.886 387.972 211.956 389.001 210.766 390.21L206.879 394.278V394.421H215.683V396.952H202.811ZM219.961 396.952L228.498 380.069V379.926H218.625V377.395H231.554V380.012L223.046 396.952H219.961ZM241.58 393.132V390.745L250.031 377.395H251.912V380.909H250.718L244.674 390.477V390.63H256.257V393.132H241.58ZM250.852 396.952V392.406L250.871 391.318V377.395H253.669V396.952H250.852ZM260.243 396.952L268.78 380.069V379.926H258.907V377.395H271.836V380.012L263.328 396.952H260.243ZM276.341 396.952L284.877 380.069V379.926H275.004V377.395H287.933V380.012L279.425 396.952H276.341ZM297.467 397.219C296.099 397.219 294.889 396.983 293.839 396.512C292.795 396.041 291.977 395.392 291.385 394.564C290.793 393.737 290.5 392.795 290.506 391.738C290.5 390.91 290.669 390.15 291.012 389.456C291.363 388.756 291.837 388.173 292.435 387.708C293.034 387.237 293.702 386.938 294.44 386.811V386.696C293.467 386.461 292.687 385.939 292.101 385.13C291.515 384.322 291.226 383.392 291.232 382.342C291.226 381.342 291.49 380.451 292.025 379.668C292.566 378.879 293.307 378.258 294.25 377.806C295.192 377.354 296.264 377.128 297.467 377.128C298.658 377.128 299.721 377.357 300.657 377.816C301.599 378.268 302.341 378.888 302.882 379.678C303.423 380.461 303.697 381.349 303.703 382.342C303.697 383.392 303.397 384.322 302.805 385.13C302.213 385.939 301.443 386.461 300.495 386.696V386.811C301.227 386.938 301.885 387.237 302.471 387.708C303.063 388.173 303.534 388.756 303.884 389.456C304.241 390.15 304.422 390.91 304.429 391.738C304.422 392.795 304.123 393.737 303.531 394.564C302.939 395.392 302.118 396.041 301.067 396.512C300.023 396.983 298.823 397.219 297.467 397.219ZM297.467 394.803C298.276 394.803 298.976 394.669 299.568 394.402C300.16 394.128 300.619 393.75 300.943 393.266C301.268 392.776 301.433 392.203 301.44 391.547C301.433 390.866 301.255 390.264 300.905 389.742C300.561 389.22 300.093 388.81 299.501 388.51C298.909 388.211 298.231 388.062 297.467 388.062C296.697 388.062 296.013 388.211 295.414 388.51C294.816 388.81 294.345 389.22 294.001 389.742C293.657 390.264 293.489 390.866 293.495 391.547C293.489 392.203 293.645 392.776 293.963 393.266C294.288 393.75 294.749 394.128 295.348 394.402C295.946 394.669 296.653 394.803 297.467 394.803ZM297.467 385.703C298.117 385.703 298.693 385.573 299.196 385.312C299.699 385.051 300.093 384.688 300.38 384.223C300.673 383.758 300.822 383.214 300.829 382.59C300.822 381.979 300.676 381.444 300.389 380.986C300.109 380.528 299.718 380.174 299.215 379.926C298.712 379.671 298.13 379.544 297.467 379.544C296.793 379.544 296.201 379.671 295.691 379.926C295.188 380.174 294.797 380.528 294.517 380.986C294.237 381.444 294.1 381.979 294.106 382.59C294.1 383.214 294.24 383.758 294.526 384.223C294.813 384.688 295.208 385.051 295.71 385.312C296.22 385.573 296.805 385.703 297.467 385.703Z" fill="white"/>
</g>
<defs>
<filter id="filter0_di_2383_1165" x="27.598" y="507.47" width="187.56" height="23.3693" filterUnits="userSpaceOnUse" color-interpolation-filters="sRGB">
<feFlood flood-opacity="0" result="BackgroundImageFix"/>
<feColorMatrix in="SourceAlpha" type="matrix" values="0 0 0 0 0 0 0 0 0 0 0 0 0 0 0 0 0 0 127 0" result="hardAlpha"/>
<feOffset dy="4"/>
<feGaussianBlur stdDeviation="2"/>
<feComposite in2="hardAlpha" operator="out"/>
<feColorMatrix type="matrix" values="0 0 0 0 0.204167 0 0 0 0 0.204167 0 0 0 0 0.204167 0 0 0 0.15 0"/>
<feBlend mode="normal" in2="BackgroundImageFix" result="effect1_dropShadow_2383_1165"/>
<feBlend mode="normal" in="SourceGraphic" in2="effect1_dropShadow_2383_1165" result="shape"/>
<feColorMatrix in="SourceAlpha" type="matrix" values="0 0 0 0 0 0 0 0 0 0 0 0 0 0 0 0 0 0 127 0" result="hardAlpha"/>
<feOffset dy="4"/>
<feGaussianBlur stdDeviation="2"/>
<feComposite in2="hardAlpha" operator="arithmetic" k2="-1" k3="1"/>
<feColorMatrix type="matrix" values="0 0 0 0 0.839216 0 0 0 0 0.839216 0 0 0 0 0.839216 0 0 0 0.25 0"/>
<feBlend mode="normal" in2="shape" result="effect2_innerShadow_2383_1165"/>
</filter>
<filter id="filter1_di_2383_1165" x="26.8469" y="480.382" width="160.978" height="19.2074" filterUnits="userSpaceOnUse" color-interpolation-filters="sRGB">
<feFlood flood-opacity="0" result="BackgroundImageFix"/>
<feColorMatrix in="SourceAlpha" type="matrix" values="0 0 0 0 0 0 0 0 0 0 0 0 0 0 0 0 0 0 127 0" result="hardAlpha"/>
<feOffset dy="4"/>
<feGaussianBlur stdDeviation="2"/>
<feComposite in2="hardAlpha" operator="out"/>
<feColorMatrix type="matrix" values="0 0 0 0 0.203922 0 0 0 0 0.203922 0 0 0 0 0.203922 0 0 0 0.25 0"/>
<feBlend mode="normal" in2="BackgroundImageFix" result="effect1_dropShadow_2383_1165"/>
<feBlend mode="normal" in="SourceGraphic" in2="effect1_dropShadow_2383_1165" result="shape"/>
<feColorMatrix in="SourceAlpha" type="matrix" values="0 0 0 0 0 0 0 0 0 0 0 0 0 0 0 0 0 0 127 0" result="hardAlpha"/>
<feOffset dy="4"/>
<feGaussianBlur stdDeviation="2"/>
<feComposite in2="hardAlpha" operator="arithmetic" k2="-1" k3="1"/>
<feColorMatrix type="matrix" values="0 0 0 0 0.8375 0 0 0 0 0.8375 0 0 0 0 0.8375 0 0 0 0.25 0"/>
<feBlend mode="normal" in2="shape" result="effect2_innerShadow_2383_1165"/>
</filter>
<filter id="filter2_d_2383_1165" x="17.9593" y="377.128" width="291.847" height="30.8659" filterUnits="userSpaceOnUse" color-interpolation-filters="sRGB">
<feFlood flood-opacity="0" result="BackgroundImageFix"/>
<feColorMatrix in="SourceAlpha" type="matrix" values="0 0 0 0 0 0 0 0 0 0 0 0 0 0 0 0 0 0 127 0" result="hardAlpha"/>
<feOffset dy="5.37795"/>
<feGaussianBlur stdDeviation="2.68897"/>
<feComposite in2="hardAlpha" operator="out"/>
<feColorMatrix type="matrix" values="0 0 0 0 0.241667 0 0 0 0 0.241667 0 0 0 0 0.241667 0 0 0 0.15 0"/>
<feBlend mode="normal" in2="BackgroundImageFix" result="effect1_dropShadow_2383_1165"/>
<feBlend mode="normal" in="SourceGraphic" in2="effect1_dropShadow_2383_1165" result="shape"/>
</filter>
<linearGradient id="paint0_linear_2383_1165" x1="177.5" y1="0" x2="177.5" y2="555" gradientUnits="userSpaceOnUse">
<stop stop-color="#5034EC"/>
<stop offset="1" stop-color="#4E67EE"/>
</linearGradient>
<linearGradient id="paint1_linear_2383_1165" x1="21.0581" y1="15" x2="418.323" y2="490.52" gradientUnits="userSpaceOnUse">
<stop stop-color="white" stop-opacity="0.65"/>
<stop offset="1" stop-color="white" stop-opacity="0.35"/>
</linearGradient>
</defs>
</svg>
