<svg width="561" height="355" viewBox="0 0 561 355" fill="none" xmlns="http://www.w3.org/2000/svg">
<rect x="1" y="1" width="559" height="353" fill="white" stroke="url(#paint0_linear_2383_519)" stroke-width="2"/>
<mask id="mask0_2383_519" style="mask-type:alpha" maskUnits="userSpaceOnUse" x="0" y="0" width="561" height="355">
<rect width="561" height="355" fill="#EFEFEF"/>
</mask>
<g mask="url(#mask0_2383_519)">
<circle cx="546.926" cy="-104.512" r="241.659" transform="rotate(173.361 546.926 -104.512)" stroke="#B6B6B6" stroke-width="0.924126"/>
<circle cx="463.845" cy="-66.931" r="241.659" transform="rotate(173.361 463.845 -66.931)" stroke="#B6B6B6" stroke-width="0.924126"/>
<circle cx="353.694" cy="-54.1107" r="241.659" transform="rotate(173.361 353.694 -54.1107)" stroke="#B6B6B6" stroke-width="0.924126"/>
<path d="M34.598 308.884H37.2614L41.892 320.191H42.0625L46.6932 308.884H49.3565V323.43H47.2685V312.904H47.1335L42.8438 323.408H41.1108L36.821 312.897H36.6861V323.43H34.598V308.884ZM52.3768 323.43V312.521H54.5004V323.43H52.3768ZM53.4492 310.837C53.0799 310.837 52.7627 310.714 52.4975 310.468C52.2371 310.217 52.1069 309.919 52.1069 309.573C52.1069 309.223 52.2371 308.924 52.4975 308.678C52.7627 308.427 53.0799 308.302 53.4492 308.302C53.8185 308.302 54.1334 308.427 54.3938 308.678C54.659 308.924 54.7915 309.223 54.7915 309.573C54.7915 309.919 54.659 310.217 54.3938 310.468C54.1334 310.714 53.8185 310.837 53.4492 310.837ZM61.9524 323.65C60.8965 323.65 59.9875 323.411 59.2251 322.933C58.4676 322.45 57.8852 321.784 57.478 320.937C57.0708 320.089 56.8672 319.119 56.8672 318.025C56.8672 316.917 57.0755 315.939 57.4922 315.092C57.9089 314.239 58.496 313.574 59.2536 313.096C60.0111 312.618 60.9036 312.379 61.9311 312.379C62.7597 312.379 63.4983 312.532 64.147 312.84C64.7957 313.143 65.3189 313.569 65.7166 314.119C66.1191 314.668 66.3582 315.309 66.4339 316.043H64.3672C64.2536 315.532 63.9931 315.092 63.5859 314.722C63.1835 314.353 62.6437 314.168 61.9666 314.168C61.3748 314.168 60.8563 314.325 60.4112 314.637C59.9709 314.945 59.6276 315.385 59.3814 315.958C59.1352 316.526 59.0121 317.199 59.0121 317.975C59.0121 318.771 59.1328 319.457 59.3743 320.035C59.6158 320.612 59.9567 321.06 60.397 321.377C60.8421 321.694 61.3653 321.853 61.9666 321.853C62.3691 321.853 62.7337 321.78 63.0604 321.633C63.3918 321.481 63.6688 321.266 63.8913 320.987C64.1186 320.707 64.2772 320.371 64.3672 319.978H66.4339C66.3582 320.683 66.1286 321.313 65.745 321.867C65.3615 322.421 64.8478 322.857 64.2038 323.174C63.5646 323.491 62.8142 323.65 61.9524 323.65ZM70.8285 316.952V323.43H68.7049V308.884H70.8001V314.296H70.935C71.1907 313.709 71.5813 313.243 72.1069 312.897C72.6325 312.551 73.319 312.379 74.1665 312.379C74.9147 312.379 75.5681 312.532 76.1268 312.84C76.6902 313.148 77.1258 313.607 77.4336 314.218C77.7461 314.824 77.9023 315.582 77.9023 316.491V323.43H75.7788V316.746C75.7788 315.946 75.5728 315.326 75.1609 314.886C74.7489 314.441 74.176 314.218 73.4421 314.218C72.9402 314.218 72.4904 314.325 72.0927 314.538C71.6997 314.751 71.3896 315.063 71.1623 315.475C70.9397 315.882 70.8285 316.375 70.8285 316.952ZM83.9109 323.671C83.2196 323.671 82.5946 323.543 82.0359 323.288C81.4772 323.027 81.0344 322.651 80.7077 322.158C80.3858 321.666 80.2248 321.062 80.2248 320.347C80.2248 319.732 80.3432 319.225 80.5799 318.827C80.8166 318.43 81.1362 318.115 81.5387 317.883C81.9412 317.651 82.391 317.476 82.8881 317.357C83.3853 317.239 83.8919 317.149 84.408 317.087C85.0614 317.012 85.5917 316.95 85.9989 316.903C86.4061 316.851 86.7021 316.768 86.8867 316.654C87.0714 316.54 87.1637 316.356 87.1637 316.1V316.05C87.1637 315.43 86.9885 314.95 86.6381 314.609C86.2925 314.268 85.7764 314.097 85.0898 314.097C84.3749 314.097 83.8114 314.256 83.3995 314.573C82.9923 314.886 82.7106 315.234 82.5543 315.617L80.5586 315.163C80.7953 314.5 81.141 313.965 81.5955 313.558C82.0548 313.146 82.5827 312.847 83.1793 312.663C83.7759 312.473 84.4033 312.379 85.0614 312.379C85.497 312.379 85.9587 312.431 86.4464 312.535C86.9388 312.634 87.3981 312.819 87.8242 313.089C88.2551 313.359 88.6078 313.745 88.8825 314.246C89.1571 314.744 89.2944 315.39 89.2944 316.185V323.43H87.2205V321.938H87.1353C86.998 322.213 86.792 322.483 86.5174 322.748C86.2428 323.013 85.89 323.233 85.4592 323.408C85.0283 323.584 84.5122 323.671 83.9109 323.671ZM84.3725 321.967C84.9596 321.967 85.4615 321.851 85.8782 321.619C86.2996 321.387 86.6192 321.084 86.837 320.71C87.0595 320.331 87.1708 319.926 87.1708 319.495V318.089C87.0951 318.165 86.9483 318.236 86.7305 318.302C86.5174 318.363 86.2736 318.418 85.9989 318.465C85.7243 318.508 85.4568 318.548 85.1964 318.586C84.936 318.619 84.7182 318.647 84.543 318.671C84.131 318.723 83.7546 318.811 83.4137 318.934C83.0775 319.057 82.8076 319.235 82.604 319.467C82.4052 319.694 82.3058 319.997 82.3058 320.376C82.3058 320.901 82.4999 321.299 82.8881 321.569C83.2764 321.834 83.7712 321.967 84.3725 321.967ZM96.8246 323.65C95.7498 323.65 94.8241 323.42 94.0476 322.961C93.2758 322.497 92.6792 321.846 92.2578 321.008C91.8411 320.165 91.6328 319.178 91.6328 318.046C91.6328 316.929 91.8411 315.944 92.2578 315.092C92.6792 314.239 93.2663 313.574 94.0192 313.096C94.7768 312.618 95.6622 312.379 96.6754 312.379C97.291 312.379 97.8875 312.48 98.4652 312.684C99.0429 312.888 99.5613 313.207 100.021 313.643C100.48 314.078 100.842 314.644 101.107 315.34C101.372 316.031 101.505 316.872 101.505 317.862V318.614H92.8331V317.023H99.424C99.424 316.465 99.3104 315.97 99.0831 315.539C98.8558 315.103 98.5362 314.76 98.1243 314.509C97.7171 314.258 97.2389 314.133 96.6896 314.133C96.093 314.133 95.5722 314.28 95.1271 314.573C94.6868 314.862 94.3459 315.241 94.1044 315.71C93.8677 316.174 93.7493 316.678 93.7493 317.222V318.465C93.7493 319.194 93.8771 319.815 94.1328 320.326C94.3932 320.837 94.7554 321.228 95.2195 321.498C95.6835 321.763 96.2256 321.896 96.8459 321.896C97.2483 321.896 97.6153 321.839 97.9467 321.725C98.2782 321.607 98.5646 321.432 98.8061 321.2C99.0476 320.968 99.2322 320.681 99.3601 320.34L101.37 320.702C101.209 321.294 100.92 321.813 100.504 322.258C100.092 322.698 99.5732 323.041 98.9482 323.288C98.3279 323.529 97.62 323.65 96.8246 323.65ZM105.985 308.884V323.43H103.861V308.884H105.985ZM115.534 323.43H113.204L118.439 308.884H120.974L126.208 323.43H123.879L119.767 311.526H119.653L115.534 323.43ZM115.924 317.734H123.481V319.58H115.924V317.734ZM130.262 316.952V323.43H128.138V312.521H130.177V314.296H130.312C130.563 313.719 130.956 313.254 131.491 312.904C132.031 312.554 132.71 312.379 133.529 312.379C134.272 312.379 134.924 312.535 135.482 312.847C136.041 313.155 136.474 313.614 136.782 314.225C137.09 314.836 137.244 315.591 137.244 316.491V323.43H135.12V316.746C135.12 315.956 134.914 315.338 134.502 314.893C134.09 314.443 133.524 314.218 132.805 314.218C132.312 314.218 131.874 314.325 131.491 314.538C131.112 314.751 130.811 315.063 130.589 315.475C130.371 315.882 130.262 316.375 130.262 316.952ZM144.175 323.643C143.295 323.643 142.509 323.418 141.817 322.968C141.131 322.513 140.591 321.867 140.198 321.029C139.81 320.186 139.616 319.175 139.616 317.996C139.616 316.817 139.812 315.809 140.205 314.971C140.603 314.133 141.147 313.491 141.839 313.046C142.53 312.601 143.314 312.379 144.19 312.379C144.867 312.379 145.411 312.492 145.823 312.719C146.24 312.942 146.562 313.202 146.789 313.501C147.021 313.799 147.201 314.062 147.329 314.289H147.457V308.884H149.58V323.43H147.506V321.732H147.329C147.201 321.964 147.016 322.229 146.775 322.528C146.538 322.826 146.211 323.086 145.795 323.309C145.378 323.531 144.838 323.643 144.175 323.643ZM144.644 321.832C145.255 321.832 145.771 321.671 146.192 321.349C146.619 321.022 146.941 320.57 147.158 319.992C147.381 319.415 147.492 318.742 147.492 317.975C147.492 317.218 147.383 316.555 147.165 315.987C146.948 315.418 146.628 314.976 146.207 314.658C145.785 314.341 145.264 314.183 144.644 314.183C144.005 314.183 143.472 314.348 143.046 314.68C142.62 315.011 142.298 315.463 142.08 316.036C141.867 316.609 141.761 317.255 141.761 317.975C141.761 318.704 141.87 319.36 142.087 319.942C142.305 320.525 142.627 320.987 143.053 321.327C143.484 321.664 144.014 321.832 144.644 321.832ZM152.611 323.43V312.521H154.664V314.254H154.777C154.976 313.666 155.327 313.205 155.828 312.869C156.335 312.528 156.908 312.357 157.547 312.357C157.68 312.357 157.836 312.362 158.016 312.371C158.201 312.381 158.345 312.393 158.449 312.407V314.438C158.364 314.415 158.212 314.388 157.995 314.36C157.777 314.327 157.559 314.31 157.341 314.31C156.839 314.31 156.392 314.417 155.999 314.63C155.611 314.838 155.303 315.129 155.076 315.504C154.848 315.873 154.735 316.294 154.735 316.768V323.43H152.611ZM164.598 323.65C163.523 323.65 162.598 323.42 161.821 322.961C161.049 322.497 160.453 321.846 160.031 321.008C159.615 320.165 159.406 319.178 159.406 318.046C159.406 316.929 159.615 315.944 160.031 315.092C160.453 314.239 161.04 313.574 161.793 313.096C162.55 312.618 163.436 312.379 164.449 312.379C165.064 312.379 165.661 312.48 166.239 312.684C166.816 312.888 167.335 313.207 167.794 313.643C168.253 314.078 168.616 314.644 168.881 315.34C169.146 316.031 169.278 316.872 169.278 317.862V318.614H160.607V317.023H167.197C167.197 316.465 167.084 315.97 166.857 315.539C166.629 315.103 166.31 314.76 165.898 314.509C165.491 314.258 165.012 314.133 164.463 314.133C163.866 314.133 163.346 314.28 162.901 314.573C162.46 314.862 162.119 315.241 161.878 315.71C161.641 316.174 161.523 316.678 161.523 317.222V318.465C161.523 319.194 161.651 319.815 161.906 320.326C162.167 320.837 162.529 321.228 162.993 321.498C163.457 321.763 163.999 321.896 164.619 321.896C165.022 321.896 165.389 321.839 165.72 321.725C166.052 321.607 166.338 321.432 166.58 321.2C166.821 320.968 167.006 320.681 167.134 320.34L169.143 320.702C168.982 321.294 168.694 321.813 168.277 322.258C167.865 322.698 167.347 323.041 166.722 323.288C166.101 323.529 165.393 323.65 164.598 323.65ZM178.545 318.906V312.521H180.676V323.43H178.588V321.54H178.474C178.223 322.123 177.821 322.608 177.267 322.996C176.717 323.38 176.033 323.572 175.214 323.572C174.513 323.572 173.893 323.418 173.353 323.11C172.818 322.798 172.397 322.336 172.089 321.725C171.786 321.114 171.635 320.359 171.635 319.46V312.521H173.758V319.204C173.758 319.947 173.964 320.539 174.376 320.979C174.788 321.42 175.323 321.64 175.981 321.64C176.379 321.64 176.774 321.54 177.167 321.342C177.565 321.143 177.894 320.842 178.154 320.44C178.42 320.037 178.55 319.526 178.545 318.906ZM183.302 323.43V321.974L189.211 314.467V314.367H183.494V312.521H191.86V314.069L186.178 321.484V321.583H192.059V323.43H183.302ZM194.337 323.43V321.974L200.246 314.467V314.367H194.529V312.521H202.895V314.069L197.213 321.484V321.583H203.094V323.43H194.337ZM208.774 323.671C208.083 323.671 207.458 323.543 206.899 323.288C206.34 323.027 205.898 322.651 205.571 322.158C205.249 321.666 205.088 321.062 205.088 320.347C205.088 319.732 205.206 319.225 205.443 318.827C205.68 318.43 206 318.115 206.402 317.883C206.804 317.651 207.254 317.476 207.751 317.357C208.249 317.239 208.755 317.149 209.271 317.087C209.925 317.012 210.455 316.95 210.862 316.903C211.269 316.851 211.565 316.768 211.75 316.654C211.935 316.54 212.027 316.356 212.027 316.1V316.05C212.027 315.43 211.852 314.95 211.501 314.609C211.156 314.268 210.64 314.097 209.953 314.097C209.238 314.097 208.675 314.256 208.263 314.573C207.856 314.886 207.574 315.234 207.418 315.617L205.422 315.163C205.659 314.5 206.004 313.965 206.459 313.558C206.918 313.146 207.446 312.847 208.043 312.663C208.639 312.473 209.267 312.379 209.925 312.379C210.36 312.379 210.822 312.431 211.31 312.535C211.802 312.634 212.261 312.819 212.688 313.089C213.118 313.359 213.471 313.745 213.746 314.246C214.02 314.744 214.158 315.39 214.158 316.185V323.43H212.084V321.938H211.999C211.861 322.213 211.655 322.483 211.381 322.748C211.106 323.013 210.753 323.233 210.322 323.408C209.892 323.584 209.375 323.671 208.774 323.671ZM209.236 321.967C209.823 321.967 210.325 321.851 210.741 321.619C211.163 321.387 211.482 321.084 211.7 320.71C211.923 320.331 212.034 319.926 212.034 319.495V318.089C211.958 318.165 211.812 318.236 211.594 318.302C211.381 318.363 211.137 318.418 210.862 318.465C210.588 318.508 210.32 318.548 210.06 318.586C209.799 318.619 209.581 318.647 209.406 318.671C208.994 318.723 208.618 318.811 208.277 318.934C207.941 319.057 207.671 319.235 207.467 319.467C207.268 319.694 207.169 319.997 207.169 320.376C207.169 320.901 207.363 321.299 207.751 321.569C208.14 321.834 208.634 321.967 209.236 321.967Z" fill="#0F0F0F"/>
<g filter="url(#filter0_d_2383_519)">
<path d="M470.463 323.241C469.341 323.237 468.382 322.941 467.587 322.354C466.791 321.767 466.183 320.912 465.761 319.79C465.34 318.668 465.129 317.316 465.129 315.734C465.129 314.158 465.34 312.811 465.761 311.693C466.188 310.576 466.798 309.723 467.594 309.136C468.394 308.549 469.35 308.256 470.463 308.256C471.576 308.256 472.53 308.552 473.325 309.143C474.121 309.731 474.729 310.583 475.151 311.7C475.577 312.813 475.79 314.158 475.79 315.734C475.79 317.321 475.579 318.675 475.158 319.797C474.736 320.914 474.128 321.769 473.332 322.361C472.537 322.948 471.58 323.241 470.463 323.241ZM470.463 321.345C471.448 321.345 472.217 320.865 472.771 319.903C473.33 318.942 473.609 317.553 473.609 315.734C473.609 314.527 473.482 313.507 473.226 312.673C472.975 311.835 472.613 311.201 472.139 310.77C471.67 310.334 471.112 310.116 470.463 310.116C469.483 310.116 468.714 310.599 468.155 311.565C467.596 312.531 467.314 313.921 467.31 315.734C467.31 316.946 467.435 317.972 467.686 318.81C467.942 319.643 468.304 320.275 468.773 320.706C469.241 321.132 469.805 321.345 470.463 321.345ZM478.309 323V321.409L483.231 316.31C483.757 315.756 484.19 315.27 484.531 314.854C484.877 314.432 485.135 314.032 485.305 313.653C485.475 313.275 485.561 312.872 485.561 312.446C485.561 311.963 485.447 311.546 485.22 311.196C484.993 310.841 484.682 310.569 484.289 310.379C483.896 310.185 483.454 310.088 482.961 310.088C482.44 310.088 481.986 310.195 481.598 310.408C481.209 310.621 480.911 310.921 480.703 311.31C480.494 311.698 480.39 312.152 480.39 312.673H478.295C478.295 311.788 478.499 311.014 478.906 310.351C479.313 309.688 479.872 309.174 480.582 308.81C481.292 308.44 482.1 308.256 483.004 308.256C483.918 308.256 484.723 308.438 485.419 308.803C486.119 309.162 486.666 309.655 487.059 310.28C487.452 310.9 487.649 311.601 487.649 312.382C487.649 312.922 487.547 313.45 487.343 313.966C487.145 314.482 486.797 315.057 486.299 315.692C485.802 316.321 485.111 317.086 484.225 317.986L481.335 321.011V321.118H487.883V323H478.309ZM496.143 307.773L491.456 325.188H489.559L494.247 307.773H496.143ZM502.983 323.199C502.007 323.199 501.136 323.031 500.369 322.695C499.607 322.358 499.003 321.892 498.558 321.295C498.118 320.694 497.881 319.998 497.848 319.207H500.078C500.106 319.638 500.251 320.012 500.511 320.33C500.776 320.642 501.122 320.884 501.548 321.054C501.974 321.224 502.448 321.31 502.968 321.31C503.541 321.31 504.048 321.21 504.488 321.011C504.933 320.812 505.281 320.536 505.532 320.18C505.783 319.821 505.909 319.406 505.909 318.938C505.909 318.45 505.783 318.021 505.532 317.652C505.286 317.278 504.924 316.984 504.446 316.771C503.972 316.558 503.399 316.452 502.727 316.452H501.498V314.662H502.727C503.267 314.662 503.74 314.565 504.147 314.371C504.559 314.177 504.881 313.907 505.113 313.561C505.345 313.211 505.461 312.801 505.461 312.332C505.461 311.883 505.359 311.492 505.156 311.161C504.957 310.824 504.673 310.562 504.304 310.372C503.939 310.183 503.508 310.088 503.011 310.088C502.538 310.088 502.095 310.176 501.683 310.351C501.276 310.521 500.944 310.768 500.689 311.089C500.433 311.407 500.296 311.788 500.277 312.233H498.153C498.177 311.447 498.409 310.756 498.849 310.159C499.294 309.562 499.881 309.096 500.61 308.76C501.34 308.424 502.149 308.256 503.039 308.256C503.972 308.256 504.777 308.438 505.454 308.803C506.136 309.162 506.662 309.643 507.031 310.244C507.405 310.846 507.59 311.504 507.585 312.219C507.59 313.033 507.362 313.724 506.903 314.293C506.449 314.861 505.842 315.242 505.085 315.436V315.55C506.051 315.696 506.799 316.08 507.329 316.7C507.864 317.321 508.129 318.09 508.125 319.009C508.129 319.809 507.907 320.526 507.457 321.161C507.012 321.795 506.404 322.295 505.632 322.659C504.86 323.019 503.977 323.199 502.983 323.199ZM515.873 323.241C514.751 323.237 513.792 322.941 512.997 322.354C512.201 321.767 511.593 320.912 511.172 319.79C510.75 318.668 510.539 317.316 510.539 315.734C510.539 314.158 510.75 312.811 511.172 311.693C511.598 310.576 512.208 309.723 513.004 309.136C513.804 308.549 514.761 308.256 515.873 308.256C516.986 308.256 517.94 308.552 518.735 309.143C519.531 309.731 520.139 310.583 520.561 311.7C520.987 312.813 521.2 314.158 521.2 315.734C521.2 317.321 520.989 318.675 520.568 319.797C520.146 320.914 519.538 321.769 518.743 322.361C517.947 322.948 516.991 323.241 515.873 323.241ZM515.873 321.345C516.858 321.345 517.627 320.865 518.181 319.903C518.74 318.942 519.02 317.553 519.02 315.734C519.02 314.527 518.892 313.507 518.636 312.673C518.385 311.835 518.023 311.201 517.549 310.77C517.081 310.334 516.522 310.116 515.873 310.116C514.893 310.116 514.124 310.599 513.565 311.565C513.006 312.531 512.725 313.921 512.72 315.734C512.72 316.946 512.845 317.972 513.096 318.81C513.352 319.643 513.714 320.275 514.183 320.706C514.652 321.132 515.215 321.345 515.873 321.345Z" fill="#0F0F0F"/>
</g>
<path d="M41.2632 237.266C39.4409 237.266 37.818 236.953 36.3943 236.327C34.9788 235.692 33.8602 234.822 33.0385 233.715C32.225 232.601 31.806 231.316 31.7816 229.859H37.1021C37.1346 230.469 37.3339 231.006 37.7 231.47C38.0742 231.926 38.5705 232.28 39.1888 232.532C39.807 232.784 40.5026 232.91 41.2754 232.91C42.0808 232.91 42.7927 232.768 43.4109 232.483C44.0292 232.198 44.5133 231.804 44.8631 231.299C45.2129 230.795 45.3878 230.213 45.3878 229.554C45.3878 228.887 45.2007 228.297 44.8265 227.785C44.4604 227.264 43.9316 226.857 43.2401 226.565C42.5567 226.272 41.7432 226.125 40.7995 226.125H38.4688V222.245H40.7995C41.5968 222.245 42.3005 222.106 42.9106 221.83C43.5289 221.553 44.0089 221.171 44.3506 220.683C44.6922 220.187 44.8631 219.609 44.8631 218.95C44.8631 218.324 44.7126 217.774 44.4116 217.303C44.1187 216.823 43.7038 216.448 43.1669 216.18C42.6381 215.911 42.0198 215.777 41.3121 215.777C40.5962 215.777 39.9413 215.907 39.3474 216.168C38.7535 216.42 38.2776 216.782 37.9197 217.254C37.5617 217.726 37.3705 218.279 37.3461 218.913H32.2819C32.3063 217.473 32.7172 216.204 33.5144 215.106C34.3117 214.008 35.3855 213.15 36.736 212.531C38.0946 211.905 39.6281 211.592 41.3365 211.592C43.0611 211.592 44.5702 211.905 45.8637 212.531C47.1572 213.158 48.1619 214.004 48.8778 215.069C49.6019 216.127 49.9598 217.315 49.9517 218.633C49.9598 220.032 49.5246 221.199 48.646 222.135C47.7755 223.07 46.6406 223.664 45.2414 223.917V224.112C47.0799 224.348 48.4792 224.986 49.4392 226.028C50.4073 227.061 50.8872 228.354 50.8791 229.908C50.8872 231.332 50.4764 232.597 49.6466 233.703C48.825 234.81 47.6901 235.68 46.242 236.315C44.7939 236.949 43.1343 237.266 41.2632 237.266ZM55.6735 232.532V228.371L66.1069 211.933H69.6946V217.693H67.5713L60.9939 228.102V228.297H75.8204V232.532H55.6735ZM67.6689 236.925V231.263L67.7665 229.42V211.933H72.7209V236.925H67.6689ZM89.8432 237.266C88.1185 237.266 86.581 236.949 85.2305 236.315C83.8882 235.68 82.8225 234.806 82.0334 233.691C81.2443 232.577 80.8334 231.299 80.8009 229.859H85.9261C85.983 230.827 86.3898 231.612 87.1464 232.214C87.903 232.817 88.8019 233.118 89.8432 233.118C90.673 233.118 91.4052 232.934 92.0397 232.568C92.6824 232.194 93.1827 231.678 93.5407 231.019C93.9068 230.352 94.0898 229.587 94.0898 228.724C94.0898 227.846 93.9027 227.073 93.5285 226.406C93.1624 225.739 92.6539 225.218 92.0031 224.844C91.3523 224.47 90.6079 224.279 89.77 224.27C89.0378 224.27 88.326 224.421 87.6345 224.722C86.9511 225.023 86.4183 225.434 86.0359 225.954L81.3378 225.112L82.5215 211.933H97.7995V216.253H86.8779L86.2312 222.513H86.3776C86.8169 221.895 87.4799 221.382 88.3667 220.976C89.2534 220.569 90.2459 220.366 91.3442 220.366C92.8492 220.366 94.1915 220.719 95.3711 221.427C96.5507 222.135 97.4822 223.107 98.1656 224.344C98.8489 225.572 99.1865 226.988 99.1784 228.59C99.1865 230.274 98.796 231.771 98.0069 233.081C97.2259 234.383 96.1317 235.408 94.7244 236.156C93.3251 236.896 91.698 237.266 89.8432 237.266ZM113.366 237.266C111.641 237.266 110.104 236.949 108.753 236.315C107.411 235.68 106.345 234.806 105.556 233.691C104.767 232.577 104.356 231.299 104.324 229.859H109.449C109.506 230.827 109.913 231.612 110.669 232.214C111.426 232.817 112.325 233.118 113.366 233.118C114.196 233.118 114.928 232.934 115.562 232.568C116.205 232.194 116.705 231.678 117.063 231.019C117.429 230.352 117.613 229.587 117.613 228.724C117.613 227.846 117.425 227.073 117.051 226.406C116.685 225.739 116.177 225.218 115.526 224.844C114.875 224.47 114.131 224.279 113.293 224.27C112.561 224.27 111.849 224.421 111.157 224.722C110.474 225.023 109.941 225.434 109.559 225.954L104.861 225.112L106.044 211.933H121.322V216.253H110.401L109.754 222.513H109.9C110.34 221.895 111.003 221.382 111.889 220.976C112.776 220.569 113.769 220.366 114.867 220.366C116.372 220.366 117.714 220.719 118.894 221.427C120.073 222.135 121.005 223.107 121.688 224.344C122.372 225.572 122.709 226.988 122.701 228.59C122.709 230.274 122.319 231.771 121.53 233.081C120.749 234.383 119.654 235.408 118.247 236.156C116.848 236.896 115.221 237.266 113.366 237.266ZM136.71 232.532V228.371L147.144 211.933H150.731V217.693H148.608L142.031 228.102V228.297H156.857V232.532H136.71ZM148.706 236.925V231.263L148.803 229.42V211.933H153.758V236.925H148.706ZM170.88 237.266C169.155 237.266 167.618 236.949 166.267 236.315C164.925 235.68 163.859 234.806 163.07 233.691C162.281 232.577 161.87 231.299 161.838 229.859H166.963C167.02 230.827 167.427 231.612 168.183 232.214C168.94 232.817 169.839 233.118 170.88 233.118C171.71 233.118 172.442 232.934 173.077 232.568C173.719 232.194 174.22 231.678 174.578 231.019C174.944 230.352 175.127 229.587 175.127 228.724C175.127 227.846 174.94 227.073 174.565 226.406C174.199 225.739 173.691 225.218 173.04 224.844C172.389 224.47 171.645 224.279 170.807 224.27C170.075 224.27 169.363 224.421 168.671 224.722C167.988 225.023 167.455 225.434 167.073 225.954L162.375 225.112L163.558 211.933H178.836V216.253H167.915L167.268 222.513H167.414C167.854 221.895 168.517 221.382 169.404 220.976C170.29 220.569 171.283 220.366 172.381 220.366C173.886 220.366 175.228 220.719 176.408 221.427C177.588 222.135 178.519 223.107 179.202 224.344C179.886 225.572 180.223 226.988 180.215 228.59C180.223 230.274 179.833 231.771 179.044 233.081C178.263 234.383 177.169 235.408 175.761 236.156C174.362 236.896 172.735 237.266 170.88 237.266ZM194.867 237.266C193.581 237.258 192.341 237.043 191.145 236.62C189.957 236.197 188.891 235.509 187.948 234.557C187.004 233.606 186.255 232.345 185.702 230.775C185.157 229.204 184.885 227.276 184.885 224.99C184.893 222.892 185.133 221.016 185.605 219.365C186.085 217.705 186.768 216.298 187.655 215.143C188.55 213.987 189.619 213.109 190.864 212.507C192.109 211.897 193.504 211.592 195.05 211.592C196.717 211.592 198.19 211.917 199.467 212.568C200.744 213.211 201.769 214.085 202.542 215.192C203.323 216.298 203.795 217.539 203.958 218.913H198.747C198.544 218.043 198.117 217.36 197.466 216.863C196.815 216.367 196.01 216.119 195.05 216.119C193.423 216.119 192.186 216.827 191.34 218.242C190.502 219.658 190.075 221.582 190.059 224.014H190.229C190.604 223.274 191.108 222.643 191.743 222.123C192.385 221.594 193.113 221.191 193.927 220.915C194.749 220.63 195.615 220.488 196.526 220.488C198.007 220.488 199.325 220.837 200.48 221.537C201.635 222.228 202.546 223.18 203.213 224.392C203.88 225.605 204.214 226.992 204.214 228.554C204.214 230.246 203.819 231.751 203.03 233.069C202.249 234.387 201.155 235.42 199.748 236.168C198.348 236.909 196.721 237.275 194.867 237.266ZM194.842 233.118C195.656 233.118 196.384 232.922 197.026 232.532C197.669 232.141 198.174 231.612 198.54 230.945C198.906 230.278 199.089 229.53 199.089 228.7C199.089 227.87 198.906 227.126 198.54 226.467C198.182 225.808 197.685 225.283 197.051 224.893C196.416 224.502 195.692 224.307 194.879 224.307C194.269 224.307 193.703 224.421 193.183 224.649C192.67 224.877 192.219 225.194 191.828 225.601C191.446 226.007 191.145 226.479 190.925 227.016C190.705 227.545 190.596 228.11 190.596 228.712C190.596 229.518 190.779 230.254 191.145 230.921C191.519 231.588 192.023 232.121 192.658 232.52C193.3 232.918 194.029 233.118 194.842 233.118ZM209.335 236.925V233.118L218.231 224.881C218.987 224.148 219.622 223.489 220.134 222.904C220.655 222.318 221.049 221.744 221.318 221.183C221.586 220.614 221.721 219.999 221.721 219.34C221.721 218.608 221.554 217.978 221.22 217.449C220.887 216.912 220.431 216.501 219.854 216.217C219.276 215.924 218.621 215.777 217.889 215.777C217.124 215.777 216.457 215.932 215.888 216.241C215.318 216.55 214.879 216.993 214.57 217.571C214.261 218.149 214.106 218.836 214.106 219.633H209.091C209.091 217.998 209.461 216.579 210.201 215.375C210.941 214.171 211.979 213.239 213.313 212.58C214.647 211.921 216.185 211.592 217.926 211.592C219.715 211.592 221.273 211.909 222.599 212.543C223.933 213.17 224.971 214.04 225.711 215.155C226.451 216.269 226.821 217.547 226.821 218.987C226.821 219.93 226.634 220.862 226.26 221.781C225.894 222.7 225.239 223.721 224.295 224.844C223.352 225.958 222.022 227.297 220.305 228.859L216.656 232.434V232.605H227.151V236.925H209.335ZM242.67 236.925L253.031 216.424V216.253H240.962V211.933H258.497V216.314L248.125 236.925H242.67ZM265.153 236.925L275.513 216.424V216.253H263.444V211.933H280.98V216.314L270.607 236.925H265.153ZM296.848 211.933V236.925H291.564V216.949H291.418L285.695 220.536V215.85L291.882 211.933H296.848ZM313.961 237.474C311.863 237.466 310.057 236.949 308.543 235.924C307.038 234.899 305.879 233.414 305.066 231.47C304.26 229.526 303.862 227.187 303.87 224.453C303.87 221.728 304.272 219.406 305.078 217.486C305.891 215.566 307.051 214.105 308.556 213.105C310.069 212.096 311.871 211.592 313.961 211.592C316.052 211.592 317.85 212.096 319.355 213.105C320.868 214.114 322.032 215.578 322.845 217.498C323.659 219.41 324.061 221.728 324.053 224.453C324.053 227.195 323.646 229.538 322.833 231.482C322.028 233.427 320.872 234.911 319.367 235.936C317.862 236.961 316.06 237.474 313.961 237.474ZM313.961 233.093C315.393 233.093 316.536 232.373 317.39 230.933C318.245 229.493 318.668 227.333 318.66 224.453C318.66 222.558 318.464 220.98 318.074 219.719C317.691 218.458 317.146 217.51 316.439 216.875C315.739 216.241 314.913 215.924 313.961 215.924C312.538 215.924 311.399 216.636 310.545 218.059C309.69 219.483 309.259 221.614 309.251 224.453C309.251 226.373 309.442 227.976 309.825 229.261C310.215 230.539 310.764 231.499 311.472 232.141C312.18 232.776 313.01 233.093 313.961 233.093ZM347.761 237.266C345.938 237.266 344.315 236.953 342.892 236.327C341.476 235.692 340.358 234.822 339.536 233.715C338.722 232.601 338.303 231.316 338.279 229.859H343.6C343.632 230.469 343.831 231.006 344.197 231.47C344.572 231.926 345.068 232.28 345.686 232.532C346.305 232.784 347 232.91 347.773 232.91C348.578 232.91 349.29 232.768 349.908 232.483C350.527 232.198 351.011 231.804 351.361 231.299C351.71 230.795 351.885 230.213 351.885 229.554C351.885 228.887 351.698 228.297 351.324 227.785C350.958 227.264 350.429 226.857 349.738 226.565C349.054 226.272 348.241 226.125 347.297 226.125H344.966V222.245H347.297C348.094 222.245 348.798 222.106 349.408 221.83C350.026 221.553 350.506 221.171 350.848 220.683C351.19 220.187 351.361 219.609 351.361 218.95C351.361 218.324 351.21 217.774 350.909 217.303C350.616 216.823 350.201 216.448 349.664 216.18C349.136 215.911 348.517 215.777 347.81 215.777C347.094 215.777 346.439 215.907 345.845 216.168C345.251 216.42 344.775 216.782 344.417 217.254C344.059 217.726 343.868 218.279 343.844 218.913H338.779C338.804 217.473 339.215 216.204 340.012 215.106C340.809 214.008 341.883 213.15 343.233 212.531C344.592 211.905 346.126 211.592 347.834 211.592C349.559 211.592 351.068 211.905 352.361 212.531C353.655 213.158 354.659 214.004 355.375 215.069C356.099 216.127 356.457 217.315 356.449 218.633C356.457 220.032 356.022 221.199 355.143 222.135C354.273 223.07 353.138 223.664 351.739 223.917V224.112C353.577 224.348 354.977 224.986 355.937 226.028C356.905 227.061 357.385 228.354 357.377 229.908C357.385 231.332 356.974 232.597 356.144 233.703C355.322 234.81 354.188 235.68 352.739 236.315C351.291 236.949 349.632 237.266 347.761 237.266ZM371.677 237.266C369.952 237.266 368.415 236.949 367.064 236.315C365.722 235.68 364.656 234.806 363.867 233.691C363.078 232.577 362.667 231.299 362.635 229.859H367.76C367.817 230.827 368.224 231.612 368.98 232.214C369.737 232.817 370.636 233.118 371.677 233.118C372.507 233.118 373.239 232.934 373.873 232.568C374.516 232.194 375.016 231.678 375.374 231.019C375.741 230.352 375.924 229.587 375.924 228.724C375.924 227.846 375.736 227.073 375.362 226.406C374.996 225.739 374.488 225.218 373.837 224.844C373.186 224.47 372.442 224.279 371.604 224.27C370.872 224.27 370.16 224.421 369.468 224.722C368.785 225.023 368.252 225.434 367.87 225.954L363.172 225.112L364.355 211.933H379.633V216.253H368.712L368.065 222.513H368.211C368.651 221.895 369.314 221.382 370.2 220.976C371.087 220.569 372.08 220.366 373.178 220.366C374.683 220.366 376.025 220.719 377.205 221.427C378.384 222.135 379.316 223.107 379.999 224.344C380.683 225.572 381.02 226.988 381.012 228.59C381.02 230.274 380.63 231.771 379.841 233.081C379.06 234.383 377.966 235.408 376.558 236.156C375.159 236.896 373.532 237.266 371.677 237.266ZM395.871 237.474C393.772 237.466 391.966 236.949 390.453 235.924C388.948 234.899 387.789 233.414 386.975 231.47C386.17 229.526 385.771 227.187 385.779 224.453C385.779 221.728 386.182 219.406 386.987 217.486C387.801 215.566 388.96 214.105 390.465 213.105C391.978 212.096 393.78 211.592 395.871 211.592C397.962 211.592 399.76 212.096 401.265 213.105C402.778 214.114 403.941 215.578 404.755 217.498C405.568 219.41 405.971 221.728 405.963 224.453C405.963 227.195 405.556 229.538 404.742 231.482C403.937 233.427 402.782 234.911 401.277 235.936C399.772 236.961 397.97 237.474 395.871 237.474ZM395.871 233.093C397.303 233.093 398.446 232.373 399.3 230.933C400.154 229.493 400.577 227.333 400.569 224.453C400.569 222.558 400.374 220.98 399.983 219.719C399.601 218.458 399.056 217.51 398.348 216.875C397.648 216.241 396.823 215.924 395.871 215.924C394.447 215.924 393.308 216.636 392.454 218.059C391.6 219.483 391.169 221.614 391.161 224.453C391.161 226.373 391.352 227.976 391.734 229.261C392.125 230.539 392.674 231.499 393.381 232.141C394.089 232.776 394.919 233.093 395.871 233.093ZM411.422 236.925L421.782 216.424V216.253H409.714V211.933H427.249V216.314L416.877 236.925H411.422Z" fill="url(#paint1_linear_2383_519)"/>
</g>
<g opacity="0.7">
<rect x="33.7" y="31.7" width="48.1444" height="36.3481" rx="6.55" fill="#828282" fill-opacity="0.26" stroke="#696969" stroke-width="1.4"/>
<path d="M33.7741 42.612H46.4059C48.4079 42.612 50.0309 44.2349 50.0309 46.237V51.708M50.0309 68.0035V60.8041M50.0309 60.8041V51.708M50.0309 60.8041H33.7741M50.0309 51.708H33.7741" stroke="#696969" stroke-width="1.4"/>
<path d="M81.7703 42.612H66.2876M66.2876 42.612V51.708M66.2876 42.612V31.7741M66.2876 68.0035V60.8041M66.2876 60.8041V51.708M66.2876 60.8041H81.7703M66.2876 51.708H81.7703" stroke="#696969" stroke-width="1.4"/>
</g>
<path fill-rule="evenodd" clip-rule="evenodd" d="M491.317 57.8585L491.311 57.867L491.304 57.8757C490.962 58.3612 490.194 58.5038 489.593 58.0796C489.112 57.7401 488.968 56.9835 489.377 56.3855C489.988 55.6069 490.432 54.6966 490.723 53.8067C491.026 52.8803 491.167 51.8275 491.162 50.7951C491.156 49.7626 491.004 48.7114 490.691 47.7883C490.39 46.9016 489.937 45.996 489.318 45.2239C488.902 44.6304 489.038 43.8723 489.516 43.5276C490.112 43.0971 490.881 43.2315 491.229 43.7133L491.235 43.7219L491.242 43.7304C492.012 44.7465 492.644 45.8754 493.022 46.983C493.42 48.2859 493.673 49.5463 493.679 50.7817C493.686 52.0817 493.562 53.3121 493.085 54.5234C492.565 55.8426 492.062 56.8536 491.317 57.8585ZM496.888 60.2714L496.903 60.2501L496.917 60.2279C498.625 57.4917 499.61 54.1899 499.592 50.7502C499.573 47.3113 498.554 44.021 496.818 41.3035C496.441 40.7068 496.61 40.0014 497.245 39.5433C497.67 39.2357 498.47 39.3446 498.944 39.9804C500.905 43.0903 502.089 46.8496 502.109 50.7368C502.131 54.7566 500.988 58.3939 499.059 61.5265C498.613 62.1406 497.93 62.3127 497.341 61.9646C496.702 61.4968 496.586 60.7 496.888 60.2714ZM506.886 35.8927L506.903 35.926L506.922 35.9577C509.578 40.2879 511.054 45.2827 511.083 50.689C511.112 56.0928 509.69 61.1009 507.083 65.4577C506.683 66.1005 506.008 66.2817 505.324 65.9632C504.701 65.5574 504.534 64.8849 504.859 64.2056C507.077 60.2675 508.456 55.6268 508.429 50.7031C508.403 45.8014 507.122 41.1681 504.711 37.2297C504.385 36.5572 504.546 35.8874 505.162 35.477C505.904 35.1223 506.627 35.3823 506.886 35.8927ZM514.75 31.7718L514.762 31.7945L514.774 31.8165C517.993 37.38 519.884 43.7407 519.921 50.6419C519.957 57.5361 518.138 63.9105 514.985 69.5038C514.584 70.1392 513.913 70.3171 513.232 70.0002C512.611 69.5957 512.443 68.9261 512.764 68.249C515.802 63.0647 517.437 57.0584 517.403 50.6553C517.369 44.2357 515.525 38.2527 512.58 33.1195C512.212 32.3702 512.472 31.6363 512.987 31.3753C513.743 30.9923 514.487 31.2523 514.75 31.7718Z" fill="url(#paint2_linear_2383_519)"/>
<path d="M33 278.161L523 278.161" stroke="#0F0F0F" stroke-opacity="0.32"/>
<defs>
<filter id="filter0_d_2383_519" x="461.129" y="307.773" width="64.0707" height="25.4148" filterUnits="userSpaceOnUse" color-interpolation-filters="sRGB">
<feFlood flood-opacity="0" result="BackgroundImageFix"/>
<feColorMatrix in="SourceAlpha" type="matrix" values="0 0 0 0 0 0 0 0 0 0 0 0 0 0 0 0 0 0 127 0" result="hardAlpha"/>
<feOffset dy="4"/>
<feGaussianBlur stdDeviation="2"/>
<feComposite in2="hardAlpha" operator="out"/>
<feColorMatrix type="matrix" values="0 0 0 0 0.3625 0 0 0 0 0.3625 0 0 0 0 0.3625 0 0 0 0.16 0"/>
<feBlend mode="normal" in2="BackgroundImageFix" result="effect1_dropShadow_2383_519"/>
<feBlend mode="normal" in="SourceGraphic" in2="effect1_dropShadow_2383_519" result="shape"/>
</filter>
<linearGradient id="paint0_linear_2383_519" x1="2.65186e-06" y1="153.672" x2="561" y2="177.5" gradientUnits="userSpaceOnUse">
<stop offset="0.00638632" stop-color="white" stop-opacity="0.32"/>
<stop offset="1" stop-color="#FBFBFB" stop-opacity="0.37"/>
</linearGradient>
<linearGradient id="paint1_linear_2383_519" x1="229.5" y1="203.925" x2="229.5" y2="245.925" gradientUnits="userSpaceOnUse">
<stop stop-color="#0F0F0F" stop-opacity="0.89"/>
<stop offset="1" stop-color="#151515"/>
</linearGradient>
<linearGradient id="paint2_linear_2383_519" x1="504.409" y1="31.242" x2="504.616" y2="70.203" gradientUnits="userSpaceOnUse">
<stop stop-color="#1A1A1A" stop-opacity="0.84"/>
<stop offset="1" stop-color="#101010"/>
</linearGradient>
</defs>
</svg>