<svg width="561" height="355" viewBox="0 0 561 355" fill="none" xmlns="http://www.w3.org/2000/svg">
<rect width="561" height="355" fill="#1A2036"/>
<mask id="mask0_2383_638" style="mask-type:alpha" maskUnits="userSpaceOnUse" x="0" y="0" width="561" height="355">
<rect width="561" height="355" fill="#16084C"/>
<rect width="561" height="355" fill="url(#paint0_linear_2383_638)" fill-opacity="0.5"/>
</mask>
<g mask="url(#mask0_2383_638)">
<rect x="198" y="-18.2266" width="370.079" height="468.83" transform="rotate(-21.6628 198 -18.2266)" fill="url(#paint1_linear_2383_638)" fill-opacity="0.1"/>
</g>
<g filter="url(#filter0_d_2383_638)">
<path d="M45.4553 191.378C43.4401 191.378 41.6454 191.031 40.071 190.339C38.5057 189.637 37.2687 188.674 36.3601 187.451C35.4605 186.219 34.9972 184.797 34.9702 183.187H40.8537C40.8897 183.862 41.1101 184.455 41.5149 184.968C41.9287 185.472 42.4775 185.863 43.1612 186.142C43.8449 186.421 44.6141 186.56 45.4688 186.56C46.3594 186.56 47.1465 186.403 47.8303 186.088C48.514 185.773 49.0492 185.337 49.4361 184.779C49.8229 184.221 50.0163 183.578 50.0163 182.849C50.0163 182.112 49.8094 181.46 49.3956 180.893C48.9908 180.317 48.406 179.867 47.6413 179.543C46.8857 179.219 45.986 179.058 44.9425 179.058H42.3651V174.766H44.9425C45.8241 174.766 46.6023 174.613 47.277 174.308C47.9607 174.002 48.4915 173.579 48.8693 173.039C49.2472 172.49 49.4361 171.852 49.4361 171.123C49.4361 170.43 49.2697 169.823 48.9368 169.301C48.6129 168.77 48.1541 168.357 47.5604 168.06C46.9756 167.763 46.2919 167.614 45.5092 167.614C44.7176 167.614 43.9934 167.758 43.3366 168.046C42.6799 168.325 42.1536 168.725 41.7578 169.247C41.362 169.769 41.1506 170.381 41.1236 171.082H35.5234C35.5504 169.49 36.0047 168.087 36.8864 166.872C37.768 165.658 38.9555 164.709 40.4489 164.025C41.9512 163.332 43.647 162.986 45.5362 162.986C47.4434 162.986 49.1122 163.332 50.5426 164.025C51.973 164.718 53.084 165.653 53.8757 166.832C54.6764 168.001 55.0722 169.315 55.0632 170.772C55.0722 172.319 54.5909 173.61 53.6193 174.645C52.6567 175.679 51.4018 176.336 49.8544 176.615V176.831C51.8875 177.092 53.4349 177.798 54.4965 178.95C55.567 180.092 56.0978 181.522 56.0888 183.241C56.0978 184.815 55.6435 186.214 54.7259 187.438C53.8172 188.661 52.5623 189.624 50.9609 190.325C49.3596 191.027 47.5244 191.378 45.4553 191.378ZM61.3906 186.142V181.54L72.9282 163.364H76.8955V169.733H74.5475L67.2741 181.244V181.46H83.6697V186.142H61.3906ZM74.6555 191V184.739L74.7634 182.701V163.364H80.2421V191H74.6555ZM99.1765 191.378C97.2693 191.378 95.5691 191.027 94.0757 190.325C92.5913 189.624 91.4128 188.656 90.5402 187.424C89.6675 186.192 89.2132 184.779 89.1773 183.187H94.8449C94.9078 184.257 95.3577 185.125 96.1943 185.791C97.0309 186.457 98.025 186.79 99.1765 186.79C100.094 186.79 100.904 186.587 101.606 186.183C102.316 185.769 102.869 185.197 103.265 184.469C103.67 183.731 103.873 182.885 103.873 181.932C103.873 180.96 103.666 180.106 103.252 179.368C102.847 178.63 102.285 178.054 101.565 177.641C100.845 177.227 100.022 177.015 99.0956 177.006C98.2859 177.006 97.4987 177.173 96.7341 177.506C95.9784 177.839 95.3891 178.293 94.9663 178.869L89.771 177.938L91.08 163.364H107.975V168.141H95.8974L95.1822 175.063H95.3442C95.83 174.379 96.5631 173.813 97.5437 173.363C98.5243 172.913 99.6219 172.688 100.836 172.688C102.501 172.688 103.985 173.08 105.289 173.862C106.594 174.645 107.624 175.72 108.38 177.087C109.135 178.446 109.509 180.011 109.5 181.783C109.509 183.646 109.077 185.301 108.204 186.749C107.341 188.189 106.131 189.322 104.574 190.15C103.027 190.969 101.228 191.378 99.1765 191.378ZM125.189 191.378C123.282 191.378 121.581 191.027 120.088 190.325C118.603 189.624 117.425 188.656 116.552 187.424C115.68 186.192 115.225 184.779 115.189 183.187H120.857C120.92 184.257 121.37 185.125 122.206 185.791C123.043 186.457 124.037 186.79 125.189 186.79C126.106 186.79 126.916 186.587 127.618 186.183C128.328 185.769 128.882 185.197 129.278 184.469C129.682 183.731 129.885 182.885 129.885 181.932C129.885 180.96 129.678 180.106 129.264 179.368C128.859 178.63 128.297 178.054 127.577 177.641C126.858 177.227 126.034 177.015 125.108 177.006C124.298 177.006 123.511 177.173 122.746 177.506C121.991 177.839 121.401 178.293 120.978 178.869L115.783 177.938L117.092 163.364H133.987V168.141H121.91L121.194 175.063H121.356C121.842 174.379 122.575 173.813 123.556 173.363C124.537 172.913 125.634 172.688 126.849 172.688C128.513 172.688 129.997 173.08 131.302 173.862C132.606 174.645 133.636 175.72 134.392 177.087C135.148 178.446 135.521 180.011 135.512 181.783C135.521 183.646 135.089 185.301 134.216 186.749C133.353 188.189 132.143 189.322 130.586 190.15C129.039 190.969 127.24 191.378 125.189 191.378ZM151.004 186.142V181.54L162.541 163.364H166.509V169.733H164.161L156.887 181.244V181.46H173.283V186.142H151.004ZM164.269 191V184.739L164.377 182.701V163.364H169.855V191H164.269ZM188.79 191.378C186.883 191.378 185.182 191.027 183.689 190.325C182.205 189.624 181.026 188.656 180.153 187.424C179.281 186.192 178.826 184.779 178.79 183.187H184.458C184.521 184.257 184.971 185.125 185.807 185.791C186.644 186.457 187.638 186.79 188.79 186.79C189.707 186.79 190.517 186.587 191.219 186.183C191.929 185.769 192.483 185.197 192.879 184.469C193.283 183.731 193.486 182.885 193.486 181.932C193.486 180.96 193.279 180.106 192.865 179.368C192.46 178.63 191.898 178.054 191.178 177.641C190.459 177.227 189.635 177.015 188.709 177.006C187.899 177.006 187.112 177.173 186.347 177.506C185.592 177.839 185.002 178.293 184.58 178.869L179.384 177.938L180.693 163.364H197.588V168.141H185.511L184.795 175.063H184.957C185.443 174.379 186.176 173.813 187.157 173.363C188.138 172.913 189.235 172.688 190.45 172.688C192.114 172.688 193.598 173.08 194.903 173.862C196.207 174.645 197.237 175.72 197.993 177.087C198.749 178.446 199.122 180.011 199.113 181.783C199.122 183.646 198.69 185.301 197.817 186.749C196.954 188.189 195.744 189.322 194.187 190.15C192.64 190.969 190.841 191.378 188.79 191.378ZM215.315 191.378C213.893 191.369 212.521 191.13 211.199 190.663C209.886 190.195 208.707 189.435 207.663 188.382C206.62 187.33 205.792 185.935 205.18 184.199C204.578 182.463 204.276 180.33 204.276 177.803C204.285 175.482 204.551 173.408 205.073 171.582C205.603 169.746 206.359 168.19 207.34 166.913C208.329 165.635 209.512 164.664 210.889 163.998C212.265 163.323 213.808 162.986 215.517 162.986C217.361 162.986 218.99 163.346 220.402 164.065C221.814 164.776 222.948 165.743 223.803 166.967C224.666 168.19 225.188 169.562 225.368 171.082H219.606C219.381 170.12 218.909 169.364 218.189 168.815C217.469 168.267 216.579 167.992 215.517 167.992C213.718 167.992 212.35 168.775 211.415 170.34C210.488 171.906 210.016 174.033 209.998 176.723H210.187C210.601 175.904 211.158 175.207 211.86 174.631C212.571 174.047 213.376 173.601 214.276 173.295C215.184 172.981 216.142 172.823 217.15 172.823C218.787 172.823 220.245 173.21 221.522 173.984C222.8 174.748 223.807 175.801 224.545 177.141C225.283 178.482 225.651 180.016 225.651 181.743C225.651 183.614 225.215 185.278 224.342 186.736C223.479 188.193 222.269 189.336 220.712 190.163C219.165 190.982 217.366 191.387 215.315 191.378ZM215.288 186.79C216.187 186.79 216.993 186.574 217.703 186.142C218.414 185.71 218.972 185.125 219.377 184.388C219.781 183.65 219.984 182.822 219.984 181.905C219.984 180.987 219.781 180.164 219.377 179.435C218.981 178.707 218.432 178.126 217.73 177.695C217.028 177.263 216.228 177.047 215.328 177.047C214.653 177.047 214.028 177.173 213.452 177.425C212.886 177.677 212.386 178.027 211.955 178.477C211.532 178.927 211.199 179.449 210.956 180.043C210.713 180.627 210.592 181.253 210.592 181.918C210.592 182.809 210.794 183.623 211.199 184.361C211.613 185.098 212.171 185.688 212.872 186.129C213.583 186.569 214.388 186.79 215.288 186.79ZM231.314 191V186.79L241.151 177.681C241.988 176.871 242.69 176.143 243.257 175.495C243.832 174.847 244.269 174.213 244.566 173.592C244.862 172.963 245.011 172.283 245.011 171.555C245.011 170.745 244.826 170.048 244.458 169.463C244.089 168.869 243.585 168.415 242.946 168.1C242.307 167.776 241.583 167.614 240.774 167.614C239.928 167.614 239.19 167.785 238.561 168.127C237.931 168.469 237.445 168.959 237.103 169.598C236.761 170.237 236.59 170.997 236.59 171.879H231.044C231.044 170.07 231.454 168.5 232.272 167.169C233.091 165.838 234.238 164.808 235.713 164.079C237.189 163.35 238.889 162.986 240.814 162.986C242.793 162.986 244.516 163.337 245.982 164.038C247.458 164.731 248.605 165.694 249.423 166.926C250.242 168.159 250.651 169.571 250.651 171.163C250.651 172.207 250.445 173.237 250.031 174.254C249.626 175.27 248.902 176.399 247.858 177.641C246.815 178.873 245.344 180.353 243.446 182.08L239.411 186.034V186.223H251.016V191H231.314ZM268.178 191L279.634 168.33V168.141H266.288V163.364H285.68V168.208L274.21 191H268.178ZM293.039 191L304.496 168.33V168.141H291.15V163.364H310.542V168.208L299.071 191H293.039ZM328.089 163.364V191H322.246V168.91H322.084L315.756 172.877V167.695L322.597 163.364H328.089ZM347.014 191.607C344.693 191.598 342.696 191.027 341.022 189.893C339.358 188.76 338.076 187.118 337.176 184.968C336.286 182.818 335.845 180.232 335.854 177.209C335.854 174.195 336.299 171.627 337.19 169.504C338.089 167.38 339.371 165.766 341.036 164.659C342.709 163.544 344.702 162.986 347.014 162.986C349.326 162.986 351.314 163.544 352.978 164.659C354.652 165.775 355.938 167.394 356.838 169.517C357.737 171.631 358.183 174.195 358.174 177.209C358.174 180.241 357.724 182.831 356.824 184.982C355.933 187.132 354.656 188.773 352.992 189.907C351.327 191.04 349.335 191.607 347.014 191.607ZM347.014 186.763C348.597 186.763 349.861 185.967 350.806 184.374C351.75 182.782 352.218 180.393 352.209 177.209C352.209 175.113 351.993 173.367 351.561 171.973C351.139 170.579 350.536 169.531 349.753 168.829C348.979 168.127 348.066 167.776 347.014 167.776C345.439 167.776 344.18 168.563 343.235 170.138C342.291 171.712 341.814 174.069 341.805 177.209C341.805 179.332 342.016 181.104 342.439 182.526C342.871 183.938 343.478 185 344.261 185.71C345.044 186.412 345.961 186.763 347.014 186.763ZM384.39 191.378C382.375 191.378 380.58 191.031 379.006 190.339C377.44 189.637 376.203 188.674 375.295 187.451C374.395 186.219 373.932 184.797 373.905 183.187H379.788C379.824 183.862 380.045 184.455 380.45 184.968C380.863 185.472 381.412 185.863 382.096 186.142C382.78 186.421 383.549 186.56 384.404 186.56C385.294 186.56 386.081 186.403 386.765 186.088C387.449 185.773 387.984 185.337 388.371 184.779C388.758 184.221 388.951 183.578 388.951 182.849C388.951 182.112 388.744 181.46 388.33 180.893C387.926 180.317 387.341 179.867 386.576 179.543C385.82 179.219 384.921 179.058 383.877 179.058H381.3V174.766H383.877C384.759 174.766 385.537 174.613 386.212 174.308C386.895 174.002 387.426 173.579 387.804 173.039C388.182 172.49 388.371 171.852 388.371 171.123C388.371 170.43 388.204 169.823 387.872 169.301C387.548 168.77 387.089 168.357 386.495 168.06C385.91 167.763 385.227 167.614 384.444 167.614C383.652 167.614 382.928 167.758 382.271 168.046C381.615 168.325 381.088 168.725 380.693 169.247C380.297 169.769 380.085 170.381 380.058 171.082H374.458C374.485 169.49 374.939 168.087 375.821 166.872C376.703 165.658 377.89 164.709 379.384 164.025C380.886 163.332 382.582 162.986 384.471 162.986C386.378 162.986 388.047 163.332 389.477 164.025C390.908 164.718 392.019 165.653 392.81 166.832C393.611 168.001 394.007 169.315 393.998 170.772C394.007 172.319 393.526 173.61 392.554 174.645C391.591 175.679 390.337 176.336 388.789 176.615V176.831C390.822 177.092 392.37 177.798 393.431 178.95C394.502 180.092 395.033 181.522 395.024 183.241C395.033 184.815 394.578 186.214 393.661 187.438C392.752 188.661 391.497 189.624 389.896 190.325C388.294 191.027 386.459 191.378 384.39 191.378ZM410.837 191.378C408.93 191.378 407.23 191.027 405.737 190.325C404.252 189.624 403.074 188.656 402.201 187.424C401.328 186.192 400.874 184.779 400.838 183.187H406.506C406.569 184.257 407.019 185.125 407.855 185.791C408.692 186.457 409.686 186.79 410.837 186.79C411.755 186.79 412.565 186.587 413.266 186.183C413.977 185.769 414.53 185.197 414.926 184.469C415.331 183.731 415.533 182.885 415.533 181.932C415.533 180.96 415.327 180.106 414.913 179.368C414.508 178.63 413.946 178.054 413.226 177.641C412.506 177.227 411.683 177.015 410.756 177.006C409.947 177.006 409.16 177.173 408.395 177.506C407.639 177.839 407.05 178.293 406.627 178.869L401.432 177.938L402.741 163.364H419.636V168.141H407.558L406.843 175.063H407.005C407.491 174.379 408.224 173.813 409.205 173.363C410.185 172.913 411.283 172.688 412.497 172.688C414.162 172.688 415.646 173.08 416.95 173.862C418.255 174.645 419.285 175.72 420.041 177.087C420.796 178.446 421.17 180.011 421.161 181.783C421.17 183.646 420.738 185.301 419.865 186.749C419.001 188.189 417.791 189.322 416.235 190.15C414.688 190.969 412.889 191.378 410.837 191.378ZM437.592 191.607C435.271 191.598 433.274 191.027 431.6 189.893C429.936 188.76 428.654 187.118 427.754 184.968C426.864 182.818 426.423 180.232 426.432 177.209C426.432 174.195 426.877 171.627 427.768 169.504C428.668 167.38 429.949 165.766 431.614 164.659C433.287 163.544 435.28 162.986 437.592 162.986C439.904 162.986 441.892 163.544 443.556 164.659C445.23 165.775 446.516 167.394 447.416 169.517C448.315 171.631 448.761 174.195 448.752 177.209C448.752 180.241 448.302 182.831 447.402 184.982C446.512 187.132 445.234 188.773 443.57 189.907C441.905 191.04 439.913 191.607 437.592 191.607ZM437.592 186.763C439.175 186.763 440.439 185.967 441.384 184.374C442.328 182.782 442.796 180.393 442.787 177.209C442.787 175.113 442.571 173.367 442.139 171.973C441.717 170.579 441.114 169.531 440.331 168.829C439.557 168.127 438.644 167.776 437.592 167.776C436.017 167.776 434.758 168.563 433.813 170.138C432.869 171.712 432.392 174.069 432.383 177.209C432.383 179.332 432.594 181.104 433.017 182.526C433.449 183.938 434.056 185 434.839 185.71C435.622 186.412 436.539 186.763 437.592 186.763ZM454.789 191L466.245 168.33V168.141H452.9V163.364H472.291V168.208L460.821 191H454.789Z" fill="url(#paint2_linear_2383_638)" shape-rendering="crispEdges"/>
</g>
<g filter="url(#filter1_di_2383_638)">
<path d="M34.2642 289.884H38.0568L42.0625 299.657H42.233L46.2386 289.884H50.0312V304.43H47.0483V294.962H46.9276L43.1634 304.359H41.1321L37.3679 294.927H37.2472V304.43H34.2642V289.884ZM52.5082 304.43V293.521H55.5337V304.43H52.5082ZM54.0281 292.114C53.5782 292.114 53.1924 291.965 52.8704 291.667C52.5531 291.364 52.3945 291.002 52.3945 290.58C52.3945 290.164 52.5531 289.806 52.8704 289.508C53.1924 289.205 53.5782 289.053 54.0281 289.053C54.4779 289.053 54.8614 289.205 55.1786 289.508C55.5006 289.806 55.6616 290.164 55.6616 290.58C55.6616 291.002 55.5006 291.364 55.1786 291.667C54.8614 291.965 54.4779 292.114 54.0281 292.114ZM62.8864 304.643C61.7689 304.643 60.8078 304.406 60.0028 303.933C59.2027 303.454 58.5871 302.791 58.1562 301.944C57.7301 301.096 57.517 300.121 57.517 299.018C57.517 297.9 57.7325 296.92 58.1634 296.077C58.599 295.23 59.2169 294.569 60.017 294.096C60.8172 293.618 61.7689 293.379 62.8722 293.379C63.8239 293.379 64.6572 293.551 65.3722 293.897C66.0871 294.243 66.6529 294.728 67.0696 295.353C67.4863 295.978 67.7159 296.712 67.7585 297.555H64.9034C64.8229 297.01 64.6098 296.572 64.2642 296.241C63.9233 295.905 63.4759 295.737 62.9219 295.737C62.4531 295.737 62.0436 295.864 61.6932 296.12C61.3475 296.371 61.0777 296.738 60.8835 297.221C60.6894 297.704 60.5923 298.289 60.5923 298.975C60.5923 299.671 60.687 300.263 60.8764 300.751C61.0705 301.238 61.3428 301.61 61.6932 301.866C62.0436 302.121 62.4531 302.249 62.9219 302.249C63.2675 302.249 63.5777 302.178 63.8523 302.036C64.1316 301.894 64.3613 301.688 64.5412 301.418C64.7259 301.144 64.8466 300.815 64.9034 300.431H67.7585C67.7112 301.264 67.4839 301.998 67.0767 302.633C66.6742 303.263 66.1179 303.755 65.4077 304.11C64.6974 304.465 63.857 304.643 62.8864 304.643ZM72.7212 298.123V304.43H69.6957V289.884H72.636V295.445H72.7638C73.0101 294.801 73.4078 294.297 73.957 293.933C74.5063 293.563 75.1952 293.379 76.0238 293.379C76.7814 293.379 77.4419 293.544 78.0053 293.876C78.5735 294.202 79.0138 294.674 79.3263 295.289C79.6436 295.9 79.7998 296.631 79.7951 297.484V304.43H76.7695V298.023C76.7743 297.351 76.6038 296.828 76.2582 296.454C75.9173 296.08 75.439 295.893 74.8235 295.893C74.4116 295.893 74.047 295.98 73.7298 296.156C73.4173 296.331 73.171 296.586 72.9911 296.923C72.8159 297.254 72.726 297.654 72.7212 298.123ZM85.2869 304.636C84.5909 304.636 83.9706 304.515 83.4261 304.273C82.8816 304.027 82.4508 303.665 82.1335 303.187C81.821 302.704 81.6648 302.103 81.6648 301.383C81.6648 300.777 81.776 300.268 81.9986 299.856C82.2211 299.444 82.5241 299.112 82.9077 298.862C83.2912 298.611 83.7268 298.421 84.2145 298.293C84.7069 298.165 85.223 298.076 85.7628 298.023C86.3973 297.957 86.9086 297.896 87.2969 297.839C87.6851 297.777 87.9669 297.687 88.142 297.569C88.3172 297.451 88.4048 297.275 88.4048 297.043V297.001C88.4048 296.551 88.2628 296.203 87.9787 295.957C87.6993 295.71 87.3016 295.587 86.7855 295.587C86.241 295.587 85.8078 295.708 85.4858 295.95C85.1638 296.186 84.9508 296.485 84.8466 296.844L82.0483 296.617C82.1903 295.954 82.4697 295.381 82.8864 294.898C83.303 294.411 83.8404 294.037 84.4986 293.776C85.1615 293.511 85.9285 293.379 86.7997 293.379C87.4058 293.379 87.9858 293.45 88.5398 293.592C89.0985 293.734 89.5933 293.954 90.0241 294.252C90.4598 294.55 90.803 294.934 91.054 295.403C91.3049 295.867 91.4304 296.423 91.4304 297.072V304.43H88.5611V302.917H88.4759C88.3007 303.258 88.0663 303.558 87.7727 303.819C87.4792 304.075 87.1264 304.276 86.7145 304.423C86.3026 304.565 85.8267 304.636 85.2869 304.636ZM86.1534 302.548C86.5985 302.548 86.9915 302.46 87.3324 302.285C87.6733 302.105 87.9408 301.863 88.1349 301.56C88.3291 301.257 88.4261 300.914 88.4261 300.531V299.373C88.3314 299.434 88.2012 299.491 88.0355 299.543C87.8745 299.591 87.6922 299.636 87.4886 299.678C87.285 299.716 87.0814 299.752 86.8778 299.785C86.6742 299.813 86.4896 299.839 86.3239 299.863C85.9688 299.915 85.6586 299.998 85.3935 300.112C85.1283 300.225 84.9223 300.379 84.7756 300.573C84.6288 300.763 84.5554 300.999 84.5554 301.283C84.5554 301.695 84.7045 302.01 85.0028 302.228C85.3059 302.441 85.6894 302.548 86.1534 302.548ZM98.7493 304.643C97.6271 304.643 96.6612 304.415 95.8516 303.961C95.0466 303.502 94.4264 302.853 93.9908 302.015C93.5552 301.172 93.3374 300.175 93.3374 299.025C93.3374 297.903 93.5552 296.918 93.9908 296.07C94.4264 295.223 95.0395 294.562 95.8303 294.089C96.6257 293.615 97.5585 293.379 98.6286 293.379C99.3482 293.379 100.018 293.495 100.638 293.727C101.263 293.954 101.808 294.297 102.272 294.756C102.741 295.216 103.105 295.793 103.366 296.489C103.626 297.181 103.756 297.99 103.756 298.918V299.749H94.5447V297.874H100.908C100.908 297.439 100.814 297.053 100.624 296.717C100.435 296.38 100.172 296.118 99.8359 295.928C99.5045 295.734 99.1186 295.637 98.6783 295.637C98.219 295.637 97.8118 295.744 97.4567 295.957C97.1063 296.165 96.8317 296.447 96.6328 296.802C96.4339 297.152 96.3321 297.543 96.3274 297.974V299.756C96.3274 300.296 96.4268 300.763 96.6257 301.156C96.8293 301.549 97.1158 301.852 97.4851 302.065C97.8544 302.278 98.2924 302.384 98.799 302.384C99.1352 302.384 99.4429 302.337 99.7223 302.242C100.002 302.147 100.241 302.005 100.44 301.816C100.638 301.627 100.79 301.395 100.894 301.12L103.692 301.305C103.55 301.977 103.259 302.564 102.819 303.066C102.383 303.563 101.82 303.951 101.129 304.231C100.442 304.505 99.6489 304.643 98.7493 304.643ZM108.756 289.884V304.43H105.731V289.884H108.756ZM118.373 304.43H115.077L120.099 289.884H124.062L129.076 304.43H125.781L122.137 293.208H122.023L118.373 304.43ZM118.167 298.712H125.951V301.113H118.167V298.712ZM133.795 298.123V304.43H130.77V293.521H133.653V295.445H133.781C134.023 294.811 134.428 294.309 134.996 293.94C135.564 293.566 136.253 293.379 137.062 293.379C137.82 293.379 138.481 293.544 139.044 293.876C139.607 294.207 140.045 294.681 140.358 295.296C140.67 295.907 140.827 296.636 140.827 297.484V304.43H137.801V298.023C137.806 297.356 137.635 296.835 137.29 296.461C136.944 296.082 136.468 295.893 135.862 295.893C135.455 295.893 135.095 295.98 134.783 296.156C134.475 296.331 134.233 296.586 134.058 296.923C133.888 297.254 133.8 297.654 133.795 298.123ZM147.231 304.607C146.403 304.607 145.652 304.394 144.98 303.968C144.312 303.537 143.782 302.905 143.389 302.072C143.001 301.234 142.806 300.206 142.806 298.989C142.806 297.739 143.008 296.7 143.41 295.871C143.813 295.038 144.348 294.415 145.015 294.004C145.688 293.587 146.424 293.379 147.224 293.379C147.835 293.379 148.344 293.483 148.751 293.691C149.163 293.895 149.494 294.15 149.745 294.458C150.001 294.761 150.195 295.059 150.328 295.353H150.42V289.884H153.439V304.43H150.456V302.683H150.328C150.186 302.986 149.984 303.286 149.724 303.585C149.468 303.878 149.135 304.122 148.723 304.316C148.315 304.51 147.818 304.607 147.231 304.607ZM148.19 302.2C148.678 302.2 149.09 302.067 149.426 301.802C149.767 301.532 150.027 301.156 150.207 300.673C150.392 300.19 150.484 299.624 150.484 298.975C150.484 298.326 150.394 297.763 150.214 297.285C150.034 296.807 149.774 296.437 149.433 296.177C149.092 295.916 148.678 295.786 148.19 295.786C147.693 295.786 147.274 295.921 146.933 296.191C146.592 296.461 146.334 296.835 146.159 297.313C145.984 297.791 145.896 298.345 145.896 298.975C145.896 299.61 145.984 300.171 146.159 300.658C146.339 301.141 146.597 301.52 146.933 301.795C147.274 302.065 147.693 302.2 148.19 302.2ZM155.926 304.43V293.521H158.859V295.424H158.973C159.172 294.747 159.506 294.236 159.974 293.89C160.443 293.54 160.983 293.364 161.594 293.364C161.745 293.364 161.909 293.374 162.084 293.393C162.259 293.412 162.413 293.438 162.545 293.471V296.156C162.403 296.113 162.207 296.075 161.956 296.042C161.705 296.009 161.475 295.992 161.267 295.992C160.822 295.992 160.424 296.089 160.074 296.283C159.728 296.473 159.454 296.738 159.25 297.079C159.051 297.42 158.952 297.813 158.952 298.258V304.43H155.926ZM168.574 304.643C167.451 304.643 166.485 304.415 165.676 303.961C164.871 303.502 164.251 302.853 163.815 302.015C163.379 301.172 163.162 300.175 163.162 299.025C163.162 297.903 163.379 296.918 163.815 296.07C164.251 295.223 164.864 294.562 165.654 294.089C166.45 293.615 167.383 293.379 168.453 293.379C169.172 293.379 169.842 293.495 170.463 293.727C171.088 293.954 171.632 294.297 172.096 294.756C172.565 295.216 172.93 295.793 173.19 296.489C173.45 297.181 173.581 297.99 173.581 298.918V299.749H164.369V297.874H170.733C170.733 297.439 170.638 297.053 170.449 296.717C170.259 296.38 169.996 296.118 169.66 295.928C169.329 295.734 168.943 295.637 168.502 295.637C168.043 295.637 167.636 295.744 167.281 295.957C166.931 296.165 166.656 296.447 166.457 296.802C166.258 297.152 166.156 297.543 166.152 297.974V299.756C166.152 300.296 166.251 300.763 166.45 301.156C166.654 301.549 166.94 301.852 167.309 302.065C167.679 302.278 168.117 302.384 168.623 302.384C168.959 302.384 169.267 302.337 169.547 302.242C169.826 302.147 170.065 302.005 170.264 301.816C170.463 301.627 170.614 301.395 170.718 301.12L173.517 301.305C173.375 301.977 173.083 302.564 172.643 303.066C172.208 303.563 171.644 303.951 170.953 304.231C170.266 304.505 169.473 304.643 168.574 304.643ZM182.551 299.785V293.521H185.576V304.43H182.672V302.448H182.558C182.312 303.087 181.902 303.601 181.329 303.989C180.761 304.378 180.067 304.572 179.248 304.572C178.519 304.572 177.877 304.406 177.324 304.075C176.77 303.743 176.336 303.272 176.024 302.661C175.716 302.05 175.56 301.319 175.555 300.467V293.521H178.581V299.927C178.585 300.571 178.758 301.08 179.099 301.454C179.44 301.828 179.897 302.015 180.47 302.015C180.834 302.015 181.175 301.932 181.493 301.766C181.81 301.596 182.065 301.345 182.26 301.013C182.458 300.682 182.556 300.272 182.551 299.785ZM187.94 304.43V302.626L193.281 296.013V295.935H188.124V293.521H196.924V295.488L191.91 301.937V302.015H197.109V304.43H187.94ZM199.365 304.43V302.626L204.706 296.013V295.935H199.55V293.521H208.35V295.488L203.336 301.937V302.015H208.534V304.43H199.365ZM213.959 304.636C213.263 304.636 212.643 304.515 212.098 304.273C211.554 304.027 211.123 303.665 210.805 303.187C210.493 302.704 210.337 302.103 210.337 301.383C210.337 300.777 210.448 300.268 210.67 299.856C210.893 299.444 211.196 299.112 211.58 298.862C211.963 298.611 212.399 298.421 212.886 298.293C213.379 298.165 213.895 298.076 214.435 298.023C215.069 297.957 215.58 297.896 215.969 297.839C216.357 297.777 216.639 297.687 216.814 297.569C216.989 297.451 217.077 297.275 217.077 297.043V297.001C217.077 296.551 216.935 296.203 216.651 295.957C216.371 295.71 215.973 295.587 215.457 295.587C214.913 295.587 214.48 295.708 214.158 295.95C213.836 296.186 213.623 296.485 213.518 296.844L210.72 296.617C210.862 295.954 211.142 295.381 211.558 294.898C211.975 294.411 212.512 294.037 213.17 293.776C213.833 293.511 214.6 293.379 215.472 293.379C216.078 293.379 216.658 293.45 217.212 293.592C217.77 293.734 218.265 293.954 218.696 294.252C219.132 294.55 219.475 294.934 219.726 295.403C219.977 295.867 220.102 296.423 220.102 297.072V304.43H217.233V302.917H217.148C216.973 303.258 216.738 303.558 216.445 303.819C216.151 304.075 215.798 304.276 215.386 304.423C214.974 304.565 214.499 304.636 213.959 304.636ZM214.825 302.548C215.27 302.548 215.663 302.46 216.004 302.285C216.345 302.105 216.613 301.863 216.807 301.56C217.001 301.257 217.098 300.914 217.098 300.531V299.373C217.003 299.434 216.873 299.491 216.707 299.543C216.546 299.591 216.364 299.636 216.161 299.678C215.957 299.716 215.753 299.752 215.55 299.785C215.346 299.813 215.161 299.839 214.996 299.863C214.641 299.915 214.33 299.998 214.065 300.112C213.8 300.225 213.594 300.379 213.447 300.573C213.301 300.763 213.227 300.999 213.227 301.283C213.227 301.695 213.376 302.01 213.675 302.228C213.978 302.441 214.361 302.548 214.825 302.548Z" fill="#F3F3F3"/>
</g>
<g filter="url(#filter2_i_2383_638)">
<path d="M43.2592 267.068H41.5973C41.5334 266.713 41.4144 266.401 41.2404 266.131C41.0664 265.861 40.8533 265.632 40.6012 265.444C40.3491 265.255 40.0668 265.113 39.7543 265.017C39.4453 264.922 39.1168 264.874 38.7688 264.874C38.1403 264.874 37.5774 265.032 37.0803 265.348C36.5866 265.664 36.196 266.127 35.9084 266.738C35.6243 267.349 35.4822 268.094 35.4822 268.975C35.4822 269.863 35.6243 270.612 35.9084 271.223C36.196 271.834 36.5884 272.295 37.0856 272.608C37.5827 272.92 38.142 273.077 38.7635 273.077C39.108 273.077 39.4347 273.031 39.7436 272.938C40.0561 272.842 40.3384 272.702 40.5906 272.517C40.8427 272.333 41.0558 272.107 41.2298 271.841C41.4073 271.571 41.5298 271.262 41.5973 270.914L43.2592 270.919C43.1705 271.456 42.9982 271.949 42.7425 272.4C42.4904 272.848 42.1655 273.235 41.7678 273.561C41.3736 273.885 40.9226 274.135 40.4148 274.312C39.907 274.49 39.353 274.579 38.7528 274.579C37.8082 274.579 36.9666 274.355 36.228 273.908C35.4893 273.457 34.907 272.812 34.4808 271.974C34.0582 271.136 33.8469 270.136 33.8469 268.975C33.8469 267.81 34.06 266.811 34.4862 265.976C34.9123 265.138 35.4947 264.495 36.2333 264.048C36.9719 263.597 37.8118 263.371 38.7528 263.371C39.3317 263.371 39.8714 263.455 40.3722 263.622C40.8764 263.785 41.3292 264.027 41.7305 264.346C42.1317 264.662 42.4638 265.049 42.7266 265.507C42.9893 265.962 43.1669 266.482 43.2592 267.068ZM46.0771 274.43H44.3299L48.2557 263.521H50.1573L54.0831 274.43H52.3359L49.2518 265.502H49.1665L46.0771 274.43ZM46.37 270.158H52.0376V271.543H46.37V270.158ZM55.6585 274.43V263.521H59.547C60.3921 263.521 61.0935 263.666 61.651 263.957C62.2121 264.249 62.6311 264.652 62.9081 265.167C63.1851 265.678 63.3236 266.269 63.3236 266.94C63.3236 267.608 63.1833 268.196 62.9028 268.703C62.6258 269.208 62.2068 269.6 61.6457 269.881C61.0882 270.161 60.3868 270.301 59.5416 270.301H56.596V268.885H59.3925C59.9252 268.885 60.3584 268.808 60.6922 268.656C61.0296 268.503 61.2764 268.281 61.4326 267.99C61.5889 267.699 61.667 267.349 61.667 266.94C61.667 266.528 61.5871 266.172 61.4273 265.87C61.271 265.568 61.0242 265.337 60.6869 265.177C60.3531 265.014 59.9145 264.932 59.3712 264.932H57.3044V274.43H55.6585ZM61.0438 269.508L63.7391 274.43H61.8641L59.222 269.508H61.0438ZM68.858 274.43H65.3264V263.521H68.9699C70.0388 263.521 70.9568 263.739 71.7238 264.176C72.4909 264.609 73.0786 265.232 73.4869 266.045C73.8989 266.855 74.1048 267.826 74.1048 268.959C74.1048 270.096 73.8971 271.072 73.4816 271.889C73.0697 272.706 72.4731 273.334 71.6919 273.775C70.9106 274.211 69.966 274.43 68.858 274.43ZM66.9724 272.991H68.7675C69.5985 272.991 70.2892 272.835 70.8396 272.523C71.39 272.207 71.8019 271.75 72.0754 271.154C72.3488 270.554 72.4855 269.822 72.4855 268.959C72.4855 268.103 72.3488 267.377 72.0754 266.781C71.8055 266.184 71.4024 265.731 70.8662 265.422C70.33 265.113 69.6642 264.959 68.8687 264.959H66.9724V272.991ZM80.1214 274.43V263.521H81.7673V268.261H87.2059V263.521H88.8572V274.43H87.2059V269.673H81.7673V274.43H80.1214ZM100.73 268.975C100.73 270.14 100.517 271.141 100.091 271.979C99.665 272.814 99.0809 273.457 98.3387 273.908C97.6001 274.355 96.7602 274.579 95.8192 274.579C94.8746 274.579 94.0312 274.355 93.289 273.908C92.5503 273.457 91.968 272.812 91.5418 271.974C91.1157 271.136 90.9026 270.136 90.9026 268.975C90.9026 267.81 91.1157 266.811 91.5418 265.976C91.968 265.138 92.5503 264.495 93.289 264.048C94.0312 263.597 94.8746 263.371 95.8192 263.371C96.7602 263.371 97.6001 263.597 98.3387 264.048C99.0809 264.495 99.665 265.138 100.091 265.976C100.517 266.811 100.73 267.81 100.73 268.975ZM99.1004 268.975C99.1004 268.087 98.9566 267.34 98.6689 266.733C98.3849 266.122 97.9942 265.66 97.4971 265.348C97.0035 265.032 96.4442 264.874 95.8192 264.874C95.1906 264.874 94.6295 265.032 94.1359 265.348C93.6423 265.66 93.2517 266.122 92.964 266.733C92.68 267.34 92.5379 268.087 92.5379 268.975C92.5379 269.863 92.68 270.612 92.964 271.223C93.2517 271.83 93.6423 272.292 94.1359 272.608C94.6295 272.92 95.1906 273.077 95.8192 273.077C96.4442 273.077 97.0035 272.92 97.4971 272.608C97.9942 272.292 98.3849 271.83 98.6689 271.223C98.9566 270.612 99.1004 269.863 99.1004 268.975ZM102.782 274.43V263.521H104.428V273.013H109.372V274.43H102.782ZM114.781 274.43H111.249V263.521H114.893C115.962 263.521 116.88 263.739 117.647 264.176C118.414 264.609 119.001 265.232 119.41 266.045C119.822 266.855 120.028 267.826 120.028 268.959C120.028 270.096 119.82 271.072 119.404 271.889C118.993 272.706 118.396 273.334 117.615 273.775C116.833 274.211 115.889 274.43 114.781 274.43ZM112.895 272.991H114.69C115.521 272.991 116.212 272.835 116.762 272.523C117.313 272.207 117.725 271.75 117.998 271.154C118.272 270.554 118.408 269.822 118.408 268.959C118.408 268.103 118.272 267.377 117.998 266.781C117.728 266.184 117.325 265.731 116.789 265.422C116.253 265.113 115.587 264.959 114.792 264.959H112.895V272.991ZM122.074 274.43V263.521H128.914V264.938H123.72V268.261H128.557V269.673H123.72V273.013H128.978V274.43H122.074ZM131.113 274.43V263.521H135.001C135.846 263.521 136.548 263.666 137.105 263.957C137.666 264.249 138.085 264.652 138.362 265.167C138.639 265.678 138.778 266.269 138.778 266.94C138.778 267.608 138.637 268.196 138.357 268.703C138.08 269.208 137.661 269.6 137.1 269.881C136.542 270.161 135.841 270.301 134.996 270.301H132.05V268.885H134.847C135.379 268.885 135.813 268.808 136.146 268.656C136.484 268.503 136.73 268.281 136.887 267.99C137.043 267.699 137.121 267.349 137.121 266.94C137.121 266.528 137.041 266.172 136.881 265.87C136.725 265.568 136.478 265.337 136.141 265.177C135.807 265.014 135.369 264.932 134.825 264.932H132.759V274.43H131.113ZM136.498 269.508L139.193 274.43H137.318L134.676 269.508H136.498ZM153.555 263.521V274.43H152.043L146.497 266.429H146.396V274.43H144.75V263.521H146.274L151.824 271.532H151.925V263.521H153.555ZM156.878 274.43H155.131L159.056 263.521H160.958L164.884 274.43H163.137L160.053 265.502H159.967L156.878 274.43ZM157.171 270.158H162.838V271.543H157.171V270.158ZM166.459 263.521H168.457L171.93 272.001H172.058L175.531 263.521H177.528V274.43H175.962V266.536H175.861L172.644 274.414H171.344L168.127 266.53H168.025V274.43H166.459V263.521ZM179.921 274.43V263.521H186.761V264.938H181.567V268.261H186.404V269.673H181.567V273.013H186.825V274.43H179.921Z" fill="#F3F3F3" fill-opacity="0.8"/>
</g>
<g filter="url(#filter3_i_2383_638)">
<path d="M259.305 263.521L262.342 272.406H262.464L265.5 263.521H267.279L263.354 274.43H261.452L257.526 263.521H259.305ZM268.663 274.43H266.916L270.842 263.521H272.743L276.669 274.43H274.922L271.838 265.502H271.752L268.663 274.43ZM268.956 270.158H274.624V271.543H268.956V270.158ZM278.244 274.43V263.521H279.89V273.013H284.834V274.43H278.244ZM288.357 263.521V274.43H286.711V263.521H288.357ZM294.286 274.43H290.754V263.521H294.398C295.467 263.521 296.384 263.739 297.152 264.176C297.919 264.609 298.506 265.232 298.915 266.045C299.327 266.855 299.533 267.826 299.533 268.959C299.533 270.096 299.325 271.072 298.909 271.889C298.497 272.706 297.901 273.334 297.12 273.775C296.338 274.211 295.394 274.43 294.286 274.43ZM292.4 272.991H294.195C295.026 272.991 295.717 272.835 296.267 272.523C296.818 272.207 297.23 271.75 297.503 271.154C297.777 270.554 297.913 269.822 297.913 268.959C297.913 268.103 297.777 267.377 297.503 266.781C297.233 266.184 296.83 265.731 296.294 265.422C295.758 265.113 295.092 264.959 294.296 264.959H292.4V272.991ZM305.011 264.938V263.521H313.454V264.938H310.05V274.43H308.41V264.938H305.011ZM315.32 274.43V263.521H316.966V268.261H322.404V263.521H324.055V274.43H322.404V269.673H316.966V274.43H315.32ZM326.452 274.43V263.521H330.341C331.186 263.521 331.887 263.666 332.445 263.957C333.006 264.249 333.425 264.652 333.702 265.167C333.979 265.678 334.118 266.269 334.118 266.94C334.118 267.608 333.977 268.196 333.697 268.703C333.42 269.208 333.001 269.6 332.44 269.881C331.882 270.161 331.181 270.301 330.336 270.301H327.39V268.885H330.186C330.719 268.885 331.152 268.808 331.486 268.656C331.824 268.503 332.07 268.281 332.227 267.99C332.383 267.699 332.461 267.349 332.461 266.94C332.461 266.528 332.381 266.172 332.221 265.87C332.065 265.568 331.818 265.337 331.481 265.177C331.147 265.014 330.708 264.932 330.165 264.932H328.098V274.43H326.452ZM331.838 269.508L334.533 274.43H332.658L330.016 269.508H331.838ZM343.136 263.521H344.787V270.696C344.787 271.459 344.608 272.136 344.249 272.725C343.89 273.311 343.386 273.773 342.736 274.11C342.086 274.444 341.325 274.611 340.451 274.611C339.581 274.611 338.821 274.444 338.171 274.11C337.521 273.773 337.017 273.311 336.658 272.725C336.3 272.136 336.12 271.459 336.12 270.696V263.521H337.766V270.562C337.766 271.056 337.875 271.495 338.091 271.878C338.311 272.262 338.622 272.564 339.023 272.784C339.425 273 339.901 273.109 340.451 273.109C341.005 273.109 341.483 273 341.884 272.784C342.289 272.564 342.598 272.262 342.811 271.878C343.027 271.495 343.136 271.056 343.136 270.562V263.521Z" fill="#F3F3F3" fill-opacity="0.8"/>
</g>
<g filter="url(#filter4_di_2383_638)">
<path d="M264.035 306.749C262.814 306.745 261.763 306.444 260.882 305.847C260.006 305.251 259.331 304.387 258.858 303.255C258.389 302.123 258.157 300.762 258.162 299.171C258.162 297.585 258.396 296.233 258.865 295.116C259.338 293.998 260.013 293.148 260.889 292.566C261.77 291.979 262.819 291.685 264.035 291.685C265.252 291.685 266.299 291.979 267.175 292.566C268.055 293.153 268.732 294.005 269.206 295.123C269.679 296.236 269.914 297.585 269.909 299.171C269.909 300.767 269.672 302.13 269.199 303.262C268.73 304.394 268.058 305.258 267.182 305.854C266.306 306.451 265.257 306.749 264.035 306.749ZM264.035 304.2C264.869 304.2 265.534 303.781 266.031 302.942C266.528 302.104 266.775 300.847 266.77 299.171C266.77 298.068 266.656 297.149 266.429 296.415C266.206 295.682 265.889 295.13 265.477 294.761C265.07 294.391 264.589 294.207 264.035 294.207C263.207 294.207 262.544 294.621 262.047 295.45C261.55 296.278 261.299 297.519 261.294 299.171C261.294 300.289 261.405 301.221 261.628 301.969C261.855 302.713 262.175 303.272 262.587 303.646C262.998 304.015 263.481 304.2 264.035 304.2ZM272.102 306.43V304.214L277.279 299.42C277.72 298.994 278.089 298.61 278.387 298.269C278.69 297.928 278.92 297.594 279.076 297.268C279.233 296.936 279.311 296.579 279.311 296.195C279.311 295.769 279.214 295.402 279.019 295.094C278.825 294.782 278.56 294.543 278.224 294.377C277.888 294.207 277.507 294.121 277.081 294.121C276.635 294.121 276.247 294.211 275.916 294.391C275.584 294.571 275.329 294.829 275.149 295.165C274.969 295.502 274.879 295.902 274.879 296.366H271.96C271.96 295.414 272.175 294.588 272.606 293.887C273.037 293.186 273.641 292.644 274.417 292.261C275.194 291.877 276.089 291.685 277.102 291.685C278.143 291.685 279.05 291.87 279.822 292.239C280.599 292.604 281.202 293.111 281.633 293.759C282.064 294.408 282.279 295.151 282.279 295.989C282.279 296.539 282.17 297.081 281.953 297.616C281.74 298.151 281.358 298.745 280.809 299.398C280.26 300.047 279.486 300.826 278.487 301.735L276.363 303.816V303.915H282.471V306.43H272.102ZM291.063 291.202L286.376 308.617H283.769L288.457 291.202H291.063ZM297.869 306.629C296.808 306.629 295.864 306.446 295.035 306.082C294.211 305.712 293.56 305.206 293.082 304.562C292.608 303.913 292.365 303.165 292.35 302.317H295.447C295.466 302.673 295.582 302.985 295.795 303.255C296.013 303.52 296.302 303.726 296.661 303.873C297.021 304.02 297.426 304.093 297.876 304.093C298.345 304.093 298.759 304.01 299.119 303.844C299.479 303.679 299.76 303.449 299.964 303.156C300.168 302.862 300.269 302.523 300.269 302.14C300.269 301.752 300.161 301.408 299.943 301.11C299.73 300.807 299.422 300.57 299.019 300.4C298.622 300.229 298.148 300.144 297.599 300.144H296.242V297.886H297.599C298.063 297.886 298.473 297.805 298.828 297.644C299.188 297.483 299.467 297.261 299.666 296.977C299.865 296.688 299.964 296.352 299.964 295.968C299.964 295.603 299.876 295.284 299.701 295.009C299.531 294.73 299.289 294.512 298.977 294.356C298.669 294.2 298.309 294.121 297.897 294.121C297.481 294.121 297.099 294.197 296.754 294.349C296.408 294.496 296.131 294.706 295.923 294.981C295.715 295.255 295.603 295.577 295.589 295.947H292.642C292.656 295.109 292.895 294.37 293.359 293.731C293.823 293.092 294.448 292.592 295.234 292.232C296.025 291.868 296.917 291.685 297.911 291.685C298.915 291.685 299.794 291.868 300.546 292.232C301.299 292.597 301.884 293.089 302.301 293.71C302.722 294.325 302.93 295.016 302.926 295.783C302.93 296.598 302.677 297.277 302.166 297.822C301.659 298.366 300.999 298.712 300.184 298.859V298.972C301.254 299.11 302.069 299.481 302.627 300.087C303.191 300.689 303.47 301.442 303.465 302.346C303.47 303.174 303.231 303.911 302.748 304.555C302.27 305.199 301.609 305.705 300.767 306.075C299.924 306.444 298.958 306.629 297.869 306.629ZM311.379 306.749C310.158 306.745 309.106 306.444 308.226 305.847C307.35 305.251 306.675 304.387 306.202 303.255C305.733 302.123 305.501 300.762 305.506 299.171C305.506 297.585 305.74 296.233 306.209 295.116C306.682 293.998 307.357 293.148 308.233 292.566C309.114 291.979 310.162 291.685 311.379 291.685C312.596 291.685 313.642 291.979 314.518 292.566C315.399 293.153 316.076 294.005 316.55 295.123C317.023 296.236 317.257 297.585 317.253 299.171C317.253 300.767 317.016 302.13 316.543 303.262C316.074 304.394 315.401 305.258 314.525 305.854C313.65 306.451 312.601 306.749 311.379 306.749ZM311.379 304.2C312.213 304.2 312.878 303.781 313.375 302.942C313.872 302.104 314.118 300.847 314.114 299.171C314.114 298.068 314 297.149 313.773 296.415C313.55 295.682 313.233 295.13 312.821 294.761C312.414 294.391 311.933 294.207 311.379 294.207C310.551 294.207 309.888 294.621 309.391 295.45C308.893 296.278 308.642 297.519 308.638 299.171C308.638 300.289 308.749 301.221 308.972 301.969C309.199 302.713 309.518 303.272 309.93 303.646C310.342 304.015 310.825 304.2 311.379 304.2Z" fill="#F3F3F3"/>
</g>
<path fill-rule="evenodd" clip-rule="evenodd" d="M35.1576 54.8651L35.1516 54.8731L35.1459 54.8812C34.8266 55.3333 34.1114 55.4661 33.552 55.071C33.1043 54.7548 32.9697 54.0502 33.351 53.4933C33.9198 52.7681 34.333 51.9203 34.6044 51.0915C34.8869 50.2287 35.0183 49.2483 35.0131 48.2867C35.008 47.3252 34.8662 46.3462 34.5745 45.4864C34.2943 44.6606 33.8722 43.8173 33.2956 43.0982C32.9084 42.5454 33.0355 41.8394 33.4799 41.5184C34.035 41.1174 34.7516 41.2426 35.0757 41.6913L35.0815 41.6993L35.0875 41.7072C35.8051 42.6535 36.3937 43.7049 36.7455 44.7365C37.1157 45.9499 37.3516 47.1237 37.3577 48.2743C37.3642 49.485 37.2485 50.631 36.8042 51.7591C36.3203 52.9877 35.8517 53.9292 35.1576 54.8651ZM40.3463 57.1123L40.3603 57.0924L40.3732 57.0718C41.9637 54.5235 42.8811 51.4484 42.8641 48.2449C42.847 45.0422 41.8974 41.9779 40.2805 39.447C39.9301 38.8913 40.0875 38.2343 40.6781 37.8077C41.0748 37.5212 41.8194 37.6226 42.2612 38.2148C44.0867 41.1111 45.1894 44.6123 45.2087 48.2324C45.2286 51.9762 44.1641 55.3638 42.3679 58.2812C41.9524 58.8531 41.3163 59.0134 40.7677 58.6893C40.1731 58.2535 40.0644 57.5114 40.3463 57.1123ZM49.6573 34.4078L49.673 34.4388L49.6911 34.4683C52.1647 38.5012 53.5393 43.1529 53.5661 48.1879C53.5929 53.2207 52.2692 57.8848 49.8408 61.9424C49.4685 62.5411 48.84 62.7098 48.2027 62.4133C47.6228 62.0353 47.467 61.409 47.7699 60.7764C49.8351 57.1087 51.1193 52.7866 51.0949 48.2011C51.0706 43.636 49.8769 39.3209 47.6318 35.6529C47.328 35.0266 47.4784 34.4029 48.0515 34.0206C48.7429 33.6903 49.4164 33.9324 49.6573 34.4078ZM56.9815 30.5699L56.9922 30.591L57.004 30.6115C60.0016 35.7929 61.7627 41.7168 61.7969 48.1441C61.8311 54.5648 60.1367 60.5015 57.2001 65.7107C56.8271 66.3024 56.2015 66.4682 55.5673 66.173C54.9892 65.7962 54.8326 65.1727 55.1317 64.5421C57.9607 59.7138 59.4841 54.12 59.4523 48.1566C59.4205 42.1779 57.7035 36.6057 54.9609 31.825C54.6172 31.1272 54.8594 30.4437 55.3391 30.2006C56.0431 29.8439 56.7363 30.0861 56.9815 30.5699Z" fill="white"/>
<path d="M467.986 58.2126L471.826 35.6855H477.966L474.125 58.2126H467.986ZM496.28 36.1797C494.518 35.5414 492.656 35.2211 490.782 35.2338C484.723 35.2338 480.454 38.2853 480.418 42.6597C480.384 45.8928 483.466 47.6961 485.792 48.7719C488.179 49.8752 488.981 50.5786 488.97 51.5636C488.955 53.0716 487.063 53.76 485.301 53.76C482.846 53.76 481.543 53.4153 479.528 52.5797L478.738 52.2222L477.877 57.2587C479.31 57.8862 481.959 58.431 484.708 58.4586C491.155 58.4586 495.339 55.4426 495.388 50.7717C495.411 48.2121 493.779 46.264 490.239 44.6584C488.095 43.624 486.783 42.9229 486.796 41.8689C486.796 40.9345 487.908 39.9346 490.309 39.9346C491.882 39.8994 493.445 40.193 494.898 40.7966L495.447 41.0563L496.28 36.1797ZM512.053 35.6855H507.329C505.866 35.6855 504.771 36.0855 504.128 37.5451L495.049 58.0977H501.511C501.511 58.0977 502.546 55.3645 502.784 54.7646L510.527 54.7738C510.707 55.5507 511.262 58.0977 511.262 58.0977H517L512.053 35.6855ZM504.542 50.1672C505.049 48.8707 506.986 43.878 506.986 43.878C506.949 43.9377 507.489 42.5746 507.798 41.7298L508.213 43.67C508.213 43.67 509.388 49.0408 509.633 50.1672H504.542ZM462.776 35.6855L456.786 50.9936L456.148 47.8823C455.033 44.2964 451.559 40.4116 447.674 38.4669L453.152 58.0977L459.625 58.0907L469.257 35.6855H462.746" fill="url(#paint3_linear_2383_638)"/>
<path d="M450.926 35.6853H441.079L441 36.153C448.694 38.0161 453.784 42.517 455.898 47.9235L453.747 37.5794C453.376 36.1553 452.3 35.7301 450.968 35.6807" fill="url(#paint4_linear_2383_638)"/>
<g opacity="0.7">
<rect x="459.7" y="276.95" width="56.6" height="42.7905" rx="6.55" fill="white" fill-opacity="0.26" stroke="white" stroke-width="1.4"/>
<path d="M459.906 289.844H475.313C477.315 289.844 478.938 291.467 478.938 293.469V300.492M478.938 319.569V311.141M478.938 311.141V300.492M478.938 311.141H459.906M478.938 300.492H459.906" stroke="white" stroke-width="1.4"/>
<path d="M516.094 289.844H497.969M497.969 289.844V300.492M497.969 289.844V277.156M497.969 319.569V311.141M497.969 311.141V300.492M497.969 311.141H516.094M497.969 300.492H516.094" stroke="white" stroke-width="1.4"/>
</g>
<defs>
<filter id="filter0_d_2383_638" x="30.9702" y="159.986" width="445.321" height="36.6215" filterUnits="userSpaceOnUse" color-interpolation-filters="sRGB">
<feFlood flood-opacity="0" result="BackgroundImageFix"/>
<feColorMatrix in="SourceAlpha" type="matrix" values="0 0 0 0 0 0 0 0 0 0 0 0 0 0 0 0 0 0 127 0" result="hardAlpha"/>
<feOffset dy="1"/>
<feGaussianBlur stdDeviation="2"/>
<feComposite in2="hardAlpha" operator="out"/>
<feColorMatrix type="matrix" values="0 0 0 0 0 0 0 0 0 0 0 0 0 0 0 0 0 0 0.16 0"/>
<feBlend mode="normal" in2="BackgroundImageFix" result="effect1_dropShadow_2383_638"/>
<feBlend mode="normal" in="SourceGraphic" in2="effect1_dropShadow_2383_638" result="shape"/>
</filter>
<filter id="filter1_di_2383_638" x="30.2642" y="286.053" width="193.838" height="23.5895" filterUnits="userSpaceOnUse" color-interpolation-filters="sRGB">
<feFlood flood-opacity="0" result="BackgroundImageFix"/>
<feColorMatrix in="SourceAlpha" type="matrix" values="0 0 0 0 0 0 0 0 0 0 0 0 0 0 0 0 0 0 127 0" result="hardAlpha"/>
<feOffset dy="1"/>
<feGaussianBlur stdDeviation="2"/>
<feComposite in2="hardAlpha" operator="out"/>
<feColorMatrix type="matrix" values="0 0 0 0 0.154167 0 0 0 0 0.154167 0 0 0 0 0.154167 0 0 0 0.58 0"/>
<feBlend mode="normal" in2="BackgroundImageFix" result="effect1_dropShadow_2383_638"/>
<feBlend mode="normal" in="SourceGraphic" in2="effect1_dropShadow_2383_638" result="shape"/>
<feColorMatrix in="SourceAlpha" type="matrix" values="0 0 0 0 0 0 0 0 0 0 0 0 0 0 0 0 0 0 127 0" result="hardAlpha"/>
<feOffset dy="-1"/>
<feGaussianBlur stdDeviation="0.5"/>
<feComposite in2="hardAlpha" operator="arithmetic" k2="-1" k3="1"/>
<feColorMatrix type="matrix" values="0 0 0 0 0.208333 0 0 0 0 0.208333 0 0 0 0 0.208333 0 0 0 0.22 0"/>
<feBlend mode="normal" in2="shape" result="effect2_innerShadow_2383_638"/>
</filter>
<filter id="filter2_i_2383_638" x="33.8469" y="262.371" width="152.978" height="12.2074" filterUnits="userSpaceOnUse" color-interpolation-filters="sRGB">
<feFlood flood-opacity="0" result="BackgroundImageFix"/>
<feBlend mode="normal" in="SourceGraphic" in2="BackgroundImageFix" result="shape"/>
<feColorMatrix in="SourceAlpha" type="matrix" values="0 0 0 0 0 0 0 0 0 0 0 0 0 0 0 0 0 0 127 0" result="hardAlpha"/>
<feOffset dy="-1"/>
<feGaussianBlur stdDeviation="0.5"/>
<feComposite in2="hardAlpha" operator="arithmetic" k2="-1" k3="1"/>
<feColorMatrix type="matrix" values="0 0 0 0 0.316667 0 0 0 0 0.316667 0 0 0 0 0.316667 0 0 0 0.4 0"/>
<feBlend mode="normal" in2="shape" result="effect1_innerShadow_2383_638"/>
</filter>
<filter id="filter3_i_2383_638" x="257.526" y="262.521" width="87.2607" height="12.0901" filterUnits="userSpaceOnUse" color-interpolation-filters="sRGB">
<feFlood flood-opacity="0" result="BackgroundImageFix"/>
<feBlend mode="normal" in="SourceGraphic" in2="BackgroundImageFix" result="shape"/>
<feColorMatrix in="SourceAlpha" type="matrix" values="0 0 0 0 0 0 0 0 0 0 0 0 0 0 0 0 0 0 127 0" result="hardAlpha"/>
<feOffset dy="-1"/>
<feGaussianBlur stdDeviation="0.5"/>
<feComposite in2="hardAlpha" operator="arithmetic" k2="-1" k3="1"/>
<feColorMatrix type="matrix" values="0 0 0 0 0.316667 0 0 0 0 0.316667 0 0 0 0 0.316667 0 0 0 0.4 0"/>
<feBlend mode="normal" in2="shape" result="effect1_innerShadow_2383_638"/>
</filter>
<filter id="filter4_di_2383_638" x="254.155" y="288.202" width="67.1051" height="25.4148" filterUnits="userSpaceOnUse" color-interpolation-filters="sRGB">
<feFlood flood-opacity="0" result="BackgroundImageFix"/>
<feColorMatrix in="SourceAlpha" type="matrix" values="0 0 0 0 0 0 0 0 0 0 0 0 0 0 0 0 0 0 127 0" result="hardAlpha"/>
<feOffset dy="1"/>
<feGaussianBlur stdDeviation="2"/>
<feComposite in2="hardAlpha" operator="out"/>
<feColorMatrix type="matrix" values="0 0 0 0 0.154167 0 0 0 0 0.154167 0 0 0 0 0.154167 0 0 0 0.58 0"/>
<feBlend mode="normal" in2="BackgroundImageFix" result="effect1_dropShadow_2383_638"/>
<feBlend mode="normal" in="SourceGraphic" in2="effect1_dropShadow_2383_638" result="shape"/>
<feColorMatrix in="SourceAlpha" type="matrix" values="0 0 0 0 0 0 0 0 0 0 0 0 0 0 0 0 0 0 127 0" result="hardAlpha"/>
<feOffset dy="-1"/>
<feGaussianBlur stdDeviation="0.5"/>
<feComposite in2="hardAlpha" operator="arithmetic" k2="-1" k3="1"/>
<feColorMatrix type="matrix" values="0 0 0 0 0.208333 0 0 0 0 0.208333 0 0 0 0 0.208333 0 0 0 0.22 0"/>
<feBlend mode="normal" in2="shape" result="effect2_innerShadow_2383_638"/>
</filter>
<linearGradient id="paint0_linear_2383_638" x1="-3.901e-06" y1="83" x2="531" y2="355" gradientUnits="userSpaceOnUse">
<stop/>
<stop offset="0.706073" stop-color="#404040" stop-opacity="0.293927"/>
<stop offset="1" stop-color="#050505" stop-opacity="0"/>
</linearGradient>
<linearGradient id="paint1_linear_2383_638" x1="543.826" y1="114.486" x2="62.649" y2="290.422" gradientUnits="userSpaceOnUse">
<stop stop-color="#A3A3A3"/>
<stop offset="0.742198" stop-color="white" stop-opacity="0"/>
</linearGradient>
<linearGradient id="paint2_linear_2383_638" x1="254" y1="154" x2="254" y2="200" gradientUnits="userSpaceOnUse">
<stop stop-color="white"/>
<stop offset="1" stop-color="#F8F8F8" stop-opacity="0.81"/>
</linearGradient>
<linearGradient id="paint3_linear_2383_638" x1="482.337" y1="35.2334" x2="482.337" y2="58.4586" gradientUnits="userSpaceOnUse">
<stop stop-color="white"/>
<stop offset="1" stop-color="white" stop-opacity="0.75"/>
</linearGradient>
<linearGradient id="paint4_linear_2383_638" x1="448.449" y1="35.6807" x2="448.449" y2="47.9235" gradientUnits="userSpaceOnUse">
<stop stop-color="white"/>
<stop offset="1" stop-color="white" stop-opacity="0.75"/>
</linearGradient>
</defs>
</svg>
