<svg width="776" height="1044" viewBox="0 0 776 1044" fill="none" xmlns="http://www.w3.org/2000/svg">
<g clip-path="url(#clip0_2410_49)">
<rect width="776" height="522" fill="black"/>
<path d="M0 0H776V34C776 248.286 602.286 422 388 422V422C173.714 422 0 248.286 0 34V0Z" fill="url(#paint0_radial_2410_49)"/>
<g filter="url(#filter0_b_2410_49)">
<path d="M0 0H776V27C776 241.286 602.286 415 388 415V415C173.714 415 0 241.286 0 27V0Z" fill="white" fill-opacity="0.01"/>
</g>
<g filter="url(#filter1_b_2410_49)">
<path d="M776 844L6.10352e-05 844L6.57318e-05 817C0.000103007 602.713 173.714 429 388 429V429C602.287 429 776 602.714 776 817L776 844Z" fill="white" fill-opacity="0.01"/>
</g>
</g>
<g clip-path="url(#clip1_2410_49)">
<rect width="776" height="522" transform="matrix(1 0 0 -1 0 1044)" fill="black"/>
<path d="M0 1044H776V1010C776 795.714 602.286 622 388 622V622C173.714 622 0 795.714 0 1010V1044Z" fill="url(#paint1_radial_2410_49)"/>
<g filter="url(#filter2_b_2410_49)">
<path d="M0 1044H776V1017C776 802.714 602.286 629 388 629V629C173.714 629 0 802.714 0 1017V1044Z" fill="white" fill-opacity="0.01"/>
</g>
<g filter="url(#filter3_b_2410_49)">
<path d="M390 200L0 200L1.9233e-05 420C2.86481e-05 527.696 87.3045 615 195 615V615C302.696 615 390 527.696 390 420L390 200Z" fill="white" fill-opacity="0.01"/>
</g>
</g>
<defs>
<filter id="filter0_b_2410_49" x="-74" y="-74" width="924" height="563" filterUnits="userSpaceOnUse" color-interpolation-filters="sRGB">
<feFlood flood-opacity="0" result="BackgroundImageFix"/>
<feGaussianBlur in="BackgroundImageFix" stdDeviation="37"/>
<feComposite in2="SourceAlpha" operator="in" result="effect1_backgroundBlur_2410_49"/>
<feBlend mode="normal" in="SourceGraphic" in2="effect1_backgroundBlur_2410_49" result="shape"/>
</filter>
<filter id="filter1_b_2410_49" x="-73" y="356" width="922" height="561" filterUnits="userSpaceOnUse" color-interpolation-filters="sRGB">
<feFlood flood-opacity="0" result="BackgroundImageFix"/>
<feGaussianBlur in="BackgroundImageFix" stdDeviation="36.5"/>
<feComposite in2="SourceAlpha" operator="in" result="effect1_backgroundBlur_2410_49"/>
<feBlend mode="normal" in="SourceGraphic" in2="effect1_backgroundBlur_2410_49" result="shape"/>
</filter>
<filter id="filter2_b_2410_49" x="-74" y="555" width="924" height="563" filterUnits="userSpaceOnUse" color-interpolation-filters="sRGB">
<feFlood flood-opacity="0" result="BackgroundImageFix"/>
<feGaussianBlur in="BackgroundImageFix" stdDeviation="37"/>
<feComposite in2="SourceAlpha" operator="in" result="effect1_backgroundBlur_2410_49"/>
<feBlend mode="normal" in="SourceGraphic" in2="effect1_backgroundBlur_2410_49" result="shape"/>
</filter>
<filter id="filter3_b_2410_49" x="-73" y="127" width="536" height="561" filterUnits="userSpaceOnUse" color-interpolation-filters="sRGB">
<feFlood flood-opacity="0" result="BackgroundImageFix"/>
<feGaussianBlur in="BackgroundImageFix" stdDeviation="36.5"/>
<feComposite in2="SourceAlpha" operator="in" result="effect1_backgroundBlur_2410_49"/>
<feBlend mode="normal" in="SourceGraphic" in2="effect1_backgroundBlur_2410_49" result="shape"/>
</filter>
<radialGradient id="paint0_radial_2410_49" cx="0" cy="0" r="1" gradientUnits="userSpaceOnUse" gradientTransform="translate(388 422) rotate(-90) scale(444 950.02)">
<stop offset="0.415903"/>
<stop offset="0.539072" stop-color="#0059FC"/>
<stop offset="0.661458" stop-color="#0076F1"/>
<stop offset="0.828297" stop-color="#D1EBFC"/>
</radialGradient>
<radialGradient id="paint1_radial_2410_49" cx="0" cy="0" r="1" gradientUnits="userSpaceOnUse" gradientTransform="translate(388 622) rotate(90) scale(444 950.02)">
<stop offset="0.415903"/>
<stop offset="0.539072" stop-color="#0059FC"/>
<stop offset="0.661458" stop-color="#0076F1"/>
<stop offset="0.828297" stop-color="#D1EBFC"/>
</radialGradient>
<clipPath id="clip0_2410_49">
<rect width="776" height="522" fill="white"/>
</clipPath>
<clipPath id="clip1_2410_49">
<rect width="776" height="522" fill="white" transform="matrix(1 0 0 -1 0 1044)"/>
</clipPath>
</defs>
</svg>
